<?xml version="1.0" encoding="iso-8859-1"?>
<!-- Generator: Adobe Illustrator 19.0.0, SVG Export Plug-In . SVG Version: 6.00 Build 0)  -->
<svg version="1.1" id="Capa_1" xmlns="http://www.w3.org/2000/svg" xmlns:xlink="http://www.w3.org/1999/xlink" x="0px" y="0px"
	 viewBox="0 0 512 512" style="enable-background:new 0 0 512 512;" xml:space="preserve">
<g>
	<path style="fill:#83C9FF;" d="M461.84,292.582h-37.785c-4.458,0-8.072-3.613-8.072-8.072c0-4.459,3.613-8.072,8.072-8.072h37.785
		c4.458,0,8.072,3.613,8.072,8.072C469.912,288.969,466.299,292.582,461.84,292.582z"/>
	<path style="fill:#83C9FF;" d="M229.276,209.63h-71.193c-4.458,0-8.072-3.613-8.072-8.072c0-4.459,3.614-8.072,8.072-8.072h71.193
		c4.458,0,8.072,3.613,8.072,8.072C237.348,206.017,233.734,209.63,229.276,209.63z"/>
	<path style="fill:#83C9FF;" d="M383.68,165.848h-28.15c-4.458,0-8.072-3.613-8.072-8.072s3.613-8.072,8.072-8.072h28.15
		c4.458,0,8.072,3.613,8.072,8.072S388.137,165.848,383.68,165.848z"/>
	<path style="fill:#83C9FF;" d="M271.989,136.832h-16.397c-4.458,0-8.072-3.613-8.072-8.072c0-4.459,3.613-8.072,8.072-8.072h16.397
		c4.458,0,8.072,3.613,8.072,8.072C280.061,133.219,276.446,136.832,271.989,136.832z"/>
	<path style="fill:#83C9FF;" d="M116.912,209.63h-28.15c-4.458,0-8.072-3.613-8.072-8.072c0-4.459,3.613-8.072,8.072-8.072h28.15
		c4.458,0,8.072,3.613,8.072,8.072C124.984,206.017,121.37,209.63,116.912,209.63z"/>
	<path style="fill:#83C9FF;" d="M264.232,113.63h-77.223c-4.458,0-8.072-3.614-8.072-8.072s3.613-8.072,8.072-8.072h77.223
		c4.458,0,8.072,3.614,8.072,8.072C272.303,110.017,268.69,113.63,264.232,113.63z"/>
</g>
<path style="fill:#D19254;" d="M493.22,366.149H270.662v-0.01h0.01l77.874-103.563l25.829-34.352
	c0.753-1.001,1.765-1.657,2.863-1.948c1.98-0.549,4.23,0.054,5.639,1.83l94.07,117.683L493.22,366.149z"/>
<g>
	<path style="fill:#C48751;" d="M424.056,366.148H270.664l77.883-103.576l71.268,91.249
		C422.615,357.404,424.056,361.756,424.056,366.148z"/>
	<polygon style="fill:#C48751;" points="493.223,366.148 314.857,366.148 322.121,345.787 476.944,345.787 	"/>
</g>
<path style="fill:#996D48;" d="M377.238,226.275L326.7,366.138h-56.038l77.885-103.563l25.829-34.352
	C375.129,227.223,376.14,226.567,377.238,226.275z"/>
<path style="fill:#E0A35D;" d="M404.046,366.139H102.527v-0.01h0.01l70.609-91.681l27.572-35.784l12.301-15.971l34.977-45.426
	c0.753-0.979,1.775-1.614,2.863-1.905c1.991-0.538,4.24,0.086,5.639,1.883l53.573,68.576l12.323,15.777L404.046,366.139z"/>
<path style="fill:#D19254;" d="M322.395,261.597c-3.552,2.776-7.91,4.24-12.333,4.24c-3.218,0-6.468-0.786-9.459-2.389l-0.775-0.42
	c-3.046,1.819-6.576,2.809-10.213,2.809h-36.322c-6.102,0-11.569-2.744-15.249-7.06l-13.517-2.012
	c-1.421-0.215-2.819-0.571-4.155-1.076c-2.604-0.979-4.972-2.496-6.974-4.477l-12.678-12.548l12.301-15.971l34.977-45.426
	c0.753-0.979,1.775-1.614,2.863-1.905c1.991-0.538,4.24,0.086,5.639,1.883l53.573,68.576L322.395,261.597z"/>
<path style="fill:#E8B077;" d="M310.072,245.819l-12.734-6.847c-1.196-0.644-2.685-0.293-3.468,0.817l-3.453,4.892
	c-0.504,0.714-1.323,1.138-2.195,1.138H255.98c-1.484,0-2.687-1.203-2.687-2.687l0,0c0-1.331-0.975-2.462-2.291-2.658l-22.658-3.372
	c-0.564-0.084-1.088-0.346-1.493-0.746l-13.828-13.664l34.977-45.426c0.753-0.979,1.775-1.614,2.863-1.905
	c1.991-0.538,4.24,0.086,5.639,1.883L310.072,245.819z"/>
<g>
	<polygon style="fill:#D19254;" points="246.44,366.138 102.532,366.138 173.151,274.448 240.247,358.394 	"/>
	<polygon style="fill:#D19254;" points="162.403,366.134 404.043,366.134 388.307,345.782 169.854,345.782 	"/>
</g>
<path style="fill:#AF7C4E;" d="M250.86,175.36l-23.386,61.612l-7.103,18.715l-20.038,52.766l-21.89,57.673h-75.916l70.62-91.681
	l74.849-97.181C248.75,176.286,249.773,175.651,250.86,175.36z"/>
<g>
	<polygon style="fill:#996D48;" points="200.715,238.659 219.672,257.521 227.47,236.978 213.022,222.691 	"/>
	<polygon style="fill:#996D48;" points="200.336,308.456 178.443,366.128 102.543,366.128 173.151,274.448 	"/>
</g>
<path style="fill:#E0A35D;" d="M240.528,390.794H17.971l103.703-137.925c0.753-1.001,1.765-1.657,2.863-1.948
	c1.98-0.549,4.23,0.053,5.639,1.83l94.447,118.146L240.528,390.794z"/>
<polygon style="fill:#D19254;" points="240.527,390.791 62.161,390.791 67.664,370.89 224.618,370.89 "/>
<path style="fill:#AF7C4E;" d="M124.536,250.92L73.997,390.794H17.97l103.703-137.925
	C122.426,251.868,123.438,251.212,124.536,250.92z"/>
<g>
	<path style="fill:#D19254;" d="M122.773,377.461h-14.258c-4.458,0-8.072-3.614-8.072-8.072s3.614-8.072,8.072-8.072h14.258
		c4.458,0,8.072,3.614,8.072,8.072S127.231,377.461,122.773,377.461z"/>
	<path style="fill:#D19254;" d="M158.568,352.697h-14.258c-4.458,0-8.072-3.613-8.072-8.072s3.614-8.072,8.072-8.072h14.258
		c4.458,0,8.072,3.613,8.072,8.072S163.026,352.697,158.568,352.697z"/>
	<path style="fill:#D19254;" d="M322.631,340.691h-10.534c-4.458,0-8.072-3.613-8.072-8.072s3.614-8.072,8.072-8.072h10.534
		c4.458,0,8.072,3.613,8.072,8.072S327.089,340.691,322.631,340.691z"/>
	<path style="fill:#D19254;" d="M294.055,324.183h-14.258c-4.458,0-8.072-3.614-8.072-8.072s3.613-8.072,8.072-8.072h14.258
		c4.458,0,8.072,3.614,8.072,8.072C302.126,320.569,298.512,324.183,294.055,324.183z"/>
	<path style="fill:#D19254;" d="M296.397,292.582h-4.683c-4.458,0-8.072-3.613-8.072-8.072c0-4.459,3.613-8.072,8.072-8.072h4.683
		c4.458,0,8.072,3.613,8.072,8.072C304.468,288.969,300.854,292.582,296.397,292.582z"/>
	<path style="fill:#D19254;" d="M426.397,333.438h-4.683c-4.458,0-8.072-3.613-8.072-8.072c0-4.459,3.613-8.072,8.072-8.072h4.683
		c4.458,0,8.072,3.613,8.072,8.072C434.469,329.824,430.855,333.438,426.397,333.438z"/>
</g>
<path style="fill:#C48751;" d="M404.04,314.428h-4.682c-4.458,0-8.072-3.613-8.072-8.072s3.613-8.072,8.072-8.072h4.682
	c4.458,0,8.072,3.613,8.072,8.072S408.498,314.428,404.04,314.428z"/>
<g>
	<path style="fill:#83C9FF;" d="M406.236,190.696h-77.581c-4.458,0-8.072-3.613-8.072-8.072s3.613-8.072,8.072-8.072h77.581
		c4.458,0,8.072,3.613,8.072,8.072S410.694,190.696,406.236,190.696z"/>
	<path style="fill:#83C9FF;" d="M223.042,136.832h-85.245c-4.458,0-8.072-3.613-8.072-8.072c0-4.459,3.614-8.072,8.072-8.072h85.245
		c4.458,0,8.072,3.613,8.072,8.072C231.113,133.219,227.499,136.832,223.042,136.832z"/>
</g>
<path style="fill:#FEDBA8;" d="M512,414.513H0.805c0,0-7.469-24.139,23.085-33.674c20.275-6.328,57.318-1.249,124.441,3.562
	c57.76,4.143,74.463-39.034,120.179-31.156C440.701,382.917,512.032,309.444,512,414.513z"/>
<path style="fill:#EDC38C;" d="M511.063,414.513H3.043c3.121-5.715,9.244-11.44,20.846-15.066
	c20.275-6.328,57.318-1.249,124.441,3.562c57.76,4.143,74.463-39.034,120.179-31.156
	C429.294,399.555,502.142,337.329,511.063,414.513z"/>
<g>
	<path style="fill:#E8B077;" d="M458.973,396.984h-16.432c-4.458,0-8.072-3.613-8.072-8.072s3.614-8.072,8.072-8.072h16.432
		c4.458,0,8.072,3.613,8.072,8.072S463.431,396.984,458.973,396.984z"/>
	<path style="fill:#E8B077;" d="M264.7,393.604h-16.433c-4.458,0-8.072-3.613-8.072-8.072c0-4.459,3.613-8.072,8.072-8.072H264.7
		c4.458,0,8.072,3.613,8.072,8.072C272.771,389.991,269.157,393.604,264.7,393.604z"/>
</g>
<g>
</g>
<g>
</g>
<g>
</g>
<g>
</g>
<g>
</g>
<g>
</g>
<g>
</g>
<g>
</g>
<g>
</g>
<g>
</g>
<g>
</g>
<g>
</g>
<g>
</g>
<g>
</g>
<g>
</g>
</svg>
