<?xml version="1.0" encoding="iso-8859-1"?>
<!-- Generator: Adobe Illustrator 19.0.0, SVG Export Plug-In . SVG Version: 6.00 Build 0)  -->
<svg version="1.1" id="Capa_1" xmlns="http://www.w3.org/2000/svg" xmlns:xlink="http://www.w3.org/1999/xlink" x="0px" y="0px"
	 viewBox="0 0 512 512" style="enable-background:new 0 0 512 512;" xml:space="preserve">
<path style="fill:#BAB6A0;" d="M147.396,203.077c4.391,17.976,2.538,98.904,1.1,144.106c-0.588,18.325-1.1,30.777-1.1,30.777H54.877
	c-2.026-4.194-3.062-12.377-3.411-23.021c-0.12-3.541-0.163-7.354-0.131-11.396c0.305-50.596,10.938-135.445,10.938-144.913
	c0-10.459,4.325-14.533,9.348-23.304c0.98-1.71,1.994-3.595,2.996-5.742c3.258-6.962,5.132-16.451,6.188-23.849h68.049
	c0.251,1.526,0.654,3.182,1.297,4.935C154.118,161.774,141.23,177.812,147.396,203.077z"/>
<path style="fill:#A8A288;" d="M147.401,203.079c-6.169-25.269,6.72-41.308,2.747-52.404c-0.633-1.761-1.045-3.414-1.291-4.935
	H80.808c-1.053,7.395-2.936,16.887-6.194,23.846c-1.003,2.147-2.016,4.03-2.994,5.742l50.964,3.257v18.976
	c0,0-6.581,61.139-5.487,64.289c1.102,3.159-5.478,48.439-5.478,48.439l-2.904,29.516c-24.842-1.97-45.379,1.115-57.381,3.741
	c-0.032,4.042,0.01,7.856,0.131,11.396c0.077,2.372,0.191,4.614,0.341,6.725c0.519,7.361,1.493,13.034,3.066,16.3h92.527
	c0,0,0.508-12.322,1.086-30.478c0.003-0.102,0.006-0.202,0.009-0.305l0,0C149.933,301.986,151.79,221.058,147.401,203.079z"/>
<path style="fill:#BAB6A0;" d="M301.079,229.638v148.334h-92.323c0,0,2.746-13.869,4.347-31.257
	c1.797-19.448,2.157-43.296-4.347-57.067c-12.333-26.071,8.629-143.911,8.629-143.911h69.781c0,0-0.719,5.567-1.133,12.289
	c-0.261,4.282-0.381,9.032-0.131,13.128c0.185,2.963,0.566,5.578,1.264,7.43C290.359,187.029,301.079,229.638,301.079,229.638z"/>
<g>
	<path style="fill:#A8A288;" d="M301.082,229.638v148.329h-44.241l6.02-113.281c0.047-0.732,0.116-1.464,0.22-2.185l13.201-88.794
		c0.976-6.555,4.625-12.132,9.75-15.677c-0.256,4.277-0.383,9.029-0.128,13.12c0.186,2.963,0.569,5.578,1.266,7.438
		C290.355,187.025,301.082,229.638,301.082,229.638z"/>
	<path style="fill:#A8A288;" d="M289.237,337.868l-45.337,5.268l-2.9-17.812l3.287-36.189l-16.448-19.777l-2.196-65.671
		l7.675-25.104l7.682-3.611l44.902-3.817c-0.658-10.545,1.275-25.416,1.275-25.416h-69.792c0,0-20.967,117.836-8.637,143.911
		c12.338,26.066,0,88.316,0,88.316h0.009c0,0.001-0.001,0.006-0.001,0.006h92.323v-40.104H289.237z"/>
</g>
<path style="fill:#C6C2B0;" d="M319.977,98.534v37.638l-15.204,16.401c-0.959,1.034-2.281,1.656-3.69,1.736l-42.488,2.387
	l-92.944,5.206l-114.737-7.388c-2.867-0.185-5.097-2.563-5.097-5.437v-34.707c0-2.797,2.113-5.139,4.896-5.42
	c24.678-2.485,134.608-13.507,143.804-13.507c10.365,0,34.247,4.497,60.161-1.661c15.92-3.789,36.931-2.929,50.772-1.685
	c3.926,0.347,7.274,0.725,9.764,1.035C317.939,93.469,319.977,95.788,319.977,98.534z"/>
<g>
	<path style="fill:#BAB6A0;" d="M319.977,98.534v37.638l-15.204,16.401c-0.959,1.034-2.281,1.656-3.69,1.736l-42.488,2.387
		c-0.209-2.219-0.093-4.463,0.336-6.647l7.74-39.243c2.149-10.889,11.702-18.744,22.812-18.744h0.046l15.92,0.034
		c3.926,0.347,7.274,0.725,9.764,1.035C317.939,93.469,319.977,95.788,319.977,98.534z"/>
	<path style="fill:#BAB6A0;" d="M319.977,133.653v2.521l-15.204,16.4c-0.959,1.034-2.282,1.656-3.69,1.736l-135.43,7.593
		l-114.737-7.388c-2.867-0.185-5.097-2.563-5.097-5.437v-15.368l108.573,7.588L319.977,133.653z"/>
</g>
<path style="fill:#969077;" d="M294.702,133.105h-32.065c-4.513,0-8.171-3.658-8.171-8.171c0-4.513,3.658-8.171,8.171-8.171h32.065
	c4.513,0,8.171,3.658,8.171,8.171C302.873,129.447,299.216,133.105,294.702,133.105z"/>
<polygon style="fill:#BAB6A0;" points="359.604,177.397 359.604,208.961 355.398,340.188 353.764,391.166 279.418,391.166 
	281.629,349.58 286.074,265.918 299.279,177.126 317.124,177.202 "/>
<g>
	<path style="fill:#A8A288;" d="M281.629,349.58c18.227-4.075,44.298-8.542,73.769-9.392l-1.634,50.977h-74.347L281.629,349.58z"/>
	<polygon style="fill:#A8A288;" points="359.599,177.403 359.599,208.965 353.766,391.168 327.422,391.168 329.78,352.471 
		312.721,312.135 315.836,273.519 312.721,266.069 317.125,177.205 	"/>
</g>
<polygon style="fill:#BAB6A0;" points="474.653,275.44 469.664,353.589 469.26,359.963 467.038,394.729 396.799,394.729 
	407.868,342.924 409.164,336.844 415.821,305.674 409.579,265.711 409.579,194.045 467.038,198.12 467.964,207.544 474.207,270.821 
	"/>
<g>
	<path style="fill:#A8A288;" d="M469.26,359.963l-2.223,34.766h-70.239l11.07-51.805
		C428.373,345.811,449.236,351.138,469.26,359.963z"/>
	<polygon style="fill:#A8A288;" points="467.964,207.544 409.579,220.214 409.579,194.045 467.038,198.12 	"/>
</g>
<path style="fill:#C6C2B0;" d="M483.826,164.771l-18.44,36.548c-0.97,1.922-2.98,3.092-5.129,2.987l-169.931-8.301
	c-2.706-0.133-4.905-2.234-5.158-4.932l-1.302-13.869l-2.126-22.661l6.871-34.84c0.505-2.557,2.75-4.399,5.356-4.394l172.498,0.374
	c8.46,0.011,15.421,6.671,15.804,15.13L483.826,164.771z"/>
<path style="fill:#BAB6A0;" d="M483.826,164.771l-18.44,36.548c-0.97,1.922-2.98,3.092-5.129,2.987l-169.931-8.301
	c-2.706-0.133-4.905-2.234-5.158-4.932l-3.428-36.53l115.058,22.661l42.998-8.529l20.139,3.649L483.826,164.771z"/>
<g>
	<path style="fill:#969077;" d="M348.759,174.802H336.16c-4.513,0-8.171-3.658-8.171-8.171s3.658-8.171,8.171-8.171h12.598
		c4.513,0,8.171,3.658,8.171,8.171C356.93,171.144,353.272,174.802,348.759,174.802z"/>
	<path style="fill:#969077;" d="M429.954,153.999h-33.157c-4.513,0-8.171-3.658-8.171-8.171c0-4.513,3.658-8.171,8.171-8.171h33.157
		c4.513,0,8.171,3.658,8.171,8.171C438.126,150.341,434.468,153.999,429.954,153.999z"/>
	<path style="fill:#969077;" d="M444.444,249.515c-4.513,0-8.171-3.658-8.171-8.171v-7.486c0-4.513,3.658-8.171,8.171-8.171
		c4.513,0,8.171,3.658,8.171,8.171v7.486C452.615,245.857,448.957,249.515,444.444,249.515z"/>
	<path style="fill:#969077;" d="M312.729,320.307c-0.22,0-0.442-0.009-0.665-0.027c-4.498-0.363-7.851-4.303-7.488-8.801
		l3.114-38.616c0.363-4.498,4.303-7.852,8.801-7.488c4.498,0.363,7.851,4.303,7.488,8.801l-3.114,38.616
		C320.521,317.066,316.945,320.307,312.729,320.307z"/>
	<path style="fill:#969077;" d="M238.649,299.049c-4.513,0-8.171-3.658-8.171-8.171v-15.341c0-4.513,3.658-8.171,8.171-8.171
		c4.513,0,8.171,3.658,8.171,8.171v15.341C246.82,295.39,243.161,299.049,238.649,299.049z"/>
	<path style="fill:#969077;" d="M227.317,238.346c-4.513,0-8.171-3.658-8.171-8.171v-15.341c0-4.513,3.658-8.171,8.171-8.171
		s8.171,3.658,8.171,8.171v15.341C235.489,234.688,231.83,238.346,227.317,238.346z"/>
	<path style="fill:#969077;" d="M89.325,326.134c-0.281,0-0.564-0.015-0.851-0.044c-4.489-0.464-7.752-4.479-7.288-8.968
		l5.872-56.808c0.464-4.489,4.488-7.746,8.968-7.288c4.489,0.464,7.752,4.479,7.288,8.968l-5.872,56.808
		C97.008,323.006,93.46,326.134,89.325,326.134z"/>
</g>
<path style="fill:#008B48;" d="M506.549,420.963H5.455c-3.847,0-6.482-3.871-5.069-7.451c6.743-17.084,31.718-56.973,116.472-48.385
	c146.865,14.871,335.759-52.051,394.375,47.593C513.376,416.363,510.775,420.963,506.549,420.963z"/>
<path style="fill:#008040;" d="M486.183,420.963H23.326c14.294-17.083,42.991-34.896,99.775-28.882
	C253.502,405.906,418.569,349.09,486.183,420.963z"/>
<g>
</g>
<g>
</g>
<g>
</g>
<g>
</g>
<g>
</g>
<g>
</g>
<g>
</g>
<g>
</g>
<g>
</g>
<g>
</g>
<g>
</g>
<g>
</g>
<g>
</g>
<g>
</g>
<g>
</g>
</svg>
