<?xml version="1.0" encoding="iso-8859-1"?>
<!-- Generator: Adobe Illustrator 19.0.0, SVG Export Plug-In . SVG Version: 6.00 Build 0)  -->
<svg version="1.1" id="Capa_1" xmlns="http://www.w3.org/2000/svg" xmlns:xlink="http://www.w3.org/1999/xlink" x="0px" y="0px"
	 viewBox="0 0 512 512" style="enable-background:new 0 0 512 512;" xml:space="preserve">
<g>
	<rect x="211.133" y="195.626" style="fill:#C64646;" width="89.746" height="49.724"/>
	<rect x="211.133" y="254.318" style="fill:#C64646;" width="89.746" height="49.724"/>
	<rect x="211.133" y="313.01" style="fill:#C64646;" width="89.746" height="49.724"/>
	<rect x="211.133" y="371.702" style="fill:#C64646;" width="89.746" height="49.724"/>
	<rect x="211.133" y="136.944" style="fill:#C64646;" width="89.746" height="49.725"/>
</g>
<g>
	<rect x="211.133" y="136.944" style="fill:#B73030;" width="89.746" height="25.945"/>
	<rect x="211.133" y="195.626" style="fill:#B73030;" width="89.746" height="25.945"/>
	<rect x="211.133" y="254.318" style="fill:#B73030;" width="89.746" height="25.945"/>
	<rect x="211.133" y="312.999" style="fill:#B73030;" width="89.746" height="25.945"/>
	<rect x="211.133" y="371.691" style="fill:#B73030;" width="89.746" height="25.945"/>
</g>
<g>
	<path style="fill:#A02020;" d="M248.042,165.459v8.923c0,4.395,3.563,7.959,7.959,7.959c4.396,0,7.959-3.563,7.959-7.959v-8.923
		c0-4.395-3.563-7.959-7.959-7.959C251.605,157.5,248.042,161.064,248.042,165.459z"/>
	<path style="fill:#A02020;" d="M220.929,165.459v8.923c0,4.395,3.563,7.959,7.959,7.959c4.395,0,7.959-3.563,7.959-7.959v-8.923
		c0-4.395-3.563-7.959-7.959-7.959S220.929,161.064,220.929,165.459z"/>
	<path style="fill:#A02020;" d="M275.156,165.459v8.923c0,4.395,3.563,7.959,7.959,7.959c4.395,0,7.959-3.563,7.959-7.959v-8.923
		c0-4.395-3.563-7.959-7.959-7.959C278.719,157.5,275.156,161.064,275.156,165.459z"/>
	<path style="fill:#A02020;" d="M248.042,224.149v8.923c0,4.395,3.563,7.959,7.959,7.959c4.396,0,7.959-3.563,7.959-7.959v-8.923
		c0-4.395-3.563-7.959-7.959-7.959C251.605,216.19,248.042,219.754,248.042,224.149z"/>
	<path style="fill:#A02020;" d="M220.929,224.149v8.923c0,4.395,3.563,7.959,7.959,7.959c4.395,0,7.959-3.563,7.959-7.959v-8.923
		c0-4.395-3.563-7.959-7.959-7.959S220.929,219.754,220.929,224.149z"/>
	<path style="fill:#A02020;" d="M275.156,224.149v8.923c0,4.395,3.563,7.959,7.959,7.959c4.395,0,7.959-3.563,7.959-7.959v-8.923
		c0-4.395-3.563-7.959-7.959-7.959C278.719,216.19,275.156,219.754,275.156,224.149z"/>
	<path style="fill:#A02020;" d="M248.042,282.84v8.923c0,4.395,3.563,7.959,7.959,7.959c4.396,0,7.959-3.563,7.959-7.959v-8.923
		c0-4.395-3.563-7.959-7.959-7.959C251.605,274.881,248.042,278.444,248.042,282.84z"/>
	<path style="fill:#A02020;" d="M220.929,282.84v8.923c0,4.395,3.563,7.959,7.959,7.959c4.395,0,7.959-3.563,7.959-7.959v-8.923
		c0-4.395-3.563-7.959-7.959-7.959S220.929,278.444,220.929,282.84z"/>
	<path style="fill:#A02020;" d="M275.156,282.84v8.923c0,4.395,3.563,7.959,7.959,7.959c4.395,0,7.959-3.563,7.959-7.959v-8.923
		c0-4.395-3.563-7.959-7.959-7.959C278.719,274.881,275.156,278.444,275.156,282.84z"/>
	<path style="fill:#A02020;" d="M248.042,341.53v8.923c0,4.395,3.563,7.959,7.959,7.959c4.396,0,7.959-3.563,7.959-7.959v-8.923
		c0-4.395-3.563-7.959-7.959-7.959C251.605,333.571,248.042,337.135,248.042,341.53z"/>
	<path style="fill:#A02020;" d="M220.929,341.53v8.923c0,4.395,3.563,7.959,7.959,7.959c4.395,0,7.959-3.563,7.959-7.959v-8.923
		c0-4.395-3.563-7.959-7.959-7.959C224.492,333.572,220.929,337.135,220.929,341.53z"/>
	<path style="fill:#A02020;" d="M275.156,341.53v8.923c0,4.395,3.563,7.959,7.959,7.959c4.395,0,7.959-3.563,7.959-7.959v-8.923
		c0-4.395-3.563-7.959-7.959-7.959C278.719,333.572,275.156,337.135,275.156,341.53z"/>
	<path style="fill:#A02020;" d="M248.042,401.106v8.923c0,4.395,3.563,7.959,7.959,7.959c4.396,0,7.959-3.563,7.959-7.959v-8.923
		c0-4.395-3.563-7.959-7.959-7.959C251.605,393.147,248.042,396.711,248.042,401.106z"/>
	<path style="fill:#A02020;" d="M220.929,401.106v8.923c0,4.395,3.563,7.959,7.959,7.959c4.395,0,7.959-3.563,7.959-7.959v-8.923
		c0-4.395-3.563-7.959-7.959-7.959C224.492,393.148,220.929,396.711,220.929,401.106z"/>
	<path style="fill:#A02020;" d="M275.156,401.106v8.923c0,4.395,3.563,7.959,7.959,7.959c4.395,0,7.959-3.563,7.959-7.959v-8.923
		c0-4.395-3.563-7.959-7.959-7.959C278.719,393.148,275.156,396.711,275.156,401.106z"/>
</g>
<path style="fill:#294235;" d="M335.529,148.457H176.302c0,0,7.735-6.027,17.861-15.491c2.697-2.515,5.577-5.279,8.513-8.235
	c16.783-16.864,35.863-40.054,38.535-60.399c0.351-2.674,2.571-4.702,5.267-4.702h19.088c2.655,0,4.835,1.986,5.22,4.612
	c2.844,19.346,22.441,43.132,39.335,60.489c2.869,2.947,5.662,5.71,8.283,8.235C328.168,142.372,335.529,148.457,335.529,148.457z"
	/>
<path style="fill:#253A2F;" d="M335.529,148.457H176.302c0,0,7.735-6.027,17.861-15.491c2.697-2.515,5.577-5.279,8.513-8.235
	h107.447c2.869,2.947,5.662,5.71,8.283,8.235C328.168,142.372,335.529,148.457,335.529,148.457z"/>
<path style="fill:#C64646;" d="M348.819,433.635v73.059c0,2.93-2.375,5.306-5.306,5.306H168.488c-2.93,0-5.306-2.375-5.306-5.306
	v-73.059H348.819z"/>
<g>
	<rect x="163.193" y="481.405" style="fill:#B73030;" width="185.626" height="15.298"/>
	<path style="fill:#B73030;" d="M263.96,481.407V512h-15.917v-30.593c0-4.403,3.565-7.959,7.959-7.959
		C260.405,473.448,263.96,477.003,263.96,481.407z"/>
	<path style="fill:#B73030;" d="M263.96,481.407V512h-15.917v-30.593c0-4.403,3.555-7.959,7.959-7.959
		C260.393,473.448,263.96,477.003,263.96,481.407z"/>
	<rect x="163.193" y="441.908" style="fill:#B73030;" width="185.626" height="11.2"/>
</g>
<path style="fill:#294235;" d="M335.533,207.145H176.299l31.922-29.582c0.981-0.909,2.268-1.414,3.606-1.414h90.26L335.533,207.145z
	"/>
<polygon style="fill:#253A2F;" points="335.525,207.153 176.307,207.153 193.038,191.652 318.794,191.652 "/>
<g>
	<path style="fill:#294235;" d="M335.533,265.826H176.299l31.922-29.572c0.981-0.909,2.268-1.414,3.606-1.414h88.181
		c1.337,0,2.625,0.505,3.606,1.414L335.533,265.826z"/>
	<path style="fill:#294235;" d="M335.533,324.518H176.299l31.922-29.572c0.981-0.909,2.268-1.414,3.606-1.414h88.181
		c1.337,0,2.625,0.505,3.606,1.414L335.533,324.518z"/>
	<path style="fill:#294235;" d="M335.523,383.22H176.309l16.734-15.503l15.187-14.078c0.981-0.909,2.27-1.415,3.607-1.415h88.158
		c1.337,0,2.625,0.505,3.606,1.414l15.198,14.079L335.523,383.22z"/>
</g>
<g>
	<polygon style="fill:#253A2F;" points="335.525,383.216 176.307,383.216 193.038,367.715 318.794,367.715 	"/>
	<polygon style="fill:#253A2F;" points="335.525,324.529 176.307,324.529 193.038,309.027 318.794,309.027 	"/>
	<polygon style="fill:#253A2F;" points="335.525,265.841 176.307,265.841 193.038,250.34 318.794,250.34 	"/>
</g>
<path style="fill:#294235;" d="M370.933,441.911H140.899l34.434-15.503l33.384-15.026c0.684-0.308,1.426-0.467,2.178-0.467h90.041
	c0.75,0,1.493,0.159,2.178,0.467l33.384,15.026L370.933,441.911z"/>
<path style="fill:#253A2F;" d="M225.39,437.897c5.71-7.786,12.024-17.973,16.869-26.981h-18.251
	c-5.921,10.6-11.969,19.175-18.008,25.51c-0.428,0.448-0.792,0.945-1.1,1.471H225.39z"/>
<path style="fill:#B73030;" d="M248.042,445.679v17.37c0,4.393,3.555,7.959,7.959,7.959c4.393,0,7.959-3.565,7.959-7.959v-17.37
	H248.042z"/>
<path style="fill:#253A2F;" d="M307.101,437.897c-0.308-0.527-0.672-1.024-1.1-1.471c-6.037-6.335-12.086-14.909-18.008-25.51
	h-17.721c4.826,9.008,10.858,19.196,16.423,26.981H307.101z"/>
<path style="fill:#B73030;" d="M248.042,445.679v17.37c0,4.393,3.565,7.959,7.959,7.959c4.404,0,7.959-3.565,7.959-7.959v-17.37
	H248.042z"/>
<g>
	<polygon style="fill:#253A2F;" points="370.933,441.907 140.898,441.907 175.334,426.406 336.499,426.406 	"/>
	<path style="fill:#253A2F;" d="M256.001,67.588c-4.395,0-7.959-3.563-7.959-7.959V7.959c0-4.396,3.564-7.959,7.959-7.959
		c4.395,0,7.959,3.563,7.959,7.959V59.63C263.96,64.025,260.396,67.588,256.001,67.588z"/>
	<path style="fill:#253A2F;" d="M263.919,54.713h-15.836c-4.395,0-7.959-3.563-7.959-7.959s3.563-7.959,7.959-7.959h15.836
		c4.395,0,7.959,3.563,7.959,7.959S268.314,54.713,263.919,54.713z"/>
	<path style="fill:#253A2F;" d="M263.919,41.752h-15.836c-4.395,0-7.959-3.563-7.959-7.959c0-4.396,3.563-7.959,7.959-7.959h15.836
		c4.395,0,7.959,3.563,7.959,7.959C271.878,38.189,268.314,41.752,263.919,41.752z"/>
	<path style="fill:#253A2F;" d="M301.015,143.21c-22.178-25.347-36.74-84.85-36.884-85.448c-0.913-3.78-4.384-6.267-8.133-6.076
		c-3.745-0.186-7.214,2.299-8.126,6.076c-0.144,0.599-14.707,60.101-36.885,85.449c-2.894,3.308-2.559,8.336,0.749,11.231
		c1.509,1.321,3.377,1.969,5.237,1.969c2.215,0,4.419-0.92,5.992-2.718c14.864-16.988,26.206-45.868,33.034-66.803
		c6.828,20.936,18.171,49.817,33.034,66.803c1.574,1.798,3.777,2.718,5.992,2.718c1.86,0,3.728-0.648,5.237-1.969
		C303.574,151.546,303.909,146.518,301.015,143.21z"/>
	<path style="fill:#253A2F;" d="M245.654,176.149c-4.892,10.951-11.078,22.719-16.617,30.996c-1.22,1.836-2.419,3.491-3.555,4.934
		c-1.57,1.984-3.894,3.013-6.251,3.013c-1.729,0-3.47-0.562-4.934-1.719c-1.984-1.57-3.013-3.884-3.013-6.229
		c0-1.74,0.562-3.481,1.719-4.944c5.094-6.441,10.209-15.196,15.206-26.051L245.654,176.149L245.654,176.149z"/>
	<path style="fill:#253A2F;" d="M300.717,207.145c0,2.345-1.029,4.658-3.013,6.229c-1.464,1.157-3.205,1.719-4.934,1.719
		c-2.356,0-4.68-1.029-6.251-3.013c-1.136-1.443-2.334-3.098-3.555-4.934c-5.539-8.277-11.726-20.056-16.617-30.996h17.446
		c4.998,10.855,10.113,19.61,15.206,26.051C300.155,203.664,300.717,205.405,300.717,207.145z"/>
</g>
<path style="fill:#DB5E5E;" d="M354.808,481.403H157.193c-2.93,0-5.306-2.375-5.306-5.306v-7.741c0-2.93,2.375-5.306,5.306-5.306
	h197.614c2.93,0,5.306,2.375,5.306,5.306v7.741C360.113,479.028,357.738,481.403,354.808,481.403z"/>
<g>
	<path style="fill:#253A2F;" d="M245.654,234.841c-4.892,10.951-11.078,22.719-16.617,30.985c-1.22,1.836-2.419,3.501-3.555,4.944
		c-1.57,1.984-3.894,3.024-6.251,3.024c-1.729,0-3.47-0.562-4.934-1.719c-1.984-1.581-3.013-3.905-3.013-6.251
		c0-1.729,0.562-3.47,1.719-4.934c5.094-6.441,10.209-15.196,15.206-26.051h17.445V234.841z"/>
	<path style="fill:#253A2F;" d="M300.717,265.826c0,2.345-1.029,4.669-3.013,6.251c-1.464,1.157-3.205,1.719-4.934,1.719
		c-2.356,0-4.68-1.04-6.251-3.024c-1.124-1.422-2.313-3.088-3.523-4.944c-5.454-8.256-11.63-20.225-16.469-30.985h17.265
		c4.998,10.855,10.113,19.61,15.206,26.051C300.155,262.356,300.717,264.097,300.717,265.826z"/>
	<path style="fill:#253A2F;" d="M245.676,293.533c-4.86,10.76-11.152,22.73-16.649,30.985c-1.231,1.857-2.419,3.523-3.544,4.944
		c-1.57,1.984-3.894,3.024-6.251,3.024c-1.729,0-3.47-0.562-4.934-1.719c-1.984-1.57-3.013-3.894-3.013-6.251
		c0-1.729,0.562-3.47,1.719-4.934c5.104-6.43,10.209-15.184,15.217-26.051h17.456V293.533z"/>
	<path style="fill:#253A2F;" d="M300.717,324.518c0,2.355-1.029,4.68-3.013,6.251c-1.464,1.157-3.205,1.719-4.934,1.719
		c-2.356,0-4.68-1.04-6.251-3.024c-1.146-1.443-2.334-3.11-3.555-4.944c-5.549-8.277-11.726-20.045-16.617-30.985h17.434
		c5.008,10.866,10.123,19.61,15.217,26.051C300.155,321.048,300.717,322.788,300.717,324.518z"/>
	<path style="fill:#253A2F;" d="M245.654,352.225c-4.892,10.951-11.078,22.719-16.617,30.996c-1.22,1.836-2.419,3.491-3.555,4.934
		c-1.57,1.984-3.894,3.024-6.251,3.024c-1.729,0-3.47-0.562-4.934-1.719c-1.984-1.57-3.013-3.884-3.013-6.239
		c0-1.729,0.562-3.481,1.719-4.944c5.104-6.43,10.209-15.196,15.217-26.051L245.654,352.225L245.654,352.225z"/>
	<path style="fill:#253A2F;" d="M300.717,383.22c0,2.355-1.029,4.669-3.013,6.239c-1.464,1.157-3.205,1.719-4.934,1.719
		c-2.356,0-4.68-1.04-6.251-3.024c-1.136-1.443-2.334-3.098-3.555-4.934c-5.539-8.277-11.726-20.045-16.617-30.996h17.434
		c5.008,10.855,10.113,19.62,15.217,26.051C300.155,379.74,300.717,381.49,300.717,383.22z"/>
</g>
<g>
	<path style="fill:#365142;" d="M389.229,422.684c-4.259-1.091-8.594,1.476-9.685,5.733c-1.417,5.531-2.369,5.531-7.648,5.531
		c-0.148,0-0.293,0.015-0.439,0.022c-0.173-0.011-0.345-0.026-0.52-0.026H140.899c-0.148,0-0.293,0.015-0.439,0.022
		c-0.119-0.005-0.236-0.018-0.356-0.018c-5.279,0-6.23,0-7.648-5.531c-1.091-4.258-5.424-6.826-9.685-5.733
		c-4.258,1.091-6.825,5.427-5.733,9.685c3.951,15.417,13.876,17.497,23.066,17.497c0.148,0,0.293-0.015,0.439-0.022
		c0.119,0.005,0.236,0.018,0.356,0.018h230.038c0.148,0,0.293-0.015,0.439-0.022c0.173,0.011,0.345,0.026,0.52,0.026
		c9.189,0,19.115-2.078,23.066-17.497C396.054,428.11,393.486,423.775,389.229,422.684z"/>
	<path style="fill:#365142;" d="M175.347,273.79c0.161,0,0.319-0.015,0.478-0.024c0.159,0.009,0.317,0.024,0.478,0.024h159.226
		c0.17,0,0.336-0.015,0.505-0.025c0.167,0.01,0.334,0.025,0.505,0.025c9.189,0,19.115-2.078,23.066-17.497
		c1.091-4.258-1.476-8.594-5.733-9.685c-4.259-1.092-8.594,1.476-9.685,5.733c-1.417,5.531-2.369,5.531-7.648,5.531
		c-0.17,0-0.336,0.015-0.505,0.025c-0.167-0.01-0.334-0.025-0.505-0.025H176.303c-0.161,0-0.319,0.015-0.478,0.024
		c-0.159-0.009-0.317-0.024-0.478-0.024c-5.279,0-6.23,0-7.648-5.531c-1.091-4.258-5.426-6.825-9.685-5.733
		c-4.258,1.091-6.825,5.427-5.733,9.685C156.233,271.711,166.158,273.79,175.347,273.79z"/>
	<path style="fill:#365142;" d="M175.347,332.48c0.161,0,0.319-0.015,0.478-0.024c0.159,0.009,0.317,0.024,0.478,0.024h159.226
		c0.17,0,0.336-0.015,0.505-0.025c0.167,0.01,0.334,0.025,0.505,0.025c9.189,0,19.115-2.078,23.066-17.496
		c1.091-4.258-1.476-8.594-5.733-9.685c-4.259-1.091-8.594,1.476-9.685,5.733c-1.417,5.53-2.369,5.53-7.648,5.53
		c-0.17,0-0.336,0.015-0.505,0.025c-0.167-0.01-0.334-0.025-0.505-0.025H176.303c-0.161,0-0.319,0.015-0.478,0.024
		c-0.159-0.009-0.317-0.024-0.478-0.024c-5.279,0-6.23,0-7.648-5.53c-1.091-4.258-5.426-6.823-9.685-5.733
		c-4.258,1.091-6.825,5.427-5.733,9.685C156.233,330.402,166.158,332.48,175.347,332.48z"/>
	<path style="fill:#365142;" d="M175.347,391.171c0.161,0,0.319-0.015,0.478-0.024c0.159,0.009,0.317,0.024,0.478,0.024h159.226
		c0.17,0,0.336-0.015,0.505-0.025c0.167,0.01,0.334,0.025,0.505,0.025c9.189,0,19.115-2.078,23.066-17.497
		c1.091-4.258-1.476-8.594-5.733-9.685c-4.259-1.092-8.594,1.476-9.685,5.733c-1.417,5.531-2.369,5.531-7.648,5.531
		c-0.17,0-0.336,0.015-0.505,0.025c-0.167-0.01-0.334-0.025-0.505-0.025H176.303c-0.161,0-0.319,0.015-0.478,0.024
		c-0.159-0.009-0.317-0.024-0.478-0.024c-5.279,0-6.23,0-7.648-5.531c-1.091-4.258-5.426-6.824-9.685-5.733
		c-4.258,1.091-6.825,5.427-5.733,9.685C156.233,389.092,166.158,391.171,175.347,391.171z"/>
	<path style="fill:#365142;" d="M175.347,215.1c0.161,0,0.319-0.015,0.478-0.024c0.159,0.009,0.317,0.024,0.478,0.024h159.226
		c0.17,0,0.336-0.015,0.505-0.025c0.167,0.01,0.334,0.025,0.505,0.025c9.189,0,19.115-2.078,23.066-17.497
		c1.091-4.258-1.476-8.594-5.733-9.685c-4.259-1.09-8.594,1.476-9.685,5.733c-1.417,5.531-2.369,5.531-7.648,5.531
		c-0.17,0-0.336,0.015-0.505,0.025c-0.167-0.01-0.334-0.025-0.505-0.025H176.303c-0.161,0-0.319,0.015-0.478,0.024
		c-0.159-0.009-0.317-0.024-0.478-0.024c-5.279,0-6.23,0-7.648-5.531c-1.091-4.258-5.426-6.823-9.685-5.733
		c-4.258,1.091-6.825,5.427-5.733,9.685C156.232,213.02,166.158,215.1,175.347,215.1z"/>
	<path style="fill:#365142;" d="M175.347,156.409c0.161,0,0.319-0.015,0.478-0.024c0.159,0.009,0.317,0.024,0.478,0.024h160.234
		c9.189,0,19.115-2.078,23.066-17.496c1.091-4.258-1.476-8.594-5.733-9.685c-4.259-1.092-8.594,1.476-9.685,5.733
		c-1.417,5.53-2.369,5.53-7.648,5.53H176.303c-0.161,0-0.319,0.015-0.478,0.024c-0.159-0.009-0.317-0.024-0.478-0.024
		c-5.279,0-6.23,0-7.648-5.53c-1.091-4.258-5.426-6.825-9.685-5.733c-4.258,1.091-6.825,5.427-5.733,9.685
		C156.233,154.33,166.158,156.409,175.347,156.409z"/>
</g>
<g>
</g>
<g>
</g>
<g>
</g>
<g>
</g>
<g>
</g>
<g>
</g>
<g>
</g>
<g>
</g>
<g>
</g>
<g>
</g>
<g>
</g>
<g>
</g>
<g>
</g>
<g>
</g>
<g>
</g>
</svg>
