<?xml version="1.0" encoding="iso-8859-1"?>
<!-- Generator: Adobe Illustrator 19.0.0, SVG Export Plug-In . SVG Version: 6.00 Build 0)  -->
<svg version="1.1" id="Capa_1" xmlns="http://www.w3.org/2000/svg" xmlns:xlink="http://www.w3.org/1999/xlink" x="0px" y="0px"
	 viewBox="0 0 512 512" style="enable-background:new 0 0 512 512;" xml:space="preserve">
<g>
	<path style="fill:#83C9FF;" d="M168.705,291.84H83.326c-4.465,0-8.084-3.62-8.084-8.084c0-4.465,3.62-8.084,8.084-8.084h85.379
		c4.465,0,8.084,3.62,8.084,8.084C176.789,288.22,173.17,291.84,168.705,291.84z"/>
	<path style="fill:#83C9FF;" d="M217.729,302.385h-16.422c-4.465,0-8.084-3.62-8.084-8.084s3.62-8.084,8.084-8.084h16.422
		c4.465,0,8.084,3.62,8.084,8.084S222.193,302.385,217.729,302.385z"/>
	<path style="fill:#83C9FF;" d="M209.961,268.603h-77.344c-4.465,0-8.084-3.62-8.084-8.084s3.62-8.084,8.084-8.084h77.344
		c4.465,0,8.084,3.62,8.084,8.084C218.044,264.983,214.425,268.603,209.961,268.603z"/>
	<path style="fill:#83C9FF;" d="M370.792,187.57h-84.017c-4.465,0-8.084-3.62-8.084-8.084s3.618-8.084,8.084-8.084h84.017
		c4.465,0,8.084,3.62,8.084,8.084C378.877,183.95,375.258,187.57,370.792,187.57z"/>
	<path style="fill:#83C9FF;" d="M413,213.803h-56.433c-4.465,0-8.084-3.62-8.084-8.084s3.618-8.084,8.084-8.084H413
		c4.465,0,8.084,3.62,8.084,8.084S417.466,213.803,413,213.803z"/>
	<path style="fill:#83C9FF;" d="M381.855,340.737h-18.826c-4.465,0-8.084-3.62-8.084-8.084c0-4.465,3.618-8.084,8.084-8.084h18.826
		c4.465,0,8.084,3.62,8.084,8.084S386.321,340.737,381.855,340.737z"/>
	<path style="fill:#83C9FF;" d="M428.674,144.085h-18.826c-4.465,0-8.084-3.62-8.084-8.084c0-4.465,3.618-8.084,8.084-8.084h18.826
		c4.465,0,8.084,3.62,8.084,8.084C436.758,140.466,433.139,144.085,428.674,144.085z"/>
	<path style="fill:#83C9FF;" d="M275.969,352.595h-87.86c-4.465,0-8.084-3.62-8.084-8.084c0-4.465,3.62-8.084,8.084-8.084h87.86
		c4.465,0,8.084,3.62,8.084,8.084C284.053,348.975,280.434,352.595,275.969,352.595z"/>
</g>
<path style="fill:#E0D7D0;" d="M406.373,427.288c-18.582,11.631-33.425,26.16-44.744,39.882
	c-11.549,13.973-19.453,27.112-23.98,35.509c-3.1,5.75-9.11,9.322-15.643,9.322h-89.875c-6.533,0-12.543-3.571-15.643-9.322
	c-4.528-8.396-12.431-21.534-23.98-35.509c-11.318-13.722-26.16-28.252-44.744-39.882H406.373z"/>
<path style="fill:#CEC3BC;" d="M406.379,427.29c-18.591,11.63-33.425,26.157-44.748,39.877H192.507
	c-11.323-13.721-26.157-28.248-44.748-39.877H406.379z"/>
<g>
	<path style="fill:#C1B5AE;" d="M188.108,456.374c-4.465,0-8.084-3.62-8.084-8.084v-10.611c0-4.465,3.62-8.084,8.084-8.084
		s8.084,3.62,8.084,8.084v10.611C196.192,452.754,192.573,456.374,188.108,456.374z"/>
	<path style="fill:#C1B5AE;" d="M205.9,456.374c-4.465,0-8.084-3.62-8.084-8.084v-10.611c0-4.465,3.62-8.084,8.084-8.084
		s8.084,3.62,8.084,8.084v10.611C213.985,452.754,210.365,456.374,205.9,456.374z"/>
	<path style="fill:#C1B5AE;" d="M223.693,456.374c-4.465,0-8.084-3.62-8.084-8.084v-10.611c0-4.465,3.62-8.084,8.084-8.084
		s8.084,3.62,8.084,8.084v10.611C231.776,452.754,228.157,456.374,223.693,456.374z"/>
	<path style="fill:#C1B5AE;" d="M241.484,456.374c-4.465,0-8.084-3.62-8.084-8.084v-10.611c0-4.465,3.62-8.084,8.084-8.084
		s8.084,3.62,8.084,8.084v10.611C249.569,452.754,245.949,456.374,241.484,456.374z"/>
	<path style="fill:#C1B5AE;" d="M259.277,456.374c-4.465,0-8.084-3.62-8.084-8.084v-10.611c0-4.465,3.62-8.084,8.084-8.084
		s8.084,3.62,8.084,8.084v10.611C267.361,452.754,263.742,456.374,259.277,456.374z"/>
	<path style="fill:#C1B5AE;" d="M277.068,456.374c-4.465,0-8.084-3.62-8.084-8.084v-10.611c0-4.465,3.62-8.084,8.084-8.084
		c4.465,0,8.084,3.62,8.084,8.084v10.611C285.153,452.754,281.534,456.374,277.068,456.374z"/>
	<path style="fill:#C1B5AE;" d="M294.86,456.374c-4.465,0-8.084-3.62-8.084-8.084v-10.611c0-4.465,3.618-8.084,8.084-8.084
		s8.084,3.62,8.084,8.084v10.611C302.944,452.754,299.326,456.374,294.86,456.374z"/>
	<path style="fill:#C1B5AE;" d="M312.653,456.374c-4.465,0-8.084-3.62-8.084-8.084v-10.611c0-4.465,3.618-8.084,8.084-8.084
		c4.465,0,8.084,3.62,8.084,8.084v10.611C320.737,452.754,317.118,456.374,312.653,456.374z"/>
	<path style="fill:#C1B5AE;" d="M330.445,456.374c-4.465,0-8.084-3.62-8.084-8.084v-10.611c0-4.465,3.618-8.084,8.084-8.084
		c4.465,0,8.084,3.62,8.084,8.084v10.611C338.529,452.754,334.91,456.374,330.445,456.374z"/>
	<path style="fill:#C1B5AE;" d="M348.237,456.374c-4.465,0-8.084-3.62-8.084-8.084v-10.611c0-4.465,3.618-8.084,8.084-8.084
		c4.465,0,8.084,3.62,8.084,8.084v10.611C356.322,452.754,352.702,456.374,348.237,456.374z"/>
	<path style="fill:#C1B5AE;" d="M366.029,456.374c-4.465,0-8.084-3.62-8.084-8.084v-10.611c0-4.465,3.618-8.084,8.084-8.084
		c4.465,0,8.084,3.62,8.084,8.084v10.611C374.113,452.754,370.494,456.374,366.029,456.374z"/>
</g>
<polygon style="fill:#F1EFF0;" points="296.678,424.63 260.462,424.63 260.759,407.829 260.865,401.558 261.258,378.844 
	265.885,114.851 266.299,91.222 266.542,77.467 290.598,77.467 290.842,91.222 291.256,114.851 295.872,378.844 296.276,401.558 
	296.381,407.829 "/>
<g>
	<polygon style="fill:#E0D7D0;" points="291.253,114.847 265.885,114.847 266.296,91.226 290.84,91.226 	"/>
	<polygon style="fill:#E0D7D0;" points="296.678,424.63 260.462,424.63 260.759,407.829 260.865,401.558 296.276,401.558 
		296.381,407.829 	"/>
</g>
<polygon style="fill:#F1EFF0;" points="399.353,440.377 155.562,440.377 144.47,425.518 148.906,414.209 406.009,414.209 
	410.445,425.518 "/>
<polygon style="fill:#E0D7D0;" points="410.443,425.518 399.351,440.373 155.561,440.373 144.469,425.518 144.668,425.02 
	410.244,425.02 "/>
<path style="fill:#FFC373;" d="M296.679,39.98c0,10.002-8.108,18.11-18.11,18.11c-10.002,0-18.111-8.108-18.111-18.11
	S268.566,0,278.569,0C288.57,0,296.679,29.978,296.679,39.98z"/>
<path style="fill:#FFB64D;" d="M296.682,39.98c0,10.004-8.109,18.114-18.114,18.114c-10.004,0-18.114-8.109-18.114-18.114
	c0-2.888,0.675-7.427,1.88-12.437c2.956,5.98,9.11,10.087,16.235,10.087s13.279-4.107,16.235-10.087
	C296.008,32.552,296.682,37.092,296.682,39.98z"/>
<path style="fill:#E0D7D0;" d="M296.169,74.914h-37.5l-6.698-13.357c-1.797-3.584,0.809-7.805,4.818-7.805h41.26
	c4.009,0,6.615,4.221,4.818,7.805L296.169,74.914z"/>
<path style="fill:#F1EFF0;" d="M301.391,90.57h-47.944c-2.977,0-5.39-2.413-5.39-5.39v-7.631c0-2.977,2.413-5.39,5.39-5.39h47.944
	c2.977,0,5.39,2.413,5.39,5.39v7.631C306.78,88.157,304.367,90.57,301.391,90.57z"/>
<path style="fill:#CEC3BC;" d="M286.673,490.119V512h-16.169v-21.881c0-4.463,3.622-8.084,8.084-8.084
	C283.062,482.034,286.673,485.656,286.673,490.119z"/>
<g>
</g>
<g>
</g>
<g>
</g>
<g>
</g>
<g>
</g>
<g>
</g>
<g>
</g>
<g>
</g>
<g>
</g>
<g>
</g>
<g>
</g>
<g>
</g>
<g>
</g>
<g>
</g>
<g>
</g>
</svg>
