<?xml version="1.0" encoding="iso-8859-1"?>
<!-- Generator: Adobe Illustrator 19.0.0, SVG Export Plug-In . SVG Version: 6.00 Build 0)  -->
<svg version="1.1" id="Capa_1" xmlns="http://www.w3.org/2000/svg" xmlns:xlink="http://www.w3.org/1999/xlink" x="0px" y="0px"
	 viewBox="0 0 512 512" style="enable-background:new 0 0 512 512;" xml:space="preserve">
<g>
	<path style="fill:#435149;" d="M311.677,121.645h-7.991V77.239c0-2.207,1.789-3.996,3.996-3.996l0,0
		c2.207,0,3.996,1.789,3.996,3.996V121.645z"/>
	<path style="fill:#435149;" d="M276.238,48.402h-7.991V3.996c0-2.207,1.789-3.996,3.996-3.996l0,0c2.207,0,3.996,1.789,3.996,3.996
		V48.402z"/>
	<path style="fill:#435149;" d="M353.358,237.643h-7.991v-44.406c0-2.207,1.789-3.996,3.996-3.996l0,0
		c2.207,0,3.996,1.789,3.996,3.996V237.643z"/>
	<path style="fill:#435149;" d="M199.117,237.643h-7.991v-44.406c0-2.207,1.789-3.996,3.996-3.996l0,0
		c2.207,0,3.996,1.789,3.996,3.996L199.117,237.643L199.117,237.643z"/>
</g>
<g>
	<path style="fill:#B5985E;" d="M184.263,293.254h-7.991v-44.406c0-2.207,1.789-3.996,3.996-3.996l0,0
		c2.207,0,3.996,1.789,3.996,3.996L184.263,293.254L184.263,293.254z"/>
	<path style="fill:#B5985E;" d="M368.213,293.254h-7.991v-44.406c0-2.207,1.789-3.996,3.996-3.996l0,0
		c2.207,0,3.996,1.789,3.996,3.996V293.254z"/>
</g>
<path style="fill:#435149;" d="M240.798,121.645h-7.991V77.239c0-2.207,1.789-3.996,3.996-3.996l0,0
	c2.207,0,3.996,1.789,3.996,3.996L240.798,121.645L240.798,121.645z"/>
<path style="fill:#83C9FF;" d="M451.677,412.884h-82.283c-4.415,0-7.991-3.578-7.991-7.991c0-4.414,3.578-7.991,7.991-7.991h82.283
	c4.415,0,7.991,3.578,7.991,7.991C459.668,409.306,456.091,412.884,451.677,412.884z"/>
<g>
	<path style="fill:#CCAD66;" d="M410.535,512H141.212c-4.415,0-7.991-3.578-7.991-7.991c0-4.414,3.578-7.991,7.991-7.991h269.325
		c4.415,0,7.991,3.578,7.991,7.991C418.528,508.422,414.95,512,410.535,512z"/>
	<path style="fill:#CCAD66;" d="M444.951,512h-13.287c-4.415,0-7.991-3.578-7.991-7.991c0-4.414,3.578-7.991,7.991-7.991h13.287
		c4.415,0,7.991,3.578,7.991,7.991C452.942,508.422,449.366,512,444.951,512z"/>
</g>
<g>
	<path style="fill:#83C9FF;" d="M138.351,251.453H56.068c-4.415,0-7.991-3.578-7.991-7.991s3.578-7.991,7.991-7.991h82.283
		c4.415,0,7.991,3.578,7.991,7.991S142.764,251.453,138.351,251.453z"/>
	<path style="fill:#83C9FF;" d="M432.497,388.971h-21.961c-4.415,0-7.991-3.578-7.991-7.991c0-4.414,3.578-7.991,7.991-7.991h21.961
		c4.415,0,7.991,3.578,7.991,7.991C440.488,385.393,436.91,388.971,432.497,388.971z"/>
	<path style="fill:#83C9FF;" d="M132.068,166.985h-21.961c-4.415,0-7.991-3.578-7.991-7.991s3.578-7.991,7.991-7.991h21.961
		c4.415,0,7.991,3.578,7.991,7.991S136.481,166.985,132.068,166.985z"/>
	<path style="fill:#83C9FF;" d="M455.932,247.845h-21.961c-4.415,0-7.991-3.578-7.991-7.991s3.578-7.991,7.991-7.991h21.961
		c4.415,0,7.991,3.578,7.991,7.991S460.346,247.845,455.932,247.845z"/>
	<path style="fill:#83C9FF;" d="M161.335,220.902h-40.248c-4.415,0-7.991-3.578-7.991-7.991c0-4.414,3.578-7.991,7.991-7.991h40.248
		c4.415,0,7.991,3.578,7.991,7.991C169.327,217.323,165.75,220.902,161.335,220.902z"/>
</g>
<rect x="186.87" y="450.947" style="fill:#CCAD66;" width="170.736" height="53.062"/>
<rect x="186.87" y="450.947" style="fill:#B5985E;" width="171.092" height="20.458"/>
<rect x="232.803" y="113.654" style="fill:#E2C271;" width="78.869" height="76.884"/>
<g>
	<path style="fill:#CCAD66;" d="M252.704,177.127c-4.415,0-7.991-3.578-7.991-7.991v-33.257c0-4.414,3.578-7.991,7.991-7.991
		s7.991,3.578,7.991,7.991v33.257C260.696,173.549,257.119,177.127,252.704,177.127z"/>
	<path style="fill:#CCAD66;" d="M272.242,177.127c-4.415,0-7.991-3.578-7.991-7.991v-33.257c0-4.414,3.578-7.991,7.991-7.991
		s7.991,3.578,7.991,7.991v33.257C280.233,173.549,276.656,177.127,272.242,177.127z"/>
	<path style="fill:#CCAD66;" d="M291.779,177.127c-4.415,0-7.991-3.578-7.991-7.991v-33.257c0-4.414,3.578-7.991,7.991-7.991
		c4.415,0,7.991,3.578,7.991,7.991v33.257C299.771,173.549,296.193,177.127,291.779,177.127z"/>
</g>
<polygon style="fill:#435149;" points="311.506,169.136 232.978,169.136 191.124,217.517 353.358,217.517 "/>
<g>
	<path style="fill:#2E3A33;" d="M232.806,228.024c-4.415,0-7.991-3.578-7.991-7.991v-13.99c0-4.414,3.578-7.991,7.991-7.991
		c4.415,0,7.991,3.578,7.991,7.991v13.99C240.798,224.446,237.22,228.024,232.806,228.024z"/>
	<path style="fill:#2E3A33;" d="M259.096,228.024c-4.415,0-7.991-3.578-7.991-7.991v-13.99c0-4.414,3.578-7.991,7.991-7.991
		c4.415,0,7.991,3.578,7.991,7.991v13.99C267.087,224.446,263.51,228.024,259.096,228.024z"/>
	<path style="fill:#2E3A33;" d="M285.387,228.024c-4.415,0-7.991-3.578-7.991-7.991v-13.99c0-4.414,3.578-7.991,7.991-7.991
		c4.415,0,7.991,3.578,7.991,7.991v13.99C293.378,224.446,289.8,228.024,285.387,228.024z"/>
	<path style="fill:#2E3A33;" d="M311.676,228.024c-4.415,0-7.991-3.578-7.991-7.991v-13.99c0-4.414,3.578-7.991,7.991-7.991
		c4.414,0,7.991,3.578,7.991,7.991v13.99C319.668,224.446,316.091,228.024,311.676,228.024z"/>
	<path style="fill:#2E3A33;" d="M245.951,198.463c-4.415,0-7.991-3.578-7.991-7.991v-3.111c0-4.414,3.578-7.991,7.991-7.991
		c4.415,0,7.991,3.578,7.991,7.991v3.111C253.943,194.885,250.365,198.463,245.951,198.463z"/>
	<path style="fill:#2E3A33;" d="M272.242,198.463c-4.415,0-7.991-3.578-7.991-7.991v-3.111c0-4.414,3.578-7.991,7.991-7.991
		s7.991,3.578,7.991,7.991v3.111C280.233,194.885,276.656,198.463,272.242,198.463z"/>
	<path style="fill:#2E3A33;" d="M298.532,198.463c-4.415,0-7.991-3.578-7.991-7.991v-3.111c0-4.414,3.578-7.991,7.991-7.991
		c4.415,0,7.991,3.578,7.991,7.991v3.111C306.523,194.885,302.945,198.463,298.532,198.463z"/>
</g>
<path style="fill:#435149;" d="M272.242,24.201c0,0-10.992,49.781-39.435,89.453h39.435h39.435
	C283.234,73.982,272.242,24.201,272.242,24.201z"/>
<rect x="191.122" y="217.516" style="fill:#CCAD66;" width="162.231" height="51.534"/>
<g>
	<path style="fill:#BC9850;" d="M215.45,277.044c-4.415,0-7.991-3.578-7.991-7.991v-29.2c0-4.414,3.578-7.991,7.991-7.991
		c4.415,0,7.991,3.578,7.991,7.991v29.2C223.442,273.466,219.864,277.044,215.45,277.044z"/>
	<path style="fill:#BC9850;" d="M234.38,277.044c-4.415,0-7.991-3.578-7.991-7.991v-29.2c0-4.414,3.578-7.991,7.991-7.991
		c4.415,0,7.991,3.578,7.991,7.991v29.2C242.372,273.466,238.795,277.044,234.38,277.044z"/>
	<path style="fill:#BC9850;" d="M253.311,277.044c-4.415,0-7.991-3.578-7.991-7.991v-29.2c0-4.414,3.578-7.991,7.991-7.991
		c4.415,0,7.991,3.578,7.991,7.991v29.2C261.303,273.466,257.725,277.044,253.311,277.044z"/>
	<path style="fill:#BC9850;" d="M272.242,277.044c-4.415,0-7.991-3.578-7.991-7.991v-29.2c0-4.414,3.578-7.991,7.991-7.991
		s7.991,3.578,7.991,7.991v29.2C280.233,273.466,276.656,277.044,272.242,277.044z"/>
	<path style="fill:#BC9850;" d="M291.172,277.044c-4.415,0-7.991-3.578-7.991-7.991v-29.2c0-4.414,3.578-7.991,7.991-7.991
		s7.991,3.578,7.991,7.991v29.2C299.164,273.466,295.587,277.044,291.172,277.044z"/>
	<path style="fill:#BC9850;" d="M310.103,277.044c-4.415,0-7.991-3.578-7.991-7.991v-29.2c0-4.414,3.578-7.991,7.991-7.991
		c4.415,0,7.991,3.578,7.991,7.991v29.2C318.095,273.466,314.517,277.044,310.103,277.044z"/>
	<path style="fill:#BC9850;" d="M329.033,277.044c-4.415,0-7.991-3.578-7.991-7.991v-29.2c0-4.414,3.578-7.991,7.991-7.991
		c4.415,0,7.991,3.578,7.991,7.991v29.2C337.026,273.466,333.448,277.044,329.033,277.044z"/>
</g>
<rect x="176.274" y="265.091" style="fill:#CCAD66;" width="191.937" height="191.937"/>
<g>
	<rect x="176.274" y="265.091" style="fill:#B5985E;" width="191.937" height="31.905"/>
	<rect x="176.274" y="335.82" style="fill:#B5985E;" width="191.937" height="18.271"/>
	<rect x="176.274" y="380.98" style="fill:#B5985E;" width="191.937" height="18.271"/>
</g>
<g>
	<rect x="208.06" y="265.091" style="fill:#E2C271;" width="128.366" height="31.901"/>
	<path style="fill:#E2C271;" d="M368.209,343.812h-31.784c-4.415,0-7.991-3.578-7.991-7.991c0-4.414,3.578-7.991,7.991-7.991h31.783
		c4.415,0,7.991,3.578,7.991,7.991C376.2,340.234,372.623,343.812,368.209,343.812z"/>
	<path style="fill:#E2C271;" d="M368.209,388.971h-31.784c-4.415,0-7.991-3.578-7.991-7.991c0-4.414,3.578-7.991,7.991-7.991h31.783
		c4.415,0,7.991,3.578,7.991,7.991C376.2,385.393,372.623,388.971,368.209,388.971z"/>
	<path style="fill:#E2C271;" d="M208.041,343.812h-31.783c-4.415,0-7.991-3.578-7.991-7.991c0-4.414,3.578-7.991,7.991-7.991h31.783
		c4.415,0,7.991,3.578,7.991,7.991C216.033,340.234,212.455,343.812,208.041,343.812z"/>
	<path style="fill:#E2C271;" d="M208.041,388.971h-31.783c-4.415,0-7.991-3.578-7.991-7.991c0-4.414,3.578-7.991,7.991-7.991h31.783
		c4.415,0,7.991,3.578,7.991,7.991C216.033,385.393,212.455,388.971,208.041,388.971z"/>
	<rect x="208.06" y="296.991" style="fill:#E2C271;" width="128.366" height="128.366"/>
</g>
<circle style="fill:#E0D7D0;" cx="272.238" cy="361.179" r="44.304"/>
<g>
	<path style="fill:#435149;" d="M272.242,369.168c-4.415,0-7.991-3.578-7.991-7.991v-22.605c0-4.414,3.578-7.991,7.991-7.991
		s7.991,3.578,7.991,7.991v22.605C280.233,365.59,276.656,369.168,272.242,369.168z"/>
	<path style="fill:#435149;" d="M288.731,369.168h-16.49c-4.415,0-7.991-3.578-7.991-7.991c0-4.414,3.578-7.991,7.991-7.991h16.49
		c4.415,0,7.991,3.578,7.991,7.991C296.723,365.59,293.145,369.168,288.731,369.168z"/>
</g>
<g>
	<path style="fill:#B5985E;" d="M231.209,289.033h-3.343c-4.415,0-7.991-3.578-7.991-7.991c0-4.414,3.578-7.991,7.991-7.991h3.343
		c4.415,0,7.991,3.578,7.991,7.991C239.2,285.456,235.623,289.033,231.209,289.033z"/>
	<path style="fill:#B5985E;" d="M252.561,289.033h-3.343c-4.415,0-7.991-3.578-7.991-7.991c0-4.414,3.578-7.991,7.991-7.991h3.343
		c4.415,0,7.991,3.578,7.991,7.991C260.553,285.456,256.975,289.033,252.561,289.033z"/>
	<path style="fill:#B5985E;" d="M273.913,289.033h-3.343c-4.415,0-7.991-3.578-7.991-7.991c0-4.414,3.578-7.991,7.991-7.991h3.343
		c4.415,0,7.991,3.578,7.991,7.991C281.904,285.456,278.327,289.033,273.913,289.033z"/>
	<path style="fill:#B5985E;" d="M295.264,289.033h-3.342c-4.415,0-7.991-3.578-7.991-7.991c0-4.414,3.578-7.991,7.991-7.991h3.342
		c4.415,0,7.991,3.578,7.991,7.991C303.255,285.456,299.678,289.033,295.264,289.033z"/>
	<path style="fill:#B5985E;" d="M316.616,289.033h-3.342c-4.415,0-7.991-3.578-7.991-7.991c0-4.414,3.578-7.991,7.991-7.991h3.342
		c4.415,0,7.991,3.578,7.991,7.991C324.607,285.456,321.03,289.033,316.616,289.033z"/>
</g>
<path style="fill:#435149;" d="M218.859,457.026h-18.796v-13.102c0-5.19,4.208-9.398,9.398-9.398l0,0
	c5.19,0,9.398,4.208,9.398,9.398V457.026z"/>
<path style="fill:#B5985E;" d="M239.785,457.026H220.99v-13.102c0-5.19,4.208-9.398,9.398-9.398l0,0c5.19,0,9.398,4.208,9.398,9.398
	V457.026z"/>
<path style="fill:#435149;" d="M260.712,457.026h-18.796v-13.102c0-5.19,4.208-9.398,9.398-9.398l0,0
	c5.19,0,9.398,4.208,9.398,9.398V457.026z"/>
<path style="fill:#B5985E;" d="M281.64,457.026h-18.796v-13.102c0-5.19,4.208-9.398,9.398-9.398l0,0c5.19,0,9.398,4.208,9.398,9.398
	V457.026z"/>
<path style="fill:#435149;" d="M302.566,457.026H283.77v-13.102c0-5.19,4.208-9.398,9.398-9.398l0,0c5.19,0,9.398,4.208,9.398,9.398
	L302.566,457.026L302.566,457.026z"/>
<path style="fill:#B5985E;" d="M323.493,457.026h-18.796v-13.102c0-5.19,4.208-9.398,9.398-9.398l0,0
	c5.19,0,9.398,4.208,9.398,9.398L323.493,457.026L323.493,457.026z"/>
<path style="fill:#435149;" d="M344.419,457.026h-18.796v-13.102c0-5.19,4.208-9.398,9.398-9.398l0,0
	c5.19,0,9.398,4.208,9.398,9.398L344.419,457.026L344.419,457.026z"/>
<g>
	<path style="fill:#B5985E;" d="M218.859,504.009h-18.796v-13.102c0-5.19,4.208-9.398,9.398-9.398l0,0
		c5.19,0,9.398,4.208,9.398,9.398V504.009z"/>
	<path style="fill:#B5985E;" d="M239.785,504.009H220.99v-13.102c0-5.19,4.208-9.398,9.398-9.398l0,0
		c5.19,0,9.398,4.208,9.398,9.398V504.009z"/>
	<path style="fill:#B5985E;" d="M260.712,504.009h-18.796v-13.102c0-5.19,4.208-9.398,9.398-9.398l0,0
		c5.19,0,9.398,4.208,9.398,9.398V504.009z"/>
	<path style="fill:#B5985E;" d="M281.64,504.009h-18.796v-13.102c0-5.19,4.208-9.398,9.398-9.398l0,0
		c5.19,0,9.398,4.208,9.398,9.398V504.009z"/>
	<path style="fill:#B5985E;" d="M302.566,504.009H283.77v-13.102c0-5.19,4.208-9.398,9.398-9.398l0,0
		c5.19,0,9.398,4.208,9.398,9.398L302.566,504.009L302.566,504.009z"/>
	<path style="fill:#B5985E;" d="M323.493,504.009h-18.796v-13.102c0-5.19,4.208-9.398,9.398-9.398l0,0
		c5.19,0,9.398,4.208,9.398,9.398L323.493,504.009L323.493,504.009z"/>
	<path style="fill:#B5985E;" d="M344.419,504.009h-18.796v-13.102c0-5.19,4.208-9.398,9.398-9.398l0,0
		c5.19,0,9.398,4.208,9.398,9.398L344.419,504.009L344.419,504.009z"/>
</g>
<path style="fill:#435149;" d="M259.76,41.993h24.957c2.134,0,3.863-1.729,3.863-3.863l0,0c0-2.134-1.729-3.863-3.863-3.863H259.76
	c-2.134,0-3.863,1.729-3.863,3.863l0,0C255.897,40.264,257.626,41.993,259.76,41.993z"/>
<path style="fill:#E2C271;" d="M368.213,432.316H176.258c-4.415,0-7.991-3.578-7.991-7.991c0-4.414,3.578-7.991,7.991-7.991h191.955
	c4.415,0,7.991,3.578,7.991,7.991C376.204,428.738,372.626,432.316,368.213,432.316z"/>
<g>
</g>
<g>
</g>
<g>
</g>
<g>
</g>
<g>
</g>
<g>
</g>
<g>
</g>
<g>
</g>
<g>
</g>
<g>
</g>
<g>
</g>
<g>
</g>
<g>
</g>
<g>
</g>
<g>
</g>
</svg>
