<?xml version="1.0" encoding="iso-8859-1"?>
<!-- Generator: Adobe Illustrator 19.0.0, SVG Export Plug-In . SVG Version: 6.00 Build 0)  -->
<svg version="1.1" id="Capa_1" xmlns="http://www.w3.org/2000/svg" xmlns:xlink="http://www.w3.org/1999/xlink" x="0px" y="0px"
	 viewBox="0 0 512.002 512.002" style="enable-background:new 0 0 512.002 512.002;" xml:space="preserve">
<path style="fill:#BAA288;" d="M295.62,53.443c-0.229,0-0.46-0.01-0.692-0.033c-3.927-0.377-6.803-3.867-6.426-7.794l3.765-39.155
	c0.377-3.927,3.871-6.81,7.793-6.426c3.927,0.377,6.803,3.866,6.426,7.793l-3.764,39.155
	C302.366,50.678,299.256,53.443,295.62,53.443z"/>
<g>
	<path style="fill:#DBC1A2;" d="M185.192,171.92l-1.534,15.958l-2.232,23.171l-0.115,1.225l-5.701,59.333l-0.824,8.62l-1.969,20.445
		v0.011l-2.232,23.171l-0.115,1.225l-5.701,59.322h-0.011l-0.824,8.632l-1.969,20.446l-2.278,23.788l-0.057,0.607l-3.045,31.665
		l-3.308,34.423h197.747l1.488-15.58l3.045-31.665l0.057-0.607l2.289-23.788l2.805-29.077l5.701-59.333l0.573-6.01l0.367-3.766
		l1.409-14.619l1.957-20.457l0.836-8.609l5.701-59.345l0.115-1.225l2.232-23.159v-0.012l1.534-15.958L185.192,171.92z"/>
	<path style="fill:#DBC1A2;" d="M185.192,171.908v0.011l-1.534,15.958l-2.232,23.171l-0.115,1.225l-5.701,59.333l-0.824,8.62
		l-1.969,20.445v0.011l-2.232,23.171l-0.115,1.225l-5.701,59.322h-0.011l-0.824,8.632l-1.969,20.446l-2.278,23.788l-0.057,0.607
		l-3.045,31.665l-3.308,34.423h197.747l1.488-15.58l3.045-31.665l0.057-0.607l2.289-23.788l2.805-29.077l5.701-59.333l0.573-6.01
		l0.367-3.766l1.409-14.619l1.957-20.457l0.836-8.609l5.701-59.345l0.115-1.225l2.232-23.159v-0.012l1.534-15.958L185.192,171.908z"
		/>
</g>
<g>
	<path style="fill:#BAA288;" d="M206.324,473.352c-0.258,0-0.517-0.013-0.78-0.038l-26.143-2.514
		c-4.421-0.424-7.66-4.353-7.236-8.774c0.425-4.42,4.358-7.654,8.775-7.236l26.143,2.514c4.421,0.425,7.66,4.354,7.236,8.775
		C213.919,470.238,210.418,473.352,206.324,473.352z"/>
	<path style="fill:#BAA288;" d="M268.488,479.328c-0.258,0-0.517-0.013-0.78-0.038l-26.144-2.513
		c-4.421-0.425-7.66-4.354-7.236-8.775c0.425-4.421,4.358-7.659,8.775-7.236l26.144,2.513c4.421,0.425,7.66,4.354,7.236,8.775
		C276.083,476.214,272.583,479.328,268.488,479.328z"/>
	<path style="fill:#BAA288;" d="M330.648,485.305c-0.258,0-0.517-0.013-0.78-0.038l-26.14-2.514
		c-4.421-0.424-7.66-4.353-7.235-8.774c0.424-4.421,4.356-7.655,8.774-7.236l26.14,2.514c4.421,0.424,7.66,4.353,7.236,8.774
		C338.243,482.191,334.743,485.305,330.648,485.305z"/>
	<path style="fill:#BAA288;" d="M217.227,359.933c-0.258,0-0.517-0.013-0.779-0.038l-26.143-2.513
		c-4.421-0.425-7.66-4.354-7.236-8.775c0.425-4.42,4.353-7.654,8.775-7.236l26.143,2.513c4.421,0.425,7.66,4.354,7.236,8.775
		C224.823,356.819,221.322,359.933,217.227,359.933z"/>
	<path style="fill:#BAA288;" d="M279.391,365.909c-0.258,0-0.517-0.013-0.78-0.038l-26.144-2.514
		c-4.421-0.424-7.66-4.353-7.235-8.774c0.424-4.421,4.353-7.658,8.774-7.236l26.144,2.514c4.421,0.425,7.66,4.354,7.235,8.775
		C286.988,362.796,283.486,365.909,279.391,365.909z"/>
	<path style="fill:#BAA288;" d="M341.551,371.885c-0.258,0-0.517-0.013-0.78-0.038l-26.14-2.514
		c-4.421-0.424-7.66-4.353-7.235-8.774c0.425-4.421,4.351-7.654,8.774-7.236l26.14,2.514c4.421,0.424,7.66,4.353,7.236,8.774
		C349.148,368.771,345.646,371.885,341.551,371.885z"/>
	<path style="fill:#BAA288;" d="M228.071,247.131c-0.258,0-0.517-0.013-0.779-0.038l-26.143-2.513
		c-4.421-0.425-7.66-4.354-7.236-8.775c0.425-4.421,4.355-7.66,8.775-7.236l26.143,2.513c4.421,0.425,7.66,4.354,7.236,8.775
		C235.668,244.017,232.166,247.131,228.071,247.131z"/>
	<path style="fill:#BAA288;" d="M290.235,253.107c-0.258,0-0.517-0.013-0.779-0.038l-26.144-2.514
		c-4.421-0.424-7.66-4.353-7.235-8.774c0.424-4.421,4.354-7.656,8.774-7.236l26.144,2.514c4.421,0.425,7.66,4.354,7.235,8.775
		C297.832,249.994,294.33,253.107,290.235,253.107z"/>
	<path style="fill:#BAA288;" d="M352.395,259.082c-0.258,0-0.517-0.013-0.779-0.038l-26.14-2.514
		c-4.421-0.424-7.66-4.353-7.235-8.774c0.424-4.421,4.353-7.66,8.774-7.236l26.14,2.514c4.421,0.424,7.66,4.353,7.236,8.774
		C359.992,255.968,356.49,259.082,352.395,259.082z"/>
	
		<rect x="171.184" y="310.042" transform="matrix(-0.9954 -0.0957 0.0957 -0.9954 507.1214 668.9139)" style="fill:#BAA288;" width="196.836" height="24.509"/>
	
		<rect x="160.337" y="422.837" transform="matrix(-0.9954 -0.0957 0.0957 -0.9954 474.6843 892.9498)" style="fill:#BAA288;" width="196.836" height="24.509"/>
	
		<rect x="182.031" y="197.237" transform="matrix(-0.9954 -0.0957 0.0957 -0.9954 539.5614 444.8596)" style="fill:#BAA288;" width="196.836" height="24.509"/>
</g>
<g>
	<path style="fill:#AA9177;" d="M259.675,288.383l-36.02-3.463l4.979-51.792c0.956-9.946,9.795-17.235,19.741-16.278l0,0
		c9.946,0.956,17.235,9.795,16.278,19.741L259.675,288.383z"/>
	<path style="fill:#AA9177;" d="M321.84,294.359l-36.02-3.463l4.979-51.792c0.956-9.946,9.795-17.235,19.741-16.278l0,0
		c9.946,0.956,17.235,9.795,16.278,19.741L321.84,294.359z"/>
	<path style="fill:#AA9177;" d="M377.36,229.884l-6.651,69.177l-22.729-2.185l4.98-51.8c0.956-9.943,9.789-17.227,19.744-16.27
		C374.334,228.963,375.893,229.335,377.36,229.884z"/>
	<path style="fill:#AA9177;" d="M181.43,211.048l-6.651,69.177l22.729,2.185l4.98-51.8c0.956-9.943-6.327-18.776-16.284-19.733
		C184.576,210.72,182.976,210.789,181.43,211.048z"/>
</g>
<g>
	<path style="fill:#DBC1A2;" d="M381.02,320.695l-220.478-21.196c-2.583-0.249-4.476-2.543-4.228-5.127l1.895-19.717
		c0.249-2.583,2.543-4.476,5.127-4.228l220.478,21.196c2.583,0.249,4.476,2.543,4.228,5.127l-1.895,19.717
		C385.899,319.05,383.603,320.943,381.02,320.695z"/>
	<path style="fill:#DBC1A2;" d="M391.864,207.893l-220.478-21.196c-2.583-0.249-4.476-2.543-4.228-5.127l1.895-19.717
		c0.249-2.583,2.543-4.476,5.127-4.228l220.478,21.196c2.583,0.249,4.476,2.543,4.228,5.127l-1.895,19.717
		C396.743,206.248,394.448,208.14,391.864,207.893z"/>
</g>
<rect id="SVGCleanerId_0" x="217.159" y="58.954" transform="matrix(-0.9954 -0.0957 0.0957 -0.9954 567.1045 254.6324)" style="fill:#DBC1A2;" width="144.999" height="109.525"/>
<g>
	
		<rect id="SVGCleanerId_0_1_" x="217.159" y="58.954" transform="matrix(-0.9954 -0.0957 0.0957 -0.9954 567.1045 254.6324)" style="fill:#DBC1A2;" width="144.999" height="109.525"/>
</g>
<g>
	<path style="fill:#BAA288;" d="M300.988,141.26c-0.258,0-0.517-0.013-0.779-0.038l-26.144-2.513
		c-4.421-0.425-7.66-4.354-7.236-8.775c0.425-4.421,4.359-7.653,8.775-7.236l26.144,2.513c4.421,0.425,7.66,4.354,7.236,8.775
		C308.584,138.146,305.083,141.26,300.988,141.26z"/>
	<path style="fill:#BAA288;" d="M238.824,135.284c-0.258,0-0.517-0.013-0.779-0.038l-23.08-2.219
		c-4.421-0.425-7.66-4.354-7.236-8.775c0.425-4.421,4.356-7.659,8.775-7.236l23.08,2.219c4.421,0.425,7.66,4.354,7.236,8.775
		C246.42,132.17,242.919,135.284,238.824,135.284z"/>
	
		<rect x="219.678" y="75.174" transform="matrix(-0.9954 -0.0957 0.0957 -0.9954 574.6467 202.4178)" style="fill:#BAA288;" width="144.999" height="24.509"/>
</g>
<path style="fill:#AA9177;" d="M271.348,166.966l-36.02-3.463l4.979-51.792c0.956-9.946,9.795-17.235,19.741-16.278l0,0
	c9.946,0.956,17.235,9.795,16.278,19.741L271.348,166.966z"/>
<path style="fill:#BAA288;" d="M360.086,146.941c-0.258,0-0.517-0.013-0.779-0.038l-23.078-2.218
	c-4.421-0.425-7.66-4.354-7.236-8.775c0.425-4.421,4.358-7.658,8.775-7.236l23.078,2.218c4.421,0.425,7.66,4.354,7.236,8.775
	C367.681,143.827,364.181,146.941,360.086,146.941z"/>
<path style="fill:#AA9177;" d="M333.513,172.942l-36.02-3.463l4.979-51.792c0.956-9.946,9.795-17.235,19.741-16.278l0,0
	c9.946,0.956,17.235,9.795,16.278,19.741L333.513,172.942z"/>
<g>
	<path style="fill:#BAA288;" d="M218.287,46.613c-0.229,0-0.46-0.01-0.692-0.033c-3.927-0.377-6.803-3.867-6.426-7.794l1.498-15.59
		c0.378-3.927,3.872-6.81,7.794-6.426c3.927,0.377,6.803,3.866,6.426,7.793l-1.498,15.59
		C225.033,43.847,221.923,46.613,218.287,46.613z"/>
	<path style="fill:#BAA288;" d="M244.319,49.115c-0.229,0-0.46-0.01-0.692-0.033c-3.927-0.377-6.803-3.867-6.426-7.794l1.498-15.59
		c0.377-3.926,3.869-6.805,7.794-6.426c3.927,0.377,6.803,3.866,6.426,7.793l-1.498,15.59
		C251.065,46.349,247.957,49.115,244.319,49.115z"/>
	<path style="fill:#BAA288;" d="M270.352,51.618c-0.229,0-0.46-0.01-0.692-0.033c-3.927-0.377-6.803-3.867-6.426-7.794l1.498-15.59
		c0.377-3.927,3.866-6.81,7.794-6.426c3.927,0.377,6.803,3.866,6.426,7.793l-1.498,15.59
		C277.098,48.852,273.988,51.618,270.352,51.618z"/>
	<path style="fill:#BAA288;" d="M322.164,56.599c-0.229,0-0.46-0.01-0.692-0.033c-3.927-0.377-6.803-3.867-6.426-7.794l1.498-15.59
		c0.378-3.927,3.87-6.81,7.794-6.426c3.927,0.377,6.803,3.866,6.426,7.793l-1.498,15.59
		C328.91,53.834,325.801,56.599,322.164,56.599z"/>
	<path style="fill:#BAA288;" d="M348.197,59.101c-0.229,0-0.46-0.01-0.692-0.033c-3.927-0.377-6.803-3.867-6.426-7.794l1.498-15.59
		c0.377-3.926,3.868-6.806,7.794-6.426c3.927,0.377,6.803,3.866,6.426,7.793l-1.498,15.59
		C354.943,56.336,351.833,59.101,348.197,59.101z"/>
	<path style="fill:#BAA288;" d="M374.228,61.604c-0.229,0-0.46-0.01-0.692-0.033c-3.927-0.377-6.803-3.867-6.426-7.794l1.498-15.59
		c0.377-3.926,3.866-6.811,7.794-6.426c3.927,0.377,6.803,3.866,6.426,7.793l-1.498,15.59
		C380.975,58.839,377.866,61.604,374.228,61.604z"/>
</g>
<path style="fill:#DBC1A2;" d="M376.473,83.22L210.247,67.24c-2.583-0.249-4.476-2.543-4.228-5.127l1.895-19.717
	c0.249-2.583,2.543-4.476,5.127-4.228l166.226,15.981c2.583,0.249,4.476,2.543,4.228,5.127L381.6,78.993
	C381.352,81.575,379.056,83.468,376.473,83.22z"/>
<g>
	<path style="fill:#AA9177;" d="M248.831,401.185l-36.02-3.463l4.979-51.792c0.956-9.946,9.795-17.235,19.741-16.279l0,0
		c9.946,0.956,17.235,9.795,16.278,19.741L248.831,401.185z"/>
	<path style="fill:#AA9177;" d="M310.995,407.161l-36.02-3.463l4.979-51.792c0.956-9.946,9.795-17.235,19.741-16.278l0,0
		c9.946,0.956,17.235,9.795,16.278,19.741L310.995,407.161z"/>
	<path style="fill:#AA9177;" d="M366.516,342.687l-6.651,69.177l-22.729-2.185l4.98-51.8c0.956-9.943,9.789-17.227,19.744-16.27
		C363.49,341.765,365.049,342.137,366.516,342.687z"/>
	<path style="fill:#AA9177;" d="M170.586,323.85l-6.651,69.177l22.729,2.185l4.98-51.8c0.956-9.943-6.327-18.776-16.284-19.733
		C173.732,323.522,172.132,323.591,170.586,323.85z"/>
</g>
<path style="fill:#DBC1A2;" d="M370.176,433.497l-220.478-21.196c-2.583-0.249-4.476-2.543-4.228-5.127l1.895-19.717
	c0.249-2.583,2.543-4.476,5.127-4.228l220.478,21.196c2.583,0.249,4.476,2.543,4.228,5.127l-1.895,19.717
	C375.055,431.852,372.759,433.745,370.176,433.497z"/>
<g>
	<path style="fill:#AA9177;" d="M238.95,503.96l2.53-26.261l0.859-8.93l0.573-5.953c0.057-0.584,0.08-1.167,0.08-1.74
		c0-6.949-3.961-13.13-9.925-16.142c-1.946-0.996-4.121-1.637-6.433-1.866c-2.312-0.217-4.556,0-6.662,0.607
		c-6.972,1.969-12.352,8.025-13.084,15.671l-0.573,5.964l-0.859,8.93l-2.862,29.718h36.357V503.96z"/>
	<path style="fill:#AA9177;" d="M305.152,467.052c0,0.573-0.023,1.157-0.08,1.74l-0.573,5.953l-0.859,8.93l-1.946,20.286h-36.358
		l2.278-23.742l0.859-8.93l0.573-5.964c0.732-7.636,6.113-13.703,13.074-15.671c2.107-0.607,4.361-0.824,6.674-0.607
		c2.312,0.229,4.488,0.87,6.433,1.866C301.191,453.922,305.152,460.104,305.152,467.052z"/>
	<path style="fill:#AA9177;" d="M355.614,456.109l-0.057,0.607l-3.045,31.665l-1.499,15.58h-22.929l1.705-17.766l1.43-14.894
		c0.732-7.635,6.124-13.703,13.084-15.672c2.095-0.596,4.35-0.813,6.651-0.596C352.591,455.181,354.148,455.56,355.614,456.109z"/>
	<path style="fill:#AA9177;" d="M180.738,456.83l-0.573,5.964l-0.859,8.93l-3.102,32.237h-22.929l3.308-34.423l3.045-31.665
		l0.057-0.607c1.545-0.252,3.148-0.321,4.774-0.171c2.312,0.217,4.465,0.87,6.41,1.855c0,0.012,0.011,0.012,0.011,0.012
		C177.35,442.211,181.482,449.194,180.738,456.83z"/>
</g>
<path style="fill:#BAA288;" d="M405.48,512.002H106.523c-4.442,0-8.042-3.601-8.042-8.042c0-4.442,3.601-8.042,8.042-8.042h298.957
	c4.442,0,8.042,3.601,8.042,8.042C413.522,508.401,409.921,512.002,405.48,512.002z"/>
<g>
</g>
<g>
</g>
<g>
</g>
<g>
</g>
<g>
</g>
<g>
</g>
<g>
</g>
<g>
</g>
<g>
</g>
<g>
</g>
<g>
</g>
<g>
</g>
<g>
</g>
<g>
</g>
<g>
</g>
</svg>
