<?xml version="1.0" encoding="iso-8859-1"?>
<!-- Generator: Adobe Illustrator 19.0.0, SVG Export Plug-In . SVG Version: 6.00 Build 0)  -->
<svg version="1.1" id="Capa_1" xmlns="http://www.w3.org/2000/svg" xmlns:xlink="http://www.w3.org/1999/xlink" x="0px" y="0px"
	 viewBox="0 0 512 512" style="enable-background:new 0 0 512 512;" xml:space="preserve">
<rect x="87.691" y="361.856" style="fill:#F2D971;" width="336.614" height="120.769"/>
<g>
	<rect x="219.93" y="361.856" style="fill:#DBC25B;" width="72.14" height="120.769"/>
	<rect x="87.692" y="432.146" style="fill:#DBC25B;" width="336.614" height="50.469"/>
	<rect x="207.799" y="361.856" style="fill:#DBC25B;" width="96.402" height="120.769"/>
</g>
<rect x="87.691" y="327.218" style="fill:#F2D971;" width="336.614" height="34.638"/>
<rect x="87.691" y="361.856" style="fill:#DBC25B;" width="336.614" height="27.974"/>
<g>
	<path style="fill:#CEB446;" d="M215.892,397.911h-57.933c-4.465,0-8.084-3.62-8.084-8.084c0-4.465,3.62-8.084,8.084-8.084h57.933
		c4.465,0,8.084,3.62,8.084,8.084C223.976,394.292,220.356,397.911,215.892,397.911z"/>
	<path style="fill:#CEB446;" d="M354.041,397.911h-57.933c-4.465,0-8.084-3.62-8.084-8.084c0-4.465,3.62-8.084,8.084-8.084h57.933
		c4.465,0,8.084,3.62,8.084,8.084C362.125,394.292,358.506,397.911,354.041,397.911z"/>
</g>
<g>
	<path style="fill:#DBC25B;" d="M422.759,262.224c-12.543-137.816-97.685-187.465-97.685-187.465h-44.266v187.464h141.951V262.224z"
		/>
	<path style="fill:#DBC25B;" d="M89.241,262.224c12.543-137.816,97.685-187.465,97.685-187.465h44.266v187.464H89.241V262.224z"/>
	<path style="fill:#DBC25B;" d="M325.077,72.292v18.126H186.923V72.292c0-2.472,1.682-4.627,4.079-5.228l64.991-16.281
		l65.004,16.282C323.395,67.664,325.077,69.82,325.077,72.292z"/>
</g>
<g>
	<path style="fill:#CEB446;" d="M417.955,239.375h-137.73c-4.465,0-8.084-3.62-8.084-8.084s3.62-8.084,8.084-8.084h137.73
		c4.465,0,8.084,3.62,8.084,8.084S422.42,239.375,417.955,239.375z"/>
	<path style="fill:#CEB446;" d="M409.994,206.54H280.225c-4.465,0-8.084-3.62-8.084-8.084s3.62-8.084,8.084-8.084h129.769
		c4.465,0,8.084,3.62,8.084,8.084S414.459,206.54,409.994,206.54z"/>
	<path style="fill:#CEB446;" d="M397.712,173.705H280.224c-4.465,0-8.084-3.62-8.084-8.084s3.62-8.084,8.084-8.084h117.488
		c4.465,0,8.084,3.62,8.084,8.084S402.177,173.705,397.712,173.705z"/>
</g>
<g>
	<polygon style="fill:#F2D971;" points="422.759,262.224 401.143,306.108 349.673,306.108 349.673,262.224 	"/>
	<polygon style="fill:#F2D971;" points="89.241,262.224 110.857,306.108 162.327,306.108 162.327,262.224 	"/>
</g>
<g>
	<path style="fill:#CEB446;" d="M230.608,239.375H92.879c-4.465,0-8.084-3.62-8.084-8.084s3.62-8.084,8.084-8.084h137.73
		c4.465,0,8.084,3.62,8.084,8.084S235.073,239.375,230.608,239.375z"/>
	<path style="fill:#CEB446;" d="M230.608,206.54H100.84c-4.465,0-8.084-3.62-8.084-8.084s3.62-8.084,8.084-8.084h129.768
		c4.465,0,8.084,3.62,8.084,8.084S235.073,206.54,230.608,206.54z"/>
	<path style="fill:#CEB446;" d="M230.608,173.705H113.121c-4.465,0-8.084-3.62-8.084-8.084s3.62-8.084,8.084-8.084h117.487
		c4.465,0,8.084,3.62,8.084,8.084S235.073,173.705,230.608,173.705z"/>
</g>
<polygon style="fill:#F2D971;" points="424.314,327.222 87.692,327.222 121.957,296.766 246.86,185.77 265.146,185.77 
	390.05,296.766 "/>
<polygon style="fill:#DBC25B;" points="424.314,327.222 87.692,327.222 121.957,296.766 390.05,296.766 "/>
<polygon style="fill:#CCB34A;" points="234.519,256.492 277.481,256.492 394.57,300.787 265.144,185.766 246.856,185.766 
	117.43,300.787 "/>
<g>
	<path style="fill:#E5CD67;" d="M191.627,168.336l-28.141-3.622c-2.505-0.323-4.45-2.342-4.679-4.857l-3.45-37.887
		c-0.287-3.157,2.197-5.879,5.368-5.879h31.592c2.977,0,5.39,2.413,5.39,5.39v41.51C197.704,166.24,194.849,168.75,191.627,168.336z
		"/>
	<path style="fill:#E5CD67;" d="M348.514,164.714l-28.141,3.622c-3.224,0.415-6.077-2.096-6.077-5.346v-41.51
		c0-2.977,2.413-5.39,5.39-5.39h31.592c3.169,0,5.655,2.722,5.368,5.879l-3.45,37.887
		C352.964,162.372,351.02,164.391,348.514,164.714z"/>
</g>
<path style="fill:#F2D971;" d="M325.077,95.807v67.208c0,0.753-0.158,1.498-0.464,2.187l-35.094,79.065
	c-0.864,1.948-2.795,3.203-4.926,3.203h-55.798c-2.102,0-4.013-1.223-4.894-3.133l-36.484-79.106
	c-0.326-0.707-0.495-1.477-0.495-2.257V95.807c0-2.977,2.413-5.39,5.39-5.39h127.375C322.664,90.418,325.077,92.83,325.077,95.807z"
	/>
<g>
	<polygon style="fill:#DBC25B;" points="301.299,123.5 285.628,123.5 285.628,130.692 295.843,164.161 324.491,164.161 	"/>
	<path style="fill:#DBC25B;" d="M281.857,198.456h-50.549l-9.85-34.295l-27.142,16.032l29.588,64.143
		c0.881,1.909,2.791,3.132,4.894,3.132h55.798c2.131,0,4.062-1.256,4.927-3.204l28.442-64.092l-27.432-16.012L281.857,198.456z"/>
</g>
<path style="fill:#F2D971;" d="M264.815,77.775h-15.878c-2.512,0-4.691-1.735-5.253-4.183l-8.642-37.623
	c-0.775-3.376,1.789-6.596,5.253-6.596h33.163c3.464,0,6.028,3.22,5.253,6.596l-8.642,37.623
	C269.504,76.041,267.326,77.775,264.815,77.775z"/>
<path style="fill:#DBC25B;" d="M268.512,288.873H245.24c-2.977,0-5.39-2.413-5.39-5.39v-36.015h34.051v36.015
	C273.901,286.46,271.488,288.873,268.512,288.873z"/>
<g>
	<path style="fill:#CCB34A;" d="M256,172.246c-4.465,0-8.084-3.62-8.084-8.084v-34.446c0-4.465,3.62-8.084,8.084-8.084
		c4.465,0,8.084,3.62,8.084,8.084v34.446C264.084,168.626,260.465,172.246,256,172.246z"/>
	<path style="fill:#CCB34A;" d="M239.589,212.653c-2.265,0-4.518-0.947-6.117-2.794c-2.922-3.376-2.553-8.482,0.823-11.403
		c6.025-5.213,13.723-8.083,21.676-8.083c7.952,0,15.648,2.871,21.671,8.084c3.376,2.923,3.743,8.028,0.821,11.404
		c-2.923,3.374-8.027,3.743-11.404,0.821c-3.085-2.671-7.023-4.141-11.088-4.141c-4.07,0-8.01,1.471-11.097,4.142
		C243.346,212.004,241.462,212.653,239.589,212.653z"/>
</g>
<g>
	<path style="fill:#CEB446;" d="M233.526,440.232H131.191c-4.465,0-8.084-3.62-8.084-8.084c0-4.465,3.62-8.084,8.084-8.084h102.335
		c4.465,0,8.084,3.62,8.084,8.084C241.611,436.612,237.991,440.232,233.526,440.232z"/>
	<path style="fill:#CEB446;" d="M380.833,440.232H278.498c-4.465,0-8.084-3.62-8.084-8.084c0-4.465,3.62-8.084,8.084-8.084h102.335
		c4.465,0,8.084,3.62,8.084,8.084C388.917,436.612,385.298,440.232,380.833,440.232z"/>
</g>
<path style="fill:#B79E35;" d="M278.498,482.621h-44.995V426.74c0-10.644,8.629-19.274,19.274-19.274h6.448
	c10.644,0,19.274,8.629,19.274,19.274v55.881H278.498z"/>
<path style="fill:#F2D971;" d="M43.73,482.621H5.39c-2.977,0-5.39-2.413-5.39-5.39v-64.376c0-2.977,2.413-5.39,5.39-5.39h38.341
	v75.155H43.73z"/>
<path style="fill:#DBC25B;" d="M43.73,482.621H5.39c-2.977,0-5.39-2.413-5.39-5.39v-45.083h43.73V482.621z"/>
<rect x="43.73" y="407.466" style="fill:#F2D971;" width="43.73" height="75.155"/>
<rect x="43.73" y="432.146" style="fill:#DBC25B;" width="43.73" height="50.469"/>
<path style="fill:#F2D971;" d="M125.802,482.621h-38.34v-75.155h38.341c2.977,0,5.39,2.413,5.39,5.39v64.376
	C131.191,480.207,128.778,482.621,125.802,482.621z"/>
<path style="fill:#DBC25B;" d="M125.802,482.621h-38.34v-50.473h43.73v45.083C131.191,480.207,128.778,482.621,125.802,482.621z"/>
<path style="fill:#F2D971;" d="M424.539,482.621h-38.341c-2.977,0-5.39-2.413-5.39-5.39v-64.376c0-2.977,2.413-5.39,5.39-5.39
	h38.341V482.621z"/>
<path style="fill:#DBC25B;" d="M424.539,482.621h-38.341c-2.977,0-5.39-2.413-5.39-5.39v-45.083h43.73v50.473H424.539z"/>
<path style="fill:#CEB446;" d="M397.712,482.621h-11.515c-2.977,0-5.39-2.413-5.39-5.39v-45.083h16.904L397.712,482.621
	L397.712,482.621z"/>
<path style="fill:#DBC25B;" d="M397.712,432.148h-16.904v-19.293c0-2.977,2.413-5.39,5.39-5.39h11.515L397.712,432.148
	L397.712,432.148z"/>
<rect x="424.542" y="407.466" style="fill:#F2D971;" width="43.73" height="75.155"/>
<rect x="424.542" y="432.146" style="fill:#DBC25B;" width="43.73" height="50.469"/>
<rect x="424.542" y="432.146" style="fill:#CEB446;" width="16.904" height="50.469"/>
<rect x="424.542" y="407.466" style="fill:#DBC25B;" width="16.904" height="24.683"/>
<path style="fill:#F2D971;" d="M506.61,482.621h-38.341v-75.155h38.341c2.977,0,5.39,2.413,5.39,5.39v64.376
	C512,480.207,509.587,482.621,506.61,482.621z"/>
<path style="fill:#DBC25B;" d="M506.61,482.621h-38.341v-50.473H512v45.083C512,480.207,509.587,482.621,506.61,482.621z"/>
<rect x="468.271" y="432.146" style="fill:#CEB446;" width="16.904" height="50.469"/>
<rect x="468.271" y="407.466" style="fill:#DBC25B;" width="16.904" height="24.683"/>
<rect x="26.827" y="432.522" style="fill:#CEB446;" width="16.904" height="50.104"/>
<rect x="26.827" y="407.466" style="fill:#DBC25B;" width="16.904" height="25.051"/>
<rect x="70.562" y="432.522" style="fill:#CEB446;" width="16.904" height="50.104"/>
<rect x="70.562" y="407.466" style="fill:#DBC25B;" width="16.904" height="25.051"/>
<path style="fill:#CEB446;" d="M125.802,482.621h-11.515v-50.104h16.904v44.714C131.191,480.207,128.778,482.621,125.802,482.621z"
	/>
<path style="fill:#DBC25B;" d="M131.191,432.517h-16.904v-25.051h11.515c2.977,0,5.39,2.413,5.39,5.39
	C131.191,412.855,131.191,432.517,131.191,432.517z"/>
<path style="fill:#CCB34A;" d="M285.628,138.777c-4.465,0-8.084-3.62-8.084-8.084V123.5c0-4.465,3.62-8.084,8.084-8.084h15.671
	c4.465,0,8.084,3.62,8.084,8.084s-3.62,8.084-8.084,8.084h-7.636C293.219,135.629,289.791,138.777,285.628,138.777z"/>
<polygon style="fill:#DBC25B;" points="210.114,123.5 225.786,123.5 225.786,130.692 215.571,164.161 186.923,164.161 "/>
<path style="fill:#CCB34A;" d="M225.786,138.777c-4.163,0-7.591-3.147-8.035-7.192h-7.636c-4.465,0-8.084-3.62-8.084-8.084
	s3.62-8.084,8.084-8.084h15.671c4.465,0,8.084,3.62,8.084,8.084v7.192C233.87,135.157,230.251,138.777,225.786,138.777z"/>
<g>
</g>
<g>
</g>
<g>
</g>
<g>
</g>
<g>
</g>
<g>
</g>
<g>
</g>
<g>
</g>
<g>
</g>
<g>
</g>
<g>
</g>
<g>
</g>
<g>
</g>
<g>
</g>
<g>
</g>
</svg>
