<?xml version="1.0" encoding="iso-8859-1"?>
<!-- Generator: Adobe Illustrator 19.0.0, SVG Export Plug-In . SVG Version: 6.00 Build 0)  -->
<svg version="1.1" id="Capa_1" xmlns="http://www.w3.org/2000/svg" xmlns:xlink="http://www.w3.org/1999/xlink" x="0px" y="0px"
	 viewBox="0 0 512 512" style="enable-background:new 0 0 512 512;" xml:space="preserve">
<path style="fill:#D3C2AE;" d="M256,130.208L256,130.208c-3.029,0-5.486-2.457-5.486-5.486V81.975c0-3.029,2.457-5.486,5.486-5.486
	l0,0c3.029,0,5.486,2.457,5.486,5.486v42.747C261.486,127.751,259.029,130.208,256,130.208z"/>
<g>
	<path style="fill:#6196AD;" d="M133.666,260.629c-4.328,0-7.837-3.508-7.837-7.837v-21.713c0-4.329,3.509-7.837,7.837-7.837
		s7.837,3.508,7.837,7.837v21.713C141.503,257.121,137.994,260.629,133.666,260.629z"/>
	<path style="fill:#6196AD;" d="M15.673,260.629c-4.328,0-7.837-3.508-7.837-7.837v-21.713c0-4.329,3.509-7.837,7.837-7.837
		s7.837,3.508,7.837,7.837v21.713C23.51,257.121,20.001,260.629,15.673,260.629z"/>
	<path style="fill:#6196AD;" d="M378.333,260.629c-4.328,0-7.837-3.508-7.837-7.837v-21.713c0-4.329,3.509-7.837,7.837-7.837
		s7.837,3.508,7.837,7.837v21.713C386.17,257.121,382.661,260.629,378.333,260.629z"/>
	<path style="fill:#6196AD;" d="M496.327,260.629c-4.328,0-7.837-3.508-7.837-7.837v-21.713c0-4.329,3.509-7.837,7.837-7.837
		s7.837,3.508,7.837,7.837v21.713C504.163,257.121,500.654,260.629,496.327,260.629z"/>
</g>
<g>
	<path style="fill:#D3C2AE;" d="M326.221,147.684h-7.986c-2.885,0-5.224,2.34-5.224,5.224v63.54h18.435v-63.54
		C331.446,150.023,329.106,147.684,326.221,147.684z"/>
	<path style="fill:#D3C2AE;" d="M193.76,147.684h-7.986c-2.885,0-5.225,2.34-5.225,5.224v63.54h18.435v-63.54
		C198.984,150.023,196.646,147.684,193.76,147.684z"/>
</g>
<path style="fill:#73AAC9;" d="M325.078,216.558H186.107c0-5.663,0.439-11.201,1.285-16.551
	c6.207-39.769,34.377-69.799,68.201-69.799c33.646,0,61.691,29.706,68.106,69.162C324.608,204.918,325.078,210.675,325.078,216.558z
	"/>
<path style="fill:#6196AD;" d="M325.078,216.558H186.107c0-5.663,0.439-11.201,1.285-16.551l56.613-39.675
	c3.605-2.518,7.795-3.783,11.995-3.783c4.201,0,8.391,1.264,11.995,3.783l55.704,39.037
	C324.608,204.918,325.078,210.675,325.078,216.558z"/>
<path style="fill:#D3C2AE;" d="M504.163,257.756v172.529c0,2.885-2.34,5.224-5.224,5.224H13.061c-2.885,0-5.224-2.34-5.224-5.224
	V257.756H504.163z"/>
<rect x="7.837" y="325.977" style="fill:#C1B2A3;" width="496.327" height="19.182"/>
<g>
	<path style="fill:#3D3D3D;" d="M42.841,373.976h-9.056c-2.885,0-5.224-2.34-5.224-5.224v-16.894c0-2.885,2.34-5.224,5.224-5.224
		h9.056c2.885,0,5.224,2.34,5.224,5.224v16.894C48.065,371.637,45.726,373.976,42.841,373.976z"/>
	<path style="fill:#3D3D3D;" d="M82.547,373.976h-9.056c-2.885,0-5.224-2.34-5.224-5.224v-16.894c0-2.885,2.34-5.224,5.224-5.224
		h9.056c2.885,0,5.224,2.34,5.224,5.224v16.894C87.771,371.637,85.432,373.976,82.547,373.976z"/>
	<path style="fill:#3D3D3D;" d="M122.253,373.976h-9.056c-2.885,0-5.224-2.34-5.224-5.224v-16.894c0-2.885,2.34-5.224,5.224-5.224
		h9.056c2.885,0,5.224,2.34,5.224,5.224v16.894C127.478,371.637,125.138,373.976,122.253,373.976z"/>
	<path style="fill:#3D3D3D;" d="M398.803,373.976h-9.056c-2.885,0-5.224-2.34-5.224-5.224v-16.894c0-2.885,2.34-5.224,5.224-5.224
		h9.056c2.885,0,5.224,2.34,5.224,5.224v16.894C404.028,371.637,401.688,373.976,398.803,373.976z"/>
	<path style="fill:#3D3D3D;" d="M438.509,373.976h-9.056c-2.885,0-5.224-2.34-5.224-5.224v-16.894c0-2.885,2.34-5.224,5.224-5.224
		h9.056c2.885,0,5.224,2.34,5.224,5.224v16.894C443.734,371.637,441.394,373.976,438.509,373.976z"/>
	<path style="fill:#3D3D3D;" d="M478.215,373.976h-9.056c-2.885,0-5.224-2.34-5.224-5.224v-16.894c0-2.885,2.34-5.224,5.224-5.224
		h9.056c2.885,0,5.225,2.34,5.225,5.224v16.894C483.44,371.637,481.1,373.976,478.215,373.976z"/>
</g>
<rect x="7.837" y="374.084" style="fill:#C1B2A3;" width="496.327" height="19.182"/>
<g>
	<path style="fill:#3D3D3D;" d="M50.099,435.51H28.56v-27.715c0-5.948,4.821-10.769,10.769-10.769l0,0
		c5.948,0,10.769,4.821,10.769,10.769v27.715H50.099z"/>
	<path style="fill:#3D3D3D;" d="M88.788,435.51H67.25v-27.715c0-5.948,4.821-10.769,10.769-10.769l0,0
		c5.948,0,10.769,4.821,10.769,10.769v27.715H88.788z"/>
	<path style="fill:#3D3D3D;" d="M445.767,435.51h-21.538v-27.715c0-5.948,4.821-10.769,10.769-10.769l0,0
		c5.948,0,10.769,4.821,10.769,10.769v27.715H445.767z"/>
	<path style="fill:#3D3D3D;" d="M484.456,435.51h-21.538v-27.715c0-5.948,4.821-10.769,10.769-10.769l0,0
		c5.948,0,10.769,4.821,10.769,10.769v27.715H484.456z"/>
</g>
<rect x="7.837" y="294.358" style="fill:#C1B2A3;" width="496.327" height="14.629"/>
<g>
	<path style="fill:#3D3D3D;" d="M38.313,333.814c-4.328,0-7.837-3.508-7.837-7.837v-12.803c0-4.329,3.509-7.837,7.837-7.837
		s7.837,3.508,7.837,7.837v12.803C46.15,330.306,42.641,333.814,38.313,333.814z"/>
	<path style="fill:#3D3D3D;" d="M78.019,333.814c-4.328,0-7.837-3.508-7.837-7.837v-12.803c0-4.329,3.509-7.837,7.837-7.837
		s7.837,3.508,7.837,7.837v12.803C85.856,330.306,82.347,333.814,78.019,333.814z"/>
	<path style="fill:#3D3D3D;" d="M117.726,333.814c-4.328,0-7.837-3.508-7.837-7.837v-12.803c0-4.329,3.509-7.837,7.837-7.837
		c4.328,0,7.837,3.508,7.837,7.837v12.803C125.562,330.306,122.053,333.814,117.726,333.814z"/>
	<path style="fill:#3D3D3D;" d="M394.274,333.814c-4.328,0-7.837-3.508-7.837-7.837v-12.803c0-4.329,3.509-7.837,7.837-7.837
		s7.837,3.508,7.837,7.837v12.803C402.111,330.306,398.603,333.814,394.274,333.814z"/>
	<path style="fill:#3D3D3D;" d="M433.981,333.814c-4.328,0-7.837-3.508-7.837-7.837v-12.803c0-4.329,3.509-7.837,7.837-7.837
		s7.837,3.508,7.837,7.837v12.803C441.817,330.306,438.31,333.814,433.981,333.814z"/>
	<path style="fill:#3D3D3D;" d="M473.687,333.814c-4.328,0-7.837-3.508-7.837-7.837v-12.803c0-4.329,3.509-7.837,7.837-7.837
		s7.837,3.508,7.837,7.837v12.803C481.523,330.306,478.016,333.814,473.687,333.814z"/>
</g>
<g>
	<path style="fill:#E2D6C9;" d="M504.163,333.813H7.837c-4.328,0-7.837-3.508-7.837-7.837c0-4.329,3.509-7.837,7.837-7.837h496.327
		c4.328,0,7.837,3.508,7.837,7.837C512,330.305,508.491,333.813,504.163,333.813z"/>
	<path style="fill:#E2D6C9;" d="M504.163,381.92H7.837c-4.328,0-7.837-3.508-7.837-7.837s3.509-7.837,7.837-7.837h496.327
		c4.328,0,7.837,3.508,7.837,7.837S508.491,381.92,504.163,381.92z"/>
</g>
<rect x="7.837" y="245.676" style="fill:#73AAC9;" width="496.327" height="48.686"/>
<rect x="7.837" y="245.676" style="fill:#6196AD;" width="496.327" height="16.273"/>
<g>
	<rect x="7.837" y="277.556" style="fill:#D3C2AE;" width="496.327" height="16.812"/>
	<path style="fill:#D3C2AE;" d="M331.442,217.812v113.497H180.558V217.812c0-2.885,2.34-5.224,5.224-5.224h140.434
		C329.102,212.588,331.442,214.926,331.442,217.812z"/>
</g>
<g>
	<rect x="180.558" y="257.755" style="fill:#C1B2A3;" width="150.883" height="73.55"/>
	<path style="fill:#C1B2A3;" d="M331.442,217.812v17.502H180.558v-17.502c0-2.885,2.34-5.224,5.224-5.224h140.434
		C329.102,212.588,331.442,214.926,331.442,217.812z"/>
</g>
<g>
	<path style="fill:#F1EFF0;" d="M311.321,275.48h-21.539v-16.292c0-5.948,4.821-10.769,10.769-10.769l0,0
		c5.948,0,10.769,4.821,10.769,10.769v16.292H311.321z"/>
	<path style="fill:#F1EFF0;" d="M222.217,275.48h-21.538v-16.292c0-5.948,4.821-10.769,10.769-10.769l0,0
		c5.948,0,10.769,4.821,10.769,10.769v16.292H222.217z"/>
</g>
<g>
	<path style="fill:#C1B2A3;" d="M155.174,284.017c-4.328,0-7.837-3.508-7.837-7.837v-8.464c0-4.329,3.509-7.837,7.837-7.837
		c4.328,0,7.837,3.508,7.837,7.837v8.464C163.01,280.508,159.502,284.017,155.174,284.017z"/>
	<path style="fill:#C1B2A3;" d="M356.826,284.017c-4.328,0-7.837-3.508-7.837-7.837v-8.464c0-4.329,3.509-7.837,7.837-7.837
		s7.837,3.508,7.837,7.837v8.464C364.663,280.508,361.154,284.017,356.826,284.017z"/>
</g>
<path style="fill:#D3C2AE;" d="M366.414,280.705v95.765H145.586v-95.765c0-2.884,2.341-5.224,5.224-5.224h210.38
	C364.074,275.48,366.414,277.821,366.414,280.705z"/>
<g>
	<path style="fill:#3D3D3D;" d="M182.195,321.01c-4.328,0-7.837-3.508-7.837-7.837v-18.04c0-4.329,3.509-7.837,7.837-7.837
		c4.328,0,7.837,3.508,7.837,7.837v18.04C190.031,317.503,186.523,321.01,182.195,321.01z"/>
	<path style="fill:#3D3D3D;" d="M329.805,321.01c-4.328,0-7.837-3.508-7.837-7.837v-18.04c0-4.329,3.509-7.837,7.837-7.837
		c4.328,0,7.837,3.508,7.837,7.837v18.04C337.642,317.503,334.133,321.01,329.805,321.01z"/>
</g>
<rect x="145.586" y="305.33" style="fill:#C1B2A3;" width="220.829" height="15.673"/>
<path style="fill:#D3C2AE;" d="M314.893,230.32H197.107c-5.106,0-7.181-6.572-2.998-9.503l58.893-41.268
	c1.799-1.261,4.196-1.261,5.997,0l58.893,41.268C322.073,223.747,319.999,230.32,314.893,230.32z"/>
<path style="fill:#E2D6C9;" d="M296.699,230.32h-81.398l37.701-26.415c1.799-1.261,4.196-1.261,5.996,0L296.699,230.32z"/>
<polygon style="fill:#95BDD8;" points="450.382,435.506 61.618,435.506 255.99,241.134 "/>
<path style="fill:#7EABC4;" d="M428.596,435.506h21.786L255.99,241.134L61.618,435.506h21.797l30.09-30.09l21.277,21.271
	l-7.335,7.346c-0.408,0.397-0.616,0.93-0.616,1.473h43.98c0-0.543-0.209-1.076-0.606-1.473l-7.346-7.346l21.692-21.692
	l21.692,21.692l-7.325,7.314c-0.408,0.408-0.627,0.951-0.627,1.505h43.98c0-0.543-0.209-1.076-0.616-1.473l-7.335-7.346L256,404.995
	l21.692,21.692l-7.325,7.314c-0.408,0.408-0.627,0.951-0.627,1.505h43.99c0-0.543-0.209-1.076-0.616-1.473l-7.346-7.346
	l21.692-21.692l21.692,21.692l-7.314,7.325c-0.408,0.397-0.627,0.94-0.627,1.494h43.959c0-0.533-0.209-1.066-0.606-1.473
	l-7.335-7.346l21.277-21.271L428.596,435.506z M292.415,299.335l9.78,9.78l10.809,10.809l-21.269,21.269l-21.692-21.692
	l21.261-21.274L292.415,299.335z M255.99,262.92l21.277,21.277L256,305.458l-21.271-21.271L255.99,262.92z M209.805,309.126
	l9.78-9.791l0.01-0.021l1.093-1.091l21.278,21.278l-21.692,21.692l-21.269-21.269L209.805,309.126z M148.814,412.654l-21.271-21.277
	l10.791-10.791l9.801-9.812l1.089-1.089l21.282,21.276L148.814,412.654z M163.274,355.642l9.511-9.506l11.065-11.065l1.114-1.112
	l21.268,21.268l-21.682,21.692L163.274,355.642z M220.275,412.644l-21.692-21.682l21.692-21.692l21.692,21.692L220.275,412.644z
	 M234.318,355.227L256,333.535l21.692,21.692L256,376.919L234.318,355.227z M291.725,412.644l-21.682-21.682l21.692-21.692
	l21.682,21.692L291.725,412.644z M305.768,355.227l21.276-21.269l1.116,1.113l9.78,9.78l10.797,10.797l-21.277,21.271
	L305.768,355.227z M363.186,412.654l-21.692-21.692l21.279-21.279l21.692,21.692L363.186,412.654z"/>
<path style="fill:#3D3D3D;" d="M284.558,140.49h-57.116c-2.885,0-5.224-2.34-5.224-5.225v-8.359c0-2.885,2.34-5.224,5.224-5.224
	h57.116c2.885,0,5.224,2.34,5.224,5.224v8.359C289.783,138.15,287.443,140.49,284.558,140.49z"/>
<g>
</g>
<g>
</g>
<g>
</g>
<g>
</g>
<g>
</g>
<g>
</g>
<g>
</g>
<g>
</g>
<g>
</g>
<g>
</g>
<g>
</g>
<g>
</g>
<g>
</g>
<g>
</g>
<g>
</g>
</svg>
