<?xml version="1.0" encoding="iso-8859-1"?>
<!-- Generator: Adobe Illustrator 19.0.0, SVG Export Plug-In . SVG Version: 6.00 Build 0)  -->
<svg version="1.1" id="Capa_1" xmlns="http://www.w3.org/2000/svg" xmlns:xlink="http://www.w3.org/1999/xlink" x="0px" y="0px"
	 viewBox="0 0 512 512" style="enable-background:new 0 0 512 512;" xml:space="preserve">
<path style="fill:#AAAAAB;" d="M394.111,317.58H117.89c0,0,3.244-12.817,7.902-31.734c1.768-7.158,3.741-15.198,5.821-23.735
	c0.722-3.007,1.466-6.09,2.21-9.216c1.002-4.139,2.016-8.364,3.029-12.643c0.323-1.358,0.679-2.932,1.056-4.678
	c0.787-3.654,1.66-8.052,2.576-12.848c0.636-3.364,1.304-6.909,1.973-10.552c5.217-28.532,30.084-49.239,59.08-49.239h108.933
	c28.996,0,53.873,20.707,59.08,49.239c0.657,3.632,1.326,7.19,1.961,10.552c0.916,4.786,1.789,9.173,2.565,12.817
	c0.377,1.756,0.732,3.342,1.067,4.71c1.024,4.279,2.038,8.504,3.04,12.643c0.733,3.062,1.466,6.079,2.178,9.033
	c2.091,8.612,4.074,16.708,5.852,23.919C390.877,304.763,394.111,317.58,394.111,317.58z"/>
<path style="fill:#949495;" d="M502.86,485.58H9.14c-2.977,0-5.39,2.413-5.39,5.39v15.641c0,2.977,2.413,5.39,5.39,5.39H502.86
	c2.977,0,5.39-2.413,5.39-5.39v-15.641C508.25,487.992,505.836,485.58,502.86,485.58z"/>
<path style="fill:#878787;" d="M483.447,455.248v30.332H28.553v-30.332c0-5.53,4.484-10.013,10.013-10.013h434.867
	C478.963,445.235,483.447,449.719,483.447,455.248z"/>
<path style="fill:#AAAAAB;" d="M465.328,445.235H46.672l5.422-10.585l3.686-7.19l3.837-7.46c0.108-0.215,0.215-0.42,0.334-0.625
	c3.859-6.985,11.221-11.339,19.229-11.339h353.636c8.246,0,15.802,4.613,19.575,11.964l3.826,7.46L465.328,445.235z"/>
<path style="fill:#878787;" d="M428.735,408.036H83.265c-10.251,0-19.144-7.081-21.438-17.073l-1.241-5.403
	c-0.775-3.376,1.789-6.595,5.253-6.595h380.323c3.464,0,6.028,3.22,5.253,6.595l-1.241,5.403
	C447.879,400.954,438.987,408.036,428.735,408.036z"/>
<path style="fill:#AAAAAB;" d="M440.591,378.964H71.414l5.875-19.324l2.204-7.239c2.184-7.182,8.813-12.084,16.319-12.084h320.381
	c7.507,0,14.126,4.903,16.31,12.084l2.204,7.239L440.591,378.964z"/>
<path style="fill:#878787;" d="M407.703,340.313H104.296v-17.345c0-2.977,2.413-5.39,5.39-5.39h292.628
	c2.977,0,5.39,2.413,5.39,5.39L407.703,340.313L407.703,340.313z"/>
<path style="fill:#AAAAAB;" d="M307.565,162.938H204.439l2.117-15.051l2.695-19.131c0.375-2.66,2.651-4.638,5.336-4.638h82.827
	c2.686,0,4.962,1.978,5.337,4.638l2.695,19.131L307.565,162.938z"/>
<polygon style="fill:#949495;" points="307.565,162.938 204.439,162.938 206.556,147.886 305.447,147.886 "/>
<path style="fill:#AAAAAB;" d="M273.562,124.118h-35.119l2.585-35.605L247.084,5c0.205-2.818,2.55-5,5.375-5h7.077
	c2.825,0,5.171,2.182,5.375,4.999l6.066,83.513L273.562,124.118z"/>
<path style="fill:#989899;" d="M394.112,317.577H117.892c0,0,3.243-12.819,7.897-31.733h260.426
	C390.879,304.758,394.112,317.577,394.112,317.577z"/>
<g>
	<polygon style="fill:#949495;" points="465.333,445.234 46.671,445.234 55.78,427.465 456.223,427.465 	"/>
	<polygon style="fill:#949495;" points="440.591,378.964 71.414,378.964 77.288,359.64 434.706,359.64 	"/>
	<polygon style="fill:#949495;" points="273.562,124.118 238.443,124.118 241.028,88.512 270.977,88.512 	"/>
</g>
<g>
	<path style="fill:#989899;" d="M158.132,202.126l8.28-8.28c2.104-2.104,5.517-2.104,7.621,0l8.28,8.28
		c2.104,2.104,2.104,5.517,0,7.621l-8.28,8.28c-2.104,2.104-5.517,2.104-7.621,0l-8.28-8.28
		C156.027,207.644,156.027,204.232,158.132,202.126z"/>
	<path style="fill:#989899;" d="M214.977,202.126l8.28-8.28c2.104-2.104,5.517-2.104,7.621,0l8.28,8.28
		c2.104,2.104,2.104,5.517,0,7.621l-8.28,8.28c-2.104,2.104-5.517,2.104-7.621,0l-8.28-8.28
		C212.873,207.644,212.873,204.232,214.977,202.126z"/>
	<path style="fill:#989899;" d="M271.823,202.126l8.28-8.28c2.104-2.104,5.517-2.104,7.622,0l8.28,8.28
		c2.104,2.104,2.104,5.517,0,7.621l-8.28,8.28c-2.104,2.104-5.517,2.104-7.622,0l-8.28-8.28
		C269.718,207.644,269.718,204.232,271.823,202.126z"/>
	<path style="fill:#989899;" d="M328.668,202.126l8.28-8.28c2.104-2.104,5.517-2.104,7.621,0l8.28,8.28
		c2.104,2.104,2.104,5.517,0,7.621l-8.28,8.28c-2.104,2.104-5.517,2.104-7.621,0l-8.28-8.28
		C326.564,207.644,326.564,204.232,328.668,202.126z"/>
	<path style="fill:#989899;" d="M158.132,282.032l8.28-8.28c2.104-2.104,5.517-2.104,7.621,0l8.28,8.28
		c2.104,2.104,2.104,5.517,0,7.621l-8.28,8.28c-2.104,2.104-5.517,2.104-7.621,0l-8.28-8.28
		C156.027,287.549,156.027,284.136,158.132,282.032z"/>
	<path style="fill:#989899;" d="M214.977,282.032l8.28-8.28c2.104-2.104,5.517-2.104,7.621,0l8.28,8.28
		c2.104,2.104,2.104,5.517,0,7.621l-8.28,8.28c-2.104,2.104-5.517,2.104-7.621,0l-8.28-8.28
		C212.873,287.549,212.873,284.136,214.977,282.032z"/>
	<path style="fill:#989899;" d="M271.823,282.032l8.28-8.28c2.104-2.104,5.517-2.104,7.622,0l8.28,8.28
		c2.104,2.104,2.104,5.517,0,7.621l-8.28,8.28c-2.104,2.104-5.517,2.104-7.622,0l-8.28-8.28
		C269.718,287.549,269.718,284.136,271.823,282.032z"/>
	<path style="fill:#989899;" d="M328.668,282.032l8.28-8.28c2.104-2.104,5.517-2.104,7.621,0l8.28,8.28
		c2.104,2.104,2.104,5.517,0,7.621l-8.28,8.28c-2.104,2.104-5.517,2.104-7.621,0l-8.28-8.28
		C326.564,287.549,326.564,284.136,328.668,282.032z"/>
	<path style="fill:#989899;" d="M186.554,242.461l8.28-8.28c2.104-2.104,5.517-2.104,7.621,0l8.28,8.28
		c2.104,2.104,2.104,5.517,0,7.621l-8.28,8.28c-2.104,2.104-5.517,2.104-7.621,0l-8.28-8.28
		C184.45,247.978,184.45,244.567,186.554,242.461z"/>
	<path style="fill:#989899;" d="M155.189,250.082l-8.278,8.278c-2.104,2.104-5.517,2.104-7.621,0l-3.333-3.333
		c-1.327-1.327-1.868-3.244-1.429-5.069c0.769-3.196,1.544-6.437,2.326-9.706c0.227-0.952,0.467-2.007,0.718-3.151
		c0.22-1.003,0.726-1.927,1.452-2.653l0.266-0.266c2.104-2.104,5.517-2.104,7.621,0l8.278,8.278
		C157.295,244.565,157.295,247.977,155.189,250.082z"/>
	<path style="fill:#989899;" d="M243.4,242.461l8.28-8.28c2.104-2.104,5.517-2.104,7.621,0l8.28,8.28
		c2.104,2.104,2.104,5.517,0,7.621l-8.28,8.28c-2.104,2.104-5.517,2.104-7.621,0l-8.28-8.28
		C241.295,247.978,241.295,244.567,243.4,242.461z"/>
	<path style="fill:#989899;" d="M376.039,255.036l-3.324,3.324c-2.104,2.104-5.517,2.104-7.621,0l-8.278-8.278
		c-2.104-2.104-2.104-5.517,0-7.621l8.278-8.278c2.104-2.104,5.517-2.104,7.621,0l0.243,0.243c0.724,0.724,1.229,1.644,1.45,2.644
		c0.256,1.156,0.499,2.221,0.734,3.184c0.782,3.271,1.557,6.514,2.327,9.715C377.907,251.793,377.365,253.71,376.039,255.036z"/>
	<path style="fill:#989899;" d="M300.246,242.461l8.28-8.28c2.104-2.104,5.517-2.104,7.622,0l8.28,8.28
		c2.104,2.104,2.104,5.517,0,7.621l-8.28,8.28c-2.104,2.104-5.517,2.104-7.622,0l-8.28-8.28
		C298.141,247.978,298.141,244.567,300.246,242.461z"/>
</g>
<path style="fill:#878787;" d="M208.584,133.518h13.462c4.463,0,8.084,3.622,8.084,8.084s-3.622,8.084-8.084,8.084H207.44
	c-0.377,0-0.754-0.022-1.121-0.087L208.584,133.518z"/>
<g>
	<path style="fill:#717071;" d="M483.447,458.774v16.169H440.59c-4.463,0-8.084-3.611-8.084-8.084c0-4.463,3.622-8.084,8.084-8.084
		H483.447z"/>
	<path style="fill:#717071;" d="M411.403,474.945h-7.401c-4.465,0-8.084-3.618-8.084-8.084s3.62-8.084,8.084-8.084h7.401
		c4.465,0,8.084,3.618,8.084,8.084S415.868,474.945,411.403,474.945z"/>
	<path style="fill:#717071;" d="M112.381,427.46c0,4.473-3.622,8.084-8.084,8.084H55.781c-1.326,0-2.576-0.324-3.686-0.894
		l3.686-7.19l3.837-7.46c0.108-0.215,0.215-0.42,0.334-0.625h44.344C108.759,419.376,112.381,422.998,112.381,427.46z"/>
	<path style="fill:#717071;" d="M318.384,435.549h-13.07c-4.465,0-8.084-3.618-8.084-8.084s3.62-8.084,8.084-8.084h13.07
		c4.465,0,8.084,3.618,8.084,8.084S322.848,435.549,318.384,435.549z"/>
</g>
<g>
	<polygon style="fill:#878787;" points="186.122,285.844 154.323,285.844 170.222,301.744 	"/>
	<polygon style="fill:#878787;" points="242.968,285.844 211.169,285.844 227.068,301.744 	"/>
	<polygon style="fill:#878787;" points="299.814,285.844 268.014,285.844 283.914,301.744 	"/>
	<polygon style="fill:#878787;" points="356.659,285.844 324.86,285.844 340.76,301.744 	"/>
</g>
<g>
</g>
<g>
</g>
<g>
</g>
<g>
</g>
<g>
</g>
<g>
</g>
<g>
</g>
<g>
</g>
<g>
</g>
<g>
</g>
<g>
</g>
<g>
</g>
<g>
</g>
<g>
</g>
<g>
</g>
</svg>
