<?xml version="1.0" encoding="iso-8859-1"?>
<!-- Generator: Adobe Illustrator 19.0.0, SVG Export Plug-In . SVG Version: 6.00 Build 0)  -->
<svg version="1.1" id="Capa_1" xmlns="http://www.w3.org/2000/svg" xmlns:xlink="http://www.w3.org/1999/xlink" x="0px" y="0px"
	 viewBox="0 0 512 512" style="enable-background:new 0 0 512 512;" xml:space="preserve">
<path style="fill:#67B0E3;" d="M283.2,145.046h-28.927v16.37l-30.994-10.509v67.457l23.19-43.216c0,0,35.202-2.909,36.731-3.138
	v-26.965H283.2z"/>
<g>
	<path style="fill:#83C9FF;" d="M411.27,112.203h-19.562c-4.489,0-8.127-3.638-8.127-8.127c0-4.489,3.638-8.127,8.127-8.127h19.562
		c4.489,0,8.127,3.638,8.127,8.127C419.397,108.565,415.759,112.203,411.27,112.203z"/>
	<path style="fill:#83C9FF;" d="M452.202,138.67H411.27c-4.489,0-8.127-3.638-8.127-8.127c0-4.489,3.638-8.127,8.127-8.127h40.932
		c4.489,0,8.127,3.638,8.127,8.127C460.329,135.032,456.69,138.67,452.202,138.67z"/>
	<path style="fill:#83C9FF;" d="M403.865,324.815h-19.561c-4.489,0-8.127-3.638-8.127-8.127s3.638-8.127,8.127-8.127h19.562
		c4.489,0,8.127,3.638,8.127,8.127C411.992,321.177,408.353,324.815,403.865,324.815z"/>
	<path style="fill:#83C9FF;" d="M144.322,249.923h-19.562c-4.489,0-8.127-3.638-8.127-8.127c0-4.489,3.638-8.127,8.127-8.127h19.562
		c4.489,0,8.127,3.638,8.127,8.127C152.451,246.285,148.811,249.923,144.322,249.923z"/>
	<path style="fill:#83C9FF;" d="M128.237,327.945H59.798c-4.489,0-8.127-3.638-8.127-8.127c0-4.489,3.638-8.127,8.127-8.127h68.439
		c4.489,0,8.127,3.638,8.127,8.127S132.726,327.945,128.237,327.945z"/>
	<path style="fill:#83C9FF;" d="M138.831,355.144H97.901c-4.489,0-8.127-3.638-8.127-8.127c0-4.489,3.638-8.127,8.127-8.127h40.931
		c4.489,0,8.127,3.638,8.127,8.127S143.319,355.144,138.831,355.144z"/>
</g>
<path style="fill:#969697;" d="M359.564,490.014H185.615c-2.993,0-5.418,2.426-5.418,5.418v12.037c0,2.503,2.028,4.531,4.531,4.531
	h175.725c2.503,0,4.531-2.028,4.531-4.531v-12.037C364.983,492.441,362.557,490.014,359.564,490.014z"/>
<path style="fill:#ACACAD;" d="M348.694,490.014H196.485v-17.975c0-2.993,2.426-5.418,5.418-5.418h141.373
	c2.993,0,5.418,2.426,5.418,5.418v17.975H348.694z"/>
<path style="fill:#969697;" d="M343.276,466.621H201.902c-2.993,0-5.418,2.426-5.418,5.418v6.279h152.209v-6.279
	C348.694,469.047,346.269,466.621,343.276,466.621z"/>
<path style="fill:#81C7FF;" d="M293.173,175.15l-5.591,6.394l-46.402,53.088l-20.578,44.754l-4.941-10.143l-6.658-13.651
	c-0.698-1.432-0.731-3.098-0.09-4.556l7.518-17.099l6.848-15.572l39.098-30.245l19.787-15.312l1.041-0.801L293.173,175.15z"/>
<path style="fill:#67B0E3;" d="M244.456,201.984l-21.172,16.379l-14.366,32.679c-0.641,1.458-0.608,3.123,0.089,4.554l11.594,23.793
	l20.581-44.763L244.456,201.984z"/>
<g>
	<path style="fill:#81C7FF;" d="M300.228,373.652l-20.21,12.267l13.155,13.253l-42.631,19.625l-28.608,27.547l-0.054,0.065
		l-1.279,1.225l0,0c-2.374,2.285-6.329,0.602-6.329-2.693v-47.859l1.344-3.966l7.661-22.573l-0.823-11.975l-0.715-10.306
		l-0.054-0.801l-1.084-15.626l-3.522-11.823l-2.807-9.384l0.26-1.279l6.069-29.962l20.578-44.754l46.402-53.088l5.591-6.394
		l4.475,7.229l15.247,24.588l4.411,46.347v0.022l2.482,26.05l0.488,5.115v0.01l6.079,63.784l0.856,8.995L300.228,373.652z"/>
	<polygon style="fill:#81C7FF;" points="339.228,204.874 326.463,233.081 318.964,249.65 318.964,249.662 317.306,253.314 
		316.818,248.242 315.757,237.037 312.896,206.966 297.649,182.378 293.173,175.15 302.135,177.252 304.367,177.773 
		323.754,182.313 333.853,197.04 	"/>
</g>
<polygon style="fill:#67B0E3;" points="339.229,204.876 317.309,253.34 312.893,206.963 "/>
<g>
	<polygon style="fill:#81C7FF;" points="223.283,218.363 223.283,150.906 214.888,139.628 184.665,190.528 	"/>
	<path style="fill:#81C7FF;" d="M254.273,161.417l-30.989-10.511v67.457l59.917-46.351
		C264.58,174.794,254.273,161.417,254.273,161.417z"/>
</g>
<path style="fill:#67B0E3;" d="M329.836,385.752c0.411,4.461-4.701,7.26-8.238,4.512l0,0l-14.499-11.27l-6.87-5.343l26.982-16.363
	l0.834,8.994L329.836,385.752z"/>
<polygon style="fill:#81C7FF;" points="321.598,390.264 321.598,466.618 220.602,466.618 220.602,446.874 227.971,439.971 
	250.542,418.797 293.173,399.172 280.018,385.918 287.82,381.183 300.228,373.652 307.099,378.994 "/>
<g>
	<path style="fill:#559CC6;" d="M268.797,86.828c-4.489,0-8.127-3.638-8.127-8.127V64.095c0-4.489,3.638-8.127,8.127-8.127
		c4.489,0,8.127,3.638,8.127,8.127v14.606C276.924,83.19,273.285,86.828,268.797,86.828z"/>
	<path style="fill:#559CC6;" d="M288.252,95.039c-2.388,0-4.753-1.047-6.358-3.059c-2.799-3.508-2.224-8.621,1.285-11.422
		l11.557-9.219c3.509-2.798,8.622-2.225,11.422,1.286c2.799,3.508,2.224,8.621-1.285,11.422l-11.557,9.219
		C291.818,94.459,290.029,95.039,288.252,95.039z"/>
	<path style="fill:#559CC6;" d="M294.343,108.848c-3.494,0-6.723-2.272-7.78-5.791c-1.292-4.299,1.146-8.831,5.445-10.122
		l13.987-4.203c4.298-1.296,8.83,1.146,10.122,5.445c1.292,4.299-1.146,8.831-5.445,10.122l-13.987,4.203
		C295.905,108.736,295.117,108.848,294.343,108.848z"/>
	<path style="fill:#559CC6;" d="M304.684,119.265h-12.362c-4.489,0-8.127-3.638-8.127-8.127c0-4.489,3.638-8.127,8.127-8.127h12.362
		c4.489,0,8.127,3.638,8.127,8.127C312.811,115.626,309.173,119.265,304.684,119.265z"/>
	<path style="fill:#559CC6;" d="M251.717,98.23c-1.893,0-3.794-0.657-5.334-1.998l-14.251-12.41
		c-3.385-2.949-3.74-8.082-0.792-11.467c2.948-3.383,8.081-3.74,11.467-0.792l14.251,12.41c3.385,2.949,3.74,8.082,0.792,11.467
		C256.242,97.284,253.985,98.23,251.717,98.23z"/>
	<path style="fill:#559CC6;" d="M242.929,108.848c-0.774,0-1.562-0.111-2.342-0.346l-13.987-4.203
		c-4.299-1.291-6.736-5.823-5.445-10.122c1.291-4.299,5.822-6.74,10.122-5.445l13.987,4.203c4.299,1.291,6.736,5.823,5.445,10.122
		C249.653,106.575,246.425,108.848,242.929,108.848z"/>
	<path style="fill:#559CC6;" d="M244.95,119.265h-12.362c-4.489,0-8.127-3.638-8.127-8.127c0-4.489,3.638-8.127,8.127-8.127h12.362
		c4.489,0,8.127,3.638,8.127,8.127C253.077,115.626,249.439,119.265,244.95,119.265z"/>
</g>
<polygon style="fill:#67B0E3;" points="214.27,310.624 220.6,279.389 241.181,234.627 293.175,175.149 272.59,220.501 
	250.301,267.004 221.683,329.468 "/>
<path style="fill:#559CC6;" d="M293.173,175.15l-9.969-3.142c-4.746,0.715-8.962,0.369-12.592-0.531l-45.23,34.989
	c-1.326,1.026-2.103,2.608-2.103,4.285v7.614l-6.848,15.572l44.961-34.774l-26.332,30.114c-0.488,0.553-0.888,1.181-1.214,1.853
	l-18.183,38.112l4.941,10.143l-6.069,29.962l33.507-70.21l49.61-56.761l4.487-5.126L293.173,175.15z"/>
<g>
	<polygon style="fill:#67B0E3;" points="321.598,390.264 321.598,409.597 261.91,433.057 220.602,466.618 220.602,446.874 
		250.542,418.797 293.173,399.172 280.018,385.918 300.228,373.652 307.099,378.994 	"/>
	<polygon style="fill:#67B0E3;" points="300.233,373.652 288.584,225.701 280.018,385.917 	"/>
</g>
<g>
	<path style="fill:#559CC6;" d="M321.598,390.264v20.903l-31.003-25.455c-1.463-1.203-2.405-2.817-2.774-4.53l12.408-7.532
		l6.87,5.343L321.598,390.264z"/>
	<path style="fill:#559CC6;" d="M250.541,456.989c-4.489,0-8.127-3.638-8.127-8.127v-18.618c0-4.489,3.638-8.127,8.127-8.127
		c4.489,0,8.127,3.638,8.127,8.127v18.618C258.669,453.351,255.03,456.989,250.541,456.989z"/>
	<path style="fill:#559CC6;" d="M307.099,378.994l-14.044,8.517l5.895,5.938c1.701,1.713,2.546,4.108,2.319,6.513
		c-0.238,2.405-1.539,4.584-3.543,5.938l-42.056,28.424l-30.527,32.293h-4.54v-18.855l1.279-1.354l0.054-0.065l6.036-6.372
		l16.493-17.458c0.412-0.434,0.867-0.823,1.354-1.148l34.677-23.429l-6.242-6.297c-1.755-1.766-2.601-4.237-2.298-6.707
		c0.303-2.471,1.713-4.671,3.847-5.96l50.552-30.678l0.856,8.994l0.834,8.994L307.099,378.994z"/>
</g>
<polygon style="fill:#67B0E3;" points="286.531,265.45 285.447,285.552 284.266,307.311 281.285,362.458 214.273,397.08 
	215.617,393.115 223.278,370.542 222.455,358.567 221.686,347.46 "/>
<path style="fill:#559CC6;" d="M280.025,394.045c-0.147,0-0.296-0.004-0.445-0.011c-4.482-0.242-7.919-4.072-7.677-8.554
	l8.565-158.562c0.242-4.483,4.047-7.923,8.555-7.678c4.482,0.242,7.919,4.072,7.677,8.554l-8.565,158.562
	C287.9,390.687,284.313,394.045,280.025,394.045z"/>
<path style="fill:#81C7FF;" d="M366.592,213.491c3.233,1.019,4.748,4.722,3.155,7.714l-33.108,62.189l-0.943,1.777l-15.908-5.787
	l-2.482-26.05v-0.022l1.658-3.652v-0.01l7.499-16.569h0.01l12.754-28.207l7.813,2.46L366.592,213.491z"/>
<path style="fill:#67B0E3;" d="M319.791,279.389l15.902,5.784l34.052-63.969c1.593-2.993,0.077-6.697-3.157-7.714l-14.356-4.517
	L319.791,279.389z"/>
<g>
	<path style="fill:#559CC6;" d="M291.136,298.729l-6.87,8.583l-68.334,85.435c-0.097,0.131-0.206,0.249-0.314,0.369l7.661-22.573
		l-0.823-11.975l55.992-69.992c1.755-2.189,4.4-3.23,7.001-3.023c1.572,0.13,3.11,0.694,4.421,1.755
		C293.379,290.114,293.942,295.229,291.136,298.729z"/>
	<path style="fill:#559CC6;" d="M268.672,254.137l-11.248,16.84l-34.623,75.573c-0.282,0.628-0.639,1.203-1.062,1.712l-0.054-0.801
		l-1.084-15.626l-3.522-11.823l25.834-56.393c0.173-0.39,0.39-0.769,0.629-1.127l11.606-17.382c2.492-3.739,7.542-4.735,11.27-2.243
		C270.156,245.359,271.165,250.398,268.672,254.137z"/>
	<path style="fill:#559CC6;" d="M335.695,285.172l-15.908-5.787L305.213,210l-17.631-28.457l-5.418-8.734l-0.379-0.618l-0.043-0.054
		l1.463-0.13l9.969,3.142l8.962,2.102l2.232,0.52l15.431,24.913c0.509,0.813,0.867,1.723,1.062,2.666l5.603,27.731h0.01
		l10.165,50.314L335.695,285.172z"/>
	<path style="fill:#559CC6;" d="M347.041,207.334l-17.317,38.275c-1.354,3.002-4.313,4.779-7.412,4.779
		c-1.116,0-2.254-0.228-3.337-0.726h-0.01v-0.01c-0.813-0.357-1.528-0.834-2.145-1.409c-2.514-2.308-3.381-6.057-1.907-9.33
		l0.845-1.875l18.097-39.998l5.375,7.835L347.041,207.334z"/>
	<path style="fill:#559CC6;" d="M191.028,137.266l5.27,33.67l-11.634,19.592l-11.771-29.93c-0.776-1.975-0.329-4.221,1.145-5.748
		L191.028,137.266z"/>
</g>
<path style="fill:#67B0E3;" d="M214.888,139.628l-13.752-64.472l-1.843-15.865c-0.267-2.3-1.965-4.175-4.227-4.669l-11.12-2.426
	l-3.764,35.929l10.845,49.14l5.27,33.67L214.888,139.628z"/>
<path style="fill:#559CC6;" d="M254.271,161.42l-7.837-2.658l-7.029,12.372c-2.217,3.903-0.852,8.864,3.051,11.081
	c1.267,0.721,2.647,1.063,4.007,1.063c2.829,0,5.577-1.479,7.074-4.114l6.948-12.227C256.412,164.184,254.271,161.42,254.271,161.42
	z"/>
<path style="fill:#67B0E3;" d="M348.846,259.613l12.936-23.451l13.564,8.351c2.564,1.579,3.349,4.944,1.748,7.495l-8.819,14.049
	c-1.634,2.603-5.102,3.327-7.641,1.596L348.846,259.613z"/>
<polygon style="fill:#559CC6;" points="348.846,259.613 361.782,236.163 374.881,244.248 360.426,267.51 "/>
<g>
	<path style="fill:#81C7FF;" d="M185.501,37.739h-29.962l4.805,45.538c0.29,2.757,2.616,4.849,5.389,4.849h9.575
		c2.772,0,5.097-2.093,5.389-4.849L185.501,37.739z"/>
	<path style="fill:#81C7FF;" d="M184.469,21.951c0,10.674-6.245,13.971-13.95,13.971c-7.705,0-13.95-3.298-13.95-13.971
		c0-6.796,5.655-14.943,9.764-19.967c2.164-2.646,6.209-2.646,8.373,0C178.814,7.008,184.469,15.156,184.469,21.951z"/>
</g>
<g>
	<path style="fill:#559CC6;" d="M193.915,45.866h-46.793c-4.489,0-8.127-3.638-8.127-8.127s3.638-8.127,8.127-8.127h46.793
		c4.489,0,8.127,3.638,8.127,8.127S198.404,45.866,193.915,45.866z"/>
	<path style="fill:#559CC6;" d="M301.3,435.246v31.372h-16.254v-31.372c0-4.497,3.641-8.127,8.127-8.127
		C297.66,427.119,301.3,430.75,301.3,435.246z"/>
</g>
<path style="fill:#81C7FF;" d="M283.389,147.136l-5.5,3.94c-5.47,3.919-12.829,3.919-18.299,0l-5.5-3.94
	c-3.857-2.763-6.144-7.216-6.144-11.96V97.9h41.588v37.277C289.534,139.92,287.246,144.374,283.389,147.136z"/>
<path style="fill:#67B0E3;" d="M289.533,106.718v28.457c0,0.682-0.054,1.354-0.152,2.026c-2.33-8.409-10.652-14.64-20.59-14.64
	c-10.024,0-18.411,6.35-20.643,14.89c-0.119-0.748-0.206-1.507-0.206-2.276v-28.305c3.327-4.291,8.192-7.499,13.871-8.973h13.968
	C281.394,99.349,286.206,102.513,289.533,106.718z"/>
<path style="fill:#81C7FF;" d="M294.344,102.036c0,4.931-1.679,9.515-4.552,13.286c-0.076-0.422-0.151-0.845-0.26-1.257
	c-2.092-8.712-10.576-15.236-20.741-15.236c-10.359,0-18.964,6.783-20.849,15.746c-0.054,0.25-0.097,0.498-0.141,0.748
	c-2.871-3.771-4.552-8.355-4.552-13.286c0-12.885,11.432-23.33,25.542-23.33C282.911,78.705,294.344,89.152,294.344,102.036z"/>
<path style="fill:#559CC6;" d="M268.792,78.705c-14.109,0-25.541,10.447-25.541,23.33c0,4.931,1.68,9.515,4.552,13.286
	c0.044-0.25,2.74-8.365,20.99-8.365c15.509,0,20.925,7.943,21.001,8.365c2.871-3.771,4.552-8.355,4.552-13.286
	C294.344,89.152,282.911,78.705,268.792,78.705z M268.792,86.833c6.545,0,12.245,3.153,15.225,7.813
	c-4.443-2.514-9.666-3.944-15.225-3.944s-10.772,1.43-15.215,3.944C256.557,89.987,262.257,86.833,268.792,86.833z"/>
<g>
</g>
<g>
</g>
<g>
</g>
<g>
</g>
<g>
</g>
<g>
</g>
<g>
</g>
<g>
</g>
<g>
</g>
<g>
</g>
<g>
</g>
<g>
</g>
<g>
</g>
<g>
</g>
<g>
</g>
</svg>
