<?xml version="1.0" encoding="iso-8859-1"?>
<!-- Generator: Adobe Illustrator 19.0.0, SVG Export Plug-In . SVG Version: 6.00 Build 0)  -->
<svg version="1.1" id="Capa_1" xmlns="http://www.w3.org/2000/svg" xmlns:xlink="http://www.w3.org/1999/xlink" x="0px" y="0px"
	 viewBox="0 0 512.001 512.001" style="enable-background:new 0 0 512.001 512.001;" xml:space="preserve">
<g>
	<path style="fill:#BC8F62;" d="M120.378,55.89c-4.517,0-8.179-3.661-8.179-8.179V16.446c0-4.518,3.662-8.179,8.179-8.179
		c4.517,0,8.179,3.661,8.179,8.179v31.265C128.557,52.229,124.895,55.89,120.378,55.89z"/>
	<path style="fill:#BC8F62;" d="M391.764,55.89c-4.518,0-8.179-3.661-8.179-8.179V16.446c0-4.518,3.661-8.179,8.179-8.179
		c4.518,0,8.179,3.661,8.179,8.179v31.265C399.943,52.229,396.281,55.89,391.764,55.89z"/>
</g>
<path style="fill:#D1A26F;" d="M458.227,87.966c3.773,0.802,5.559,5.142,3.419,8.351c-6.637,9.951-24.492,26.387-70.029,26.387
	H255.998c0,0-70.325,0-135.618,0c-45.54,0-63.395-16.438-70.031-26.389c-2.14-3.209-0.355-7.547,3.417-8.35
	c5.557-1.184,12.443-3.336,18.848-5.548c10.486-3.622,19.686-7.423,19.686-7.423l26.465-40.341c1.008-1.536,2.722-2.462,4.559-2.462
	H388.67c1.838,0,3.553,0.926,4.56,2.463l26.432,40.317c0,0,9.222,3.812,19.73,7.433C445.792,84.631,452.67,86.784,458.227,87.966z"
	/>
<rect x="92.702" y="112.401" style="fill:#448493;" width="329.206" height="68.67"/>
<path style="fill:#37757F;" d="M421.912,112.396v32.171c-8.402,1.844-18.411,2.962-30.297,2.962c-65.291,0-135.613,0-135.613,0
	s-70.321,0-135.626,0c-10.672,0-19.822-0.905-27.672-2.415v-32.72h329.208V112.396z"/>
<path style="fill:#BC8F62;" d="M458.227,87.966c3.773,0.802,5.559,5.142,3.419,8.351c-6.637,9.951-24.492,26.387-70.029,26.387
	H255.998c0,0-70.325,0-135.618,0c-45.54,0-63.395-16.438-70.031-26.389c-2.14-3.209-0.355-7.547,3.417-8.35
	c5.557-1.184,12.443-3.336,18.848-5.548c8.373,3.778,17.997,6.819,29.064,6.819c74.315,0,154.331,0,154.331,0s80.016,0,154.308,0
	c11.066,0,20.703-3.052,29.075-6.829C445.792,84.631,452.67,86.784,458.227,87.966z"/>
<rect x="56.103" y="213.651" style="fill:#448493;" width="403.529" height="69.548"/>
<path style="fill:#37757F;" d="M459.631,213.651v35.682c-10.046,2.057-21.871,3.298-35.792,3.298c-80.808,0-167.836,0-167.836,0
	s-87.027,0-167.836,0c-12.229,0-22.852-0.961-32.064-2.593v-36.386H459.631z"/>
<path style="fill:#D1A26F;" d="M423.835,170.591H255.999H88.164c0,0-40.244,14.469-82.919,16.216
	c-4.163,0.17-6.63,4.775-4.415,8.304c7.641,12.169,29.355,33.703,87.334,33.703c80.809,0,167.836,0,167.836,0s87.025,0,167.836,0
	c57.978,0,79.692-21.535,87.334-33.703c2.216-3.529-0.251-8.132-4.415-8.304C464.078,185.06,423.835,170.591,423.835,170.591z"/>
<path style="fill:#BC8F62;" d="M7.881,203.893c11.534,11.606,34.697,24.921,80.284,24.921c80.806,0,167.838,0,167.838,0
	s87.018,0,167.824,0c45.595,0,68.762-13.314,80.297-24.921H7.881z"/>
<g>
	<path style="fill:#2E5D69;" d="M283.033,260.81h-51.518c-4.517,0-8.179-3.661-8.179-8.179s3.662-8.179,8.179-8.179h51.518
		c4.518,0,8.179,3.661,8.179,8.179S287.551,260.81,283.033,260.81z"/>
	<path style="fill:#2E5D69;" d="M141.839,260.81h-21.99c-4.517,0-8.179-3.661-8.179-8.179s3.662-8.179,8.179-8.179h21.989
		c4.517,0,8.179,3.661,8.179,8.179S146.356,260.81,141.839,260.81z"/>
	<path style="fill:#2E5D69;" d="M394.698,260.81h-21.989c-4.518,0-8.179-3.661-8.179-8.179s3.661-8.179,8.179-8.179h21.989
		c4.518,0,8.179,3.661,8.179,8.179S399.215,260.81,394.698,260.81z"/>
	<path style="fill:#2E5D69;" d="M279.575,155.71h-44.603c-4.517,0-8.179-3.661-8.179-8.179s3.662-8.179,8.179-8.179h44.603
		c4.518,0,8.179,3.661,8.179,8.179S284.092,155.71,279.575,155.71z"/>
	<path style="fill:#2E5D69;" d="M157.331,155.71h-19.038c-4.517,0-8.179-3.661-8.179-8.179s3.662-8.179,8.179-8.179h19.038
		c4.517,0,8.179,3.661,8.179,8.179S161.849,155.71,157.331,155.71z"/>
	<path style="fill:#2E5D69;" d="M376.254,155.71h-19.039c-4.518,0-8.179-3.661-8.179-8.179s3.661-8.179,8.179-8.179h19.039
		c4.518,0,8.179,3.661,8.179,8.179S380.771,155.71,376.254,155.71z"/>
</g>
<path style="fill:#B55750;" d="M482.072,280.72v217.562c0,3.011-2.441,5.452-5.452,5.452H311.363c-3.011,0-5.452-2.441-5.452-5.452
	V386.284c0-25.109-22.335-45.464-49.887-45.464l0,0c-27.552,0-49.887,20.355-49.887,45.464v111.998c0,3.011-2.441,5.452-5.452,5.452
	H35.428c-3.011,0-5.452-2.441-5.452-5.452V280.72H482.072z"/>
<g>
	<path style="fill:#E0E0E3;" d="M206.091,465.471v32.812c0,3.011-2.441,5.452-5.452,5.452H20.552c-3.561,0-6.166-3.358-5.282-6.808
		l7.016-27.359c0.619-2.412,2.792-4.098,5.282-4.098L206.091,465.471L206.091,465.471z"/>
	<path style="fill:#E0E0E3;" d="M305.91,465.471v32.812c0,3.011,2.441,5.452,5.452,5.452h180.086c3.561,0,6.166-3.358,5.282-6.808
		l-7.016-27.359c-0.619-2.412-2.792-4.098-5.282-4.098L305.91,465.471L305.91,465.471z"/>
</g>
<g>
	<path style="fill:#9C4A41;" d="M78.602,435.449H64.509c-4.517,0-8.179-3.661-8.179-8.179c0-4.518,3.662-8.179,8.179-8.179h14.093
		c4.517,0,8.179,3.661,8.179,8.179C86.781,431.787,83.119,435.449,78.602,435.449z"/>
	<path style="fill:#9C4A41;" d="M446.473,435.449H432.38c-4.518,0-8.179-3.661-8.179-8.179c0-4.518,3.661-8.179,8.179-8.179h14.093
		c4.518,0,8.179,3.661,8.179,8.179C454.652,431.787,450.99,435.449,446.473,435.449z"/>
</g>
<g>
	<path style="fill:#BC8F62;" d="M486.003,310.815H25.997c-4.517,0-8.179-3.661-8.179-8.179c0-4.518,3.662-8.179,8.179-8.179h460.006
		c4.518,0,8.179,3.661,8.179,8.179C494.183,307.154,490.521,310.815,486.003,310.815z"/>
	<path style="fill:#BC8F62;" d="M486.003,288.9H25.997c-4.517,0-8.179-3.661-8.179-8.179c0-4.518,3.662-8.179,8.179-8.179h460.006
		c4.518,0,8.179,3.661,8.179,8.179C494.183,285.238,490.521,288.9,486.003,288.9z"/>
	<path style="fill:#BC8F62;" d="M403.538,58.553H108.452c-4.517,0-8.179-3.661-8.179-8.179s3.662-8.179,8.179-8.179h295.086
		c4.518,0,8.179,3.661,8.179,8.179S408.056,58.553,403.538,58.553z"/>
</g>
<g>
</g>
<g>
</g>
<g>
</g>
<g>
</g>
<g>
</g>
<g>
</g>
<g>
</g>
<g>
</g>
<g>
</g>
<g>
</g>
<g>
</g>
<g>
</g>
<g>
</g>
<g>
</g>
<g>
</g>
</svg>
