<?xml version="1.0" encoding="iso-8859-1"?>
<!-- Generator: Adobe Illustrator 19.0.0, SVG Export Plug-In . SVG Version: 6.00 Build 0)  -->
<svg version="1.1" id="Capa_1" xmlns="http://www.w3.org/2000/svg" xmlns:xlink="http://www.w3.org/1999/xlink" x="0px" y="0px"
	 viewBox="0 0 512 512" style="enable-background:new 0 0 512 512;" xml:space="preserve">
<g>
	<path style="fill:#BFBFBF;" d="M318.336,415.627c-2.344,0-4.663-1.047-6.207-3.047l-53.412-69.154
		c-2.646-3.425-2.014-8.347,1.413-10.993c3.422-2.646,8.346-2.016,10.992,1.413l53.412,69.154c2.646,3.425,2.014,8.347-1.413,10.993
		C321.696,415.094,320.01,415.627,318.336,415.627z"/>
	<path style="fill:#BFBFBF;" d="M210.892,418.059c-1.644,0-3.301-0.514-4.715-1.582c-3.455-2.607-4.142-7.52-1.535-10.976
		l54.021-71.588c2.606-3.455,7.521-4.143,10.976-1.535c3.455,2.607,4.142,7.52,1.535,10.976l-54.021,71.588
		C215.614,416.984,213.267,418.059,210.892,418.059z"/>
</g>
<g>
	<polygon style="fill:#DEDEE1;" points="310.466,338.635 264.919,338.635 219.373,338.635 219.373,318.239 310.466,318.239 	"/>
	<path style="fill:#DEDEE1;" d="M382.871,137.895v37.177h-58.284v-37.177c0-2.885,2.34-5.224,5.224-5.224h47.835
		C380.532,132.671,382.871,135.01,382.871,137.895z"/>
	<path style="fill:#DEDEE1;" d="M374.397,108.826v34.294h-41.326v-34.294c0-2.885,2.34-5.224,5.224-5.224h30.877
		C372.058,103.602,374.397,105.94,374.397,108.826z"/>
</g>
<g>
	<rect x="355.349" y="132.671" style="fill:#CCCCCC;" width="15.673" height="31.953"/>
	<rect x="336.447" y="132.671" style="fill:#CCCCCC;" width="15.673" height="31.953"/>
</g>
<rect x="324.587" y="148.647" style="fill:#BFBFBF;" width="58.282" height="15.98"/>
<g>
	<rect x="338.714" y="81.464" style="fill:#DEDEE1;" width="30.031" height="30.344"/>
	<path style="fill:#DEDEE1;" d="M388.524,169.848v80.98h-69.58v-80.98c0-2.885,2.34-5.224,5.224-5.224H383.3
		C386.185,164.624,388.524,166.963,388.524,169.848z"/>
	<path style="fill:#DEDEE1;" d="M396.999,245.603v258.56h-86.528v-258.56c0-2.885,2.34-5.224,5.224-5.224h76.079
		C394.659,240.379,396.999,242.718,396.999,245.603z"/>
	<path style="fill:#DEDEE1;" d="M353.732,77.175c-4.329,0-7.837-3.508-7.837-7.837V7.837c0-4.329,3.508-7.837,7.837-7.837
		c4.329,0,7.837,3.508,7.837,7.837v61.502C361.569,73.666,358.061,77.175,353.732,77.175z"/>
</g>
<g>
	<rect x="318.945" y="219.084" style="fill:#BFBFBF;" width="69.58" height="21.291"/>
	<path style="fill:#BFBFBF;" d="M372.611,166.348v74.031h-15.673v-74.031c0-0.596,0.063-1.17,0.199-1.724h15.276
		C372.548,165.177,372.611,165.752,372.611,166.348z"/>
	<path style="fill:#BFBFBF;" d="M350.532,166.348v74.031h-15.673v-74.031c0-0.596,0.063-1.17,0.199-1.724h15.276
		C350.469,165.177,350.532,165.752,350.532,166.348z"/>
	<polygon style="fill:#BFBFBF;" points="367.336,81.464 340.13,81.464 345.896,57.211 361.569,57.211 	"/>
</g>
<g>
	<path style="fill:#A5A5A5;" d="M372.611,219.569v20.81h-15.673v-20.81c0-0.167,0.063-0.329,0.199-0.485h15.276
		C372.548,219.239,372.611,219.4,372.611,219.569z"/>
	<path style="fill:#A5A5A5;" d="M350.532,219.569v20.81h-15.673v-20.81c0-0.167,0.063-0.329,0.199-0.485h15.276
		C350.469,219.239,350.532,219.4,350.532,219.569z"/>
</g>
<g>
	<rect x="346.248" y="103.602" style="fill:#BFBFBF;" width="15.673" height="29.069"/>
	<rect x="310.471" y="467.905" style="fill:#BFBFBF;" width="86.528" height="36.26"/>
	<rect x="333.061" y="118.136" style="fill:#BFBFBF;" width="41.332" height="14.535"/>
</g>
<g>
	<rect x="346.248" y="118.136" style="fill:#A5A5A5;" width="15.673" height="14.537"/>
	<rect x="355.349" y="148.647" style="fill:#A5A5A5;" width="15.673" height="15.975"/>
	<rect x="336.447" y="148.647" style="fill:#A5A5A5;" width="15.673" height="15.975"/>
</g>
<g>
	<rect x="368.327" y="240.379" style="fill:#BFBFBF;" width="15.673" height="263.784"/>
	<rect x="346.248" y="240.379" style="fill:#BFBFBF;" width="15.673" height="263.784"/>
	<rect x="324.169" y="240.379" style="fill:#BFBFBF;" width="15.673" height="263.784"/>
</g>
<g>
	<rect x="368.327" y="467.905" style="fill:#A5A5A5;" width="15.673" height="36.26"/>
	<rect x="346.248" y="467.905" style="fill:#A5A5A5;" width="15.673" height="36.26"/>
	<rect x="324.169" y="467.905" style="fill:#A5A5A5;" width="15.673" height="36.26"/>
</g>
<g>
	<path style="fill:#DEDEE1;" d="M196.771,108.826v34.294h-41.326v-34.294c0-2.885,2.34-5.224,5.224-5.224h30.877
		C194.433,103.602,196.771,105.94,196.771,108.826z"/>
	<path style="fill:#DEDEE1;" d="M205.245,137.895v37.177h-58.284v-37.177c0-2.885,2.34-5.224,5.225-5.224h47.835
		C202.907,132.671,205.245,135.01,205.245,137.895z"/>
</g>
<g>
	<rect x="177.727" y="132.671" style="fill:#CCCCCC;" width="15.673" height="31.953"/>
	<rect x="158.824" y="132.671" style="fill:#CCCCCC;" width="15.673" height="31.953"/>
</g>
<rect x="146.965" y="148.647" style="fill:#BFBFBF;" width="58.282" height="15.98"/>
<g>
	<rect x="161.092" y="81.464" style="fill:#DEDEE1;" width="30.031" height="30.344"/>
	<path style="fill:#DEDEE1;" d="M210.898,169.848v80.98h-69.58v-80.98c0-2.885,2.34-5.224,5.224-5.224h59.131
		C208.56,164.624,210.898,166.963,210.898,169.848z"/>
	<path style="fill:#DEDEE1;" d="M219.372,245.603v258.56h-86.528v-258.56c0-2.885,2.34-5.224,5.224-5.224h76.079
		C217.034,240.379,219.372,242.718,219.372,245.603z"/>
	<path style="fill:#DEDEE1;" d="M176.107,77.175c-4.329,0-7.837-3.508-7.837-7.837V7.837c0-4.329,3.508-7.837,7.837-7.837
		c4.329,0,7.837,3.508,7.837,7.837v61.502C183.944,73.666,180.435,77.175,176.107,77.175z"/>
</g>
<g>
	<rect x="141.312" y="219.084" style="fill:#BFBFBF;" width="69.58" height="21.291"/>
	<path style="fill:#BFBFBF;" d="M194.984,166.348v74.031h-15.673v-74.031c0-0.596,0.063-1.17,0.199-1.724h15.276
		C194.922,165.177,194.984,165.752,194.984,166.348z"/>
	<path style="fill:#BFBFBF;" d="M172.906,166.348v74.031h-15.673v-74.031c0-0.596,0.063-1.17,0.199-1.724h15.276
		C172.843,165.177,172.906,165.752,172.906,166.348z"/>
	<polygon style="fill:#BFBFBF;" points="189.71,81.464 162.504,81.464 168.27,57.211 183.944,57.211 	"/>
</g>
<g>
	<path style="fill:#A5A5A5;" d="M194.984,219.569v20.81h-15.673v-20.81c0-0.167,0.063-0.329,0.199-0.485h15.276
		C194.922,219.239,194.984,219.4,194.984,219.569z"/>
	<path style="fill:#A5A5A5;" d="M172.906,219.569v20.81h-15.673v-20.81c0-0.167,0.063-0.329,0.199-0.485h15.276
		C172.843,219.239,172.906,219.4,172.906,219.569z"/>
</g>
<g>
	<rect x="168.626" y="103.602" style="fill:#BFBFBF;" width="15.673" height="29.069"/>
	<rect x="132.838" y="467.905" style="fill:#BFBFBF;" width="86.528" height="36.26"/>
	<rect x="155.439" y="118.136" style="fill:#BFBFBF;" width="41.332" height="14.535"/>
</g>
<g>
	<rect x="168.626" y="118.136" style="fill:#A5A5A5;" width="15.673" height="14.537"/>
	<rect x="177.727" y="148.647" style="fill:#A5A5A5;" width="15.673" height="15.975"/>
	<rect x="158.824" y="148.647" style="fill:#A5A5A5;" width="15.673" height="15.975"/>
</g>
<g>
	<rect x="190.704" y="240.379" style="fill:#BFBFBF;" width="15.673" height="263.784"/>
	<rect x="168.626" y="240.379" style="fill:#BFBFBF;" width="15.673" height="263.784"/>
	<rect x="146.547" y="240.379" style="fill:#BFBFBF;" width="15.673" height="263.784"/>
</g>
<g>
	<rect x="190.704" y="467.905" style="fill:#A5A5A5;" width="15.673" height="36.26"/>
	<rect x="168.626" y="467.905" style="fill:#A5A5A5;" width="15.673" height="36.26"/>
	<rect x="146.547" y="467.905" style="fill:#A5A5A5;" width="15.673" height="36.26"/>
	<path style="fill:#A5A5A5;" d="M434.279,512H77.721c-4.329,0-7.837-3.508-7.837-7.837s3.508-7.837,7.837-7.837h356.559
		c4.329,0,7.837,3.508,7.837,7.837S438.608,512,434.279,512z"/>
</g>
<g>
</g>
<g>
</g>
<g>
</g>
<g>
</g>
<g>
</g>
<g>
</g>
<g>
</g>
<g>
</g>
<g>
</g>
<g>
</g>
<g>
</g>
<g>
</g>
<g>
</g>
<g>
</g>
<g>
</g>
</svg>
