<?xml version="1.0" encoding="iso-8859-1"?>
<!-- Generator: Adobe Illustrator 19.0.0, SVG Export Plug-In . SVG Version: 6.00 Build 0)  -->
<svg version="1.1" id="Capa_1" xmlns="http://www.w3.org/2000/svg" xmlns:xlink="http://www.w3.org/1999/xlink" x="0px" y="0px"
	 viewBox="0 0 512 512" style="enable-background:new 0 0 512 512;" xml:space="preserve">
<path style="fill:#E0E0E3;" d="M356.533,40.005v441.37c0,4.393-3.565,7.959-7.959,7.959c-4.403,0-7.959-3.565-7.959-7.959V40.005
	c0-4.393,3.555-7.959,7.959-7.959C352.966,32.046,356.533,35.612,356.533,40.005z"/>
<rect x="340.616" y="117.781" style="fill:#D1D1D3;" width="15.917" height="17.121"/>
<path style="fill:#E0E0E3;" d="M337.072,7.959v123.23c0,4.404-3.565,7.959-7.959,7.959c-4.394,0-7.959-3.555-7.959-7.959V7.959
	c0-4.393,3.565-7.959,7.959-7.959C333.506,0,337.072,3.565,337.072,7.959z"/>
<path style="fill:#D1D1D3;" d="M321.154,117.786h15.917v13.402c0,4.404-3.565,7.959-7.959,7.959c-4.394,0-7.959-3.555-7.959-7.959
	v-13.402H321.154z"/>
<g>
	<path style="fill:#E0E0E3;" d="M362.843,142.866h-65.104c-4.396,0-7.959-3.563-7.959-7.959c0-4.395,3.563-7.959,7.959-7.959h65.104
		c4.396,0,7.959,3.563,7.959,7.959C370.801,139.302,367.239,142.866,362.843,142.866z"/>
	<path style="fill:#E0E0E3;" d="M348.569,235.723h-34.512c-4.396,0-7.959-3.563-7.959-7.959c0-4.395,3.563-7.959,7.959-7.959h34.512
		c4.396,0,7.959,3.563,7.959,7.959C356.528,232.16,352.964,235.723,348.569,235.723z"/>
	<path style="fill:#E0E0E3;" d="M348.569,380.929h-34.512c-4.396,0-7.959-3.563-7.959-7.959c0-4.396,3.563-7.959,7.959-7.959h34.512
		c4.396,0,7.959,3.563,7.959,7.959C356.528,377.366,352.964,380.929,348.569,380.929z"/>
	<path style="fill:#E0E0E3;" d="M223.962,141.132c-1.685,0-3.383-0.533-4.826-1.635c-3.492-2.669-4.161-7.663-1.491-11.156
		c26.243-34.34,58.163-61.93,79.284-76.301c3.634-2.474,8.584-1.53,11.057,2.102c2.472,3.634,1.531,8.585-2.103,11.057
		c-20.091,13.67-50.501,39.976-75.591,72.806C228.726,140.055,226.357,141.132,223.962,141.132z"/>
</g>
<path style="fill:#F4F4F4;" d="M314.056,40.008v86.941h-24.144V54.883C304.492,44.606,314.056,40.008,314.056,40.008z"/>
<path style="fill:#1460B2;" d="M314.055,126.945v361.679H156.953c-2.271-11.45-4.213-22.645-5.858-33.575
	c-0.87-5.836-1.655-11.598-2.356-17.275c-0.658-5.37-1.241-10.675-1.751-15.917c-0.308-3.131-0.584-6.229-0.828-9.317
	c-0.445-5.37-0.807-10.675-1.093-15.917c-0.181-3.131-0.319-6.239-0.445-9.317c-0.202-5.38-0.319-10.686-0.372-15.917
	c-0.031-3.131-0.031-6.239,0-9.317c0.043-5.38,0.17-10.685,0.382-15.917c0.117-3.131,0.276-6.239,0.457-9.317
	c0.308-5.391,0.711-10.697,1.2-15.917c0.276-3.141,0.595-6.239,0.945-9.316c0.605-5.401,1.295-10.707,2.079-15.917
	c0.457-3.141,0.955-6.251,1.486-9.317c0.912-5.411,1.931-10.717,3.024-15.917c0.658-3.141,1.348-6.251,2.069-9.316
	c1.274-5.423,2.632-10.728,4.075-15.917c0.881-3.151,1.783-6.251,2.717-9.317c1.655-5.433,3.406-10.738,5.232-15.917
	c1.114-3.162,2.26-6.271,3.427-9.328c2.101-5.454,4.277-10.76,6.537-15.917c1.379-3.162,2.791-6.271,4.234-9.317
	c2.589-5.486,5.263-10.792,8.011-15.917c1.688-3.172,3.406-6.282,5.158-9.317c3.162-5.529,6.409-10.824,9.699-15.917
	c3.937-6.07,7.947-11.842,11.991-17.329h97.083V126.945z"/>
<g>
	<path style="fill:#2577C1;" d="M314.055,144.272v15.917H195.281c3.162-5.529,6.409-10.824,9.699-15.917H314.055z"/>
	<path style="fill:#2577C1;" d="M314.055,169.506v15.917H182.113c2.589-5.486,5.263-10.792,8.011-15.917H314.055z"/>
	<path style="fill:#2577C1;" d="M314.055,194.741v15.917H171.342c2.101-5.454,4.277-10.76,6.537-15.917H314.055z"/>
	<path style="fill:#2577C1;" d="M314.055,219.986v15.917H162.683c1.655-5.433,3.406-10.738,5.232-15.917H314.055z"/>
	<path style="fill:#2577C1;" d="M314.055,245.219v15.917H155.891c1.274-5.423,2.632-10.728,4.075-15.917H314.055z"/>
	<path style="fill:#2577C1;" d="M314.055,270.453v15.917H150.799c0.912-5.411,1.931-10.717,3.024-15.917H314.055z"/>
	<path style="fill:#2577C1;" d="M314.055,295.686v15.917H147.233c0.605-5.401,1.295-10.707,2.079-15.917H314.055z"/>
	<path style="fill:#2577C1;" d="M314.055,320.921v15.917H145.089c0.308-5.391,0.711-10.697,1.2-15.917H314.055z"/>
	<path style="fill:#2577C1;" d="M314.055,346.155v15.917H144.251c0.043-5.38,0.17-10.685,0.382-15.917H314.055z"/>
	<path style="fill:#2577C1;" d="M314.055,371.388v15.917H144.623c-0.202-5.38-0.319-10.686-0.372-15.917H314.055z"/>
	<path style="fill:#2577C1;" d="M314.055,396.622v15.917H146.161c-0.445-5.37-0.807-10.675-1.093-15.917H314.055z"/>
	<path style="fill:#2577C1;" d="M314.055,421.857v15.917H148.74c-0.658-5.37-1.241-10.675-1.751-15.917H314.055z"/>
</g>
<path style="fill:#F4F4F4;" d="M265.497,126.945v333.453h-74.906c-11.566-76.487-19.949-220.951,41.575-333.453
	C232.167,126.945,265.497,126.945,265.497,126.945z"/>
<path style="fill:#114C82;" d="M314.056,455.053v33.575H156.957c-2.274-11.45-4.221-22.645-5.863-33.575H314.056z"/>
<path style="fill:#E8D7C4;" d="M420.155,512H91.845l0,0c0-16.916,13.712-30.628,30.628-30.628h267.052
	C406.441,481.372,420.155,495.084,420.155,512L420.155,512z"/>
<g>
	<path style="fill:#E0E0E3;" d="M265.497,418.716v15.917h-41.32c-4.393,0-7.959-3.565-7.959-7.959c0-4.393,3.565-7.959,7.959-7.959
		h41.32V418.716z"/>
	<path style="fill:#E0E0E3;" d="M265.497,369.966v15.917h-52.081c-4.393,0-7.959-3.565-7.959-7.959c0-4.394,3.565-7.959,7.959-7.959
		h52.081V369.966z"/>
	<path style="fill:#E0E0E3;" d="M265.497,321.217v15.917H209.83c-4.393,0-7.959-3.565-7.959-7.959c0-4.393,3.565-7.959,7.959-7.959
		h55.667V321.217z"/>
	<path style="fill:#E0E0E3;" d="M265.497,272.469v15.917h-54.468c-4.393,0-7.959-3.555-7.959-7.959c0-4.393,3.565-7.959,7.959-7.959
		h54.468V272.469z"/>
	<path style="fill:#E0E0E3;" d="M265.497,223.72v15.917h-41.32c-4.393,0-7.959-3.555-7.959-7.959c0-4.393,3.565-7.959,7.959-7.959
		h41.32V223.72z"/>
	<path style="fill:#E0E0E3;" d="M265.497,174.982v15.917h-23.376c-4.403,0-7.959-3.565-7.959-7.959c0-4.404,3.555-7.959,7.959-7.959
		h23.376V174.982z"/>
</g>
<g>
</g>
<g>
</g>
<g>
</g>
<g>
</g>
<g>
</g>
<g>
</g>
<g>
</g>
<g>
</g>
<g>
</g>
<g>
</g>
<g>
</g>
<g>
</g>
<g>
</g>
<g>
</g>
<g>
</g>
</svg>
