<?xml version="1.0" encoding="iso-8859-1"?>
<!-- Generator: Adobe Illustrator 19.0.0, SVG Export Plug-In . SVG Version: 6.00 Build 0)  -->
<svg version="1.1" id="Capa_1" xmlns="http://www.w3.org/2000/svg" xmlns:xlink="http://www.w3.org/1999/xlink" x="0px" y="0px"
	 viewBox="0 0 512 512" style="enable-background:new 0 0 512 512;" xml:space="preserve">
<path style="fill:#BAB3A6;" d="M64.536,74.015L64.536,74.015c-2.716,0-4.917-2.202-4.917-4.917V39.031
	c0-2.716,2.202-4.917,4.917-4.917l0,0c2.716,0,4.917,2.202,4.917,4.917v30.066C69.454,71.814,67.253,74.015,64.536,74.015z"/>
<g>
	<path style="fill:#E0DACE;" d="M100.106,95.566L100.106,95.566c-2.716,0-4.917-2.202-4.917-4.917V60.583
		c0-2.716,2.202-4.917,4.917-4.917l0,0c2.716,0,4.917,2.202,4.917,4.917v30.066C105.024,93.365,102.822,95.566,100.106,95.566z"/>
	<path style="fill:#E0DACE;" d="M29.088,95.566L29.088,95.566c-2.716,0-4.917-2.202-4.917-4.917V60.583
		c0-2.716,2.202-4.917,4.917-4.917l0,0c2.716,0,4.917,2.202,4.917,4.917v30.066C34.006,93.365,31.805,95.566,29.088,95.566z"/>
</g>
<path style="fill:#BAB3A6;" d="M447.339,74.015L447.339,74.015c-2.716,0-4.917-2.202-4.917-4.917V39.031
	c0-2.716,2.202-4.917,4.917-4.917l0,0c2.716,0,4.917,2.202,4.917,4.917v30.066C452.256,71.814,450.054,74.015,447.339,74.015z"/>
<g>
	<path style="fill:#E0DACE;" d="M482.908,95.566L482.908,95.566c-2.716,0-4.917-2.202-4.917-4.917V60.583
		c0-2.716,2.202-4.917,4.917-4.917l0,0c2.716,0,4.917,2.202,4.917,4.917v30.066C487.826,93.365,485.625,95.566,482.908,95.566z"/>
	<path style="fill:#E0DACE;" d="M411.89,95.566L411.89,95.566c-2.716,0-4.917-2.202-4.917-4.917V60.583
		c0-2.716,2.202-4.917,4.917-4.917l0,0c2.716,0,4.917,2.202,4.917,4.917v30.066C416.808,93.365,414.606,95.566,411.89,95.566z"/>
</g>
<g>
	<path style="fill:#F4F4F4;" d="M292.315,189.351c-4.465,0-8.084-3.62-8.084-8.084v-24.414c0-4.465,3.62-8.084,8.084-8.084
		c4.465,0,8.084,3.62,8.084,8.084v24.414C300.399,185.732,296.779,189.351,292.315,189.351z"/>
	<path style="fill:#F4F4F4;" d="M219.678,189.351c-4.465,0-8.084-3.62-8.084-8.084v-24.414c0-4.465,3.62-8.084,8.084-8.084
		s8.084,3.62,8.084,8.084v24.414C227.763,185.732,224.143,189.351,219.678,189.351z"/>
</g>
<rect x="100.112" y="180.37" style="fill:#E0E0E3;" width="311.787" height="30.469"/>
<rect x="100.112" y="195.605" style="fill:#C7C5CC;" width="311.787" height="15.235"/>
<path style="fill:#00A5FF;" d="M387.331,400.956v46.974l-25.848-4.646l-15.802-2.845l-15.597-2.802l-16.039-2.889l-15.468-2.77
	l-0.28-0.054l-3.999-0.722c-3.956-0.712-7.912-1.304-11.889-1.8c-5.152-0.625-10.305-1.078-15.478-1.336
	c-5.379-0.27-10.768-0.345-16.157-0.215c-5.163,0.119-10.315,0.432-15.468,0.927c-5.379,0.517-10.735,1.239-16.082,2.166
	c-0.032,0-0.054,0.01-0.087,0.01c-0.474,0.075-0.959,0.162-1.434,0.248l-14.034,2.522l-16.039,2.889l-15.608,2.802l-16.039,2.889
	l-31.312,5.627v-46.974L387.331,400.956L387.331,400.956z"/>
<g>
	<path style="fill:#0794D3;" d="M172.022,400.956v38.46l-16.039,2.889c-0.087-0.464-0.13-0.949-0.13-1.434v-39.914h16.169V400.956z"
		/>
	<path style="fill:#0794D3;" d="M203.668,400.956v32.768l-16.039,2.889c-0.087-0.464-0.13-0.949-0.13-1.434v-34.224H203.668z"/>
	<path style="fill:#0794D3;" d="M235.305,400.956v27.82c-5.379,0.517-10.735,1.239-16.082,2.166c-0.032,0-0.054,0.01-0.087,0.01
		v-29.998h16.169V400.956z"/>
	<path style="fill:#0794D3;" d="M266.941,400.956v26.872c0,0.075,0,0.162-0.01,0.237c-5.379-0.27-10.768-0.345-16.157-0.215
		c0-0.01,0-0.01,0-0.022v-26.872H266.941z"/>
	<path style="fill:#0794D3;" d="M298.576,400.956v31.022l-0.28-0.054l-3.999-0.722c-3.956-0.712-7.912-1.304-11.889-1.8v-28.445
		H298.576z"/>
	<path style="fill:#0794D3;" d="M330.213,400.956v35.248c0,0.485-0.043,0.971-0.13,1.434l-16.039-2.889v-33.792H330.213z"/>
	<path style="fill:#0794D3;" d="M361.849,400.956v39.914c0,0.841-0.13,1.649-0.367,2.415l-15.802-2.845v-39.484L361.849,400.956
		L361.849,400.956z"/>
</g>
<rect x="22.189" y="231.821" style="fill:#CFBCA4;" width="84.825" height="187.611"/>
<g>
	<rect x="22.189" y="243.252" style="fill:#C4AE97;" width="84.825" height="23.392"/>
	<rect x="22.189" y="285.895" style="fill:#C4AE97;" width="84.825" height="16.337"/>
	<rect x="22.189" y="323.699" style="fill:#C4AE97;" width="84.825" height="16.337"/>
</g>
<polygon style="fill:#BAB3A6;" points="91.058,156.393 64.598,50.031 38.137,156.393 "/>
<path style="fill:#D1CABA;" d="M113.408,154.697v88.877c-2.629,2.629-4.109,4.097-6.736,6.736H22.52
	c-2.629-2.639-4.097-4.109-6.736-6.736v-88.877H113.408z"/>
<g>
	<path style="fill:#BAB3A6;" d="M59.376,154.697H40.431l-7.434,28.681c-0.473,1.84-0.719,3.742-0.719,5.653v21.096
		c0,11.235,8.153,20.334,18.199,20.334h28.235c10.055,0,18.199-9.1,18.199-20.334v-21.096c0-1.911-0.236-3.813-0.719-5.653
		l-7.434-28.681H69.814L59.376,154.697L59.376,154.697z"/>
	<rect x="15.778" y="190.642" style="fill:#BAB3A6;" width="97.625" height="16.677"/>
	<rect x="15.778" y="156.39" style="fill:#BAB3A6;" width="97.625" height="16.677"/>
</g>
<path style="fill:#C4AE97;" d="M123.805,477.886H5.39c-2.977,0-5.39-2.413-5.39-5.39v-66.149c0-2.977,2.413-5.39,5.39-5.39h123.805
	v71.539C129.194,475.473,126.782,477.886,123.805,477.886z"/>
<g>
	<path style="fill:#B29B86;" d="M123.805,477.886H5.39c-2.977,0-5.39-2.413-5.39-5.39v-38.396h129.194v38.396
		C129.194,475.473,126.782,477.886,123.805,477.886z"/>
	<path style="fill:#B29B86;" d="M51.534,293.978c-4.465,0-8.084-3.62-8.084-8.084v-15.945c0-4.465,3.62-8.084,8.084-8.084
		s8.084,3.62,8.084,8.084v15.945C59.619,290.358,55.999,293.978,51.534,293.978z"/>
	<path style="fill:#B29B86;" d="M77.66,293.978c-4.465,0-8.084-3.62-8.084-8.084v-15.945c0-4.465,3.62-8.084,8.084-8.084
		s8.084,3.62,8.084,8.084v15.945C85.743,290.358,82.124,293.978,77.66,293.978z"/>
</g>
<path style="fill:#D1CABA;" d="M107.012,293.978H22.183c-4.15,0-7.514-3.62-7.514-8.084c0-4.465,3.365-8.084,7.514-8.084h84.829
	c4.15,0,7.514,3.62,7.514,8.084C114.526,290.358,111.161,293.978,107.012,293.978z"/>
<g>
	<path style="fill:#B29B86;" d="M51.534,329.468c-4.465,0-8.084-3.62-8.084-8.084v-15.945c0-4.465,3.62-8.084,8.084-8.084
		s8.084,3.62,8.084,8.084v15.945C59.619,325.848,55.999,329.468,51.534,329.468z"/>
	<path style="fill:#B29B86;" d="M77.66,329.468c-4.465,0-8.084-3.62-8.084-8.084v-15.945c0-4.465,3.62-8.084,8.084-8.084
		s8.084,3.62,8.084,8.084v15.945C85.743,325.848,82.124,329.468,77.66,329.468z"/>
</g>
<g>
	<path style="fill:#D1CABA;" d="M107.012,331.778H22.183c-4.15,0-7.514-3.62-7.514-8.084c0-4.465,3.365-8.084,7.514-8.084h84.829
		c4.15,0,7.514,3.62,7.514,8.084C114.526,328.159,111.161,331.778,107.012,331.778z"/>
	<path style="fill:#D1CABA;" d="M75.72,212.723H53.476c-2.977,0-5.39-2.413-5.39-5.39v-16.691h33.023v16.691
		C81.108,210.31,78.695,212.723,75.72,212.723z"/>
</g>
<g>
	<path style="fill:#B29B86;" d="M51.534,361.399c-4.465,0-8.084-3.62-8.084-8.084v-7.43c0-4.465,3.62-8.084,8.084-8.084
		s8.084,3.62,8.084,8.084v7.43C59.619,357.779,55.999,361.399,51.534,361.399z"/>
	<path style="fill:#B29B86;" d="M77.66,361.399c-4.465,0-8.084-3.62-8.084-8.084v-7.43c0-4.465,3.62-8.084,8.084-8.084
		s8.084,3.62,8.084,8.084v7.43C85.743,357.779,82.124,361.399,77.66,361.399z"/>
	<path style="fill:#B29B86;" d="M51.534,389.833c-4.465,0-8.084-3.62-8.084-8.084v-7.431c0-4.465,3.62-8.084,8.084-8.084
		s8.084,3.62,8.084,8.084v7.431C59.619,386.213,55.999,389.833,51.534,389.833z"/>
	<path style="fill:#B29B86;" d="M77.66,389.833c-4.465,0-8.084-3.62-8.084-8.084v-7.431c0-4.465,3.62-8.084,8.084-8.084
		s8.084,3.62,8.084,8.084v7.431C85.743,386.213,82.124,389.833,77.66,389.833z"/>
</g>
<g>
	<path style="fill:#E0DACE;" d="M48.086,190.643l11.334-39.148c1.502-5.188,8.851-5.188,10.354,0l11.334,39.148H48.086z"/>
	<polygon style="fill:#E0DACE;" points="86.805,117.118 100.106,74.015 113.408,117.118 	"/>
</g>
<rect x="86.81" y="117.123" style="fill:#D1CABA;" width="26.603" height="39.275"/>
<polygon style="fill:#E0DACE;" points="15.786,117.118 29.088,74.015 42.389,117.118 "/>
<rect x="15.788" y="117.123" style="fill:#D1CABA;" width="26.603" height="39.275"/>
<rect x="404.658" y="231.821" style="fill:#CFBCA4;" width="85.494" height="187.611"/>
<g>
	<rect x="404.658" y="250.316" style="fill:#C4AE97;" width="85.494" height="16.337"/>
	<rect x="404.658" y="285.895" style="fill:#C4AE97;" width="85.494" height="16.337"/>
	<rect x="404.658" y="323.699" style="fill:#C4AE97;" width="85.494" height="16.337"/>
</g>
<polygon style="fill:#BAB3A6;" points="420.942,156.393 447.402,50.031 473.863,156.393 "/>
<path style="fill:#D1CABA;" d="M398.592,154.697v88.877c2.629,2.629,4.109,4.097,6.736,6.736h84.152
	c2.629-2.639,4.097-4.109,6.736-6.736v-88.877H398.592z"/>
<g>
	<path style="fill:#BAB3A6;" d="M442.186,154.697h-18.945l-7.434,28.681c-0.483,1.84-0.719,3.742-0.719,5.653v21.096
		c0,11.235,8.144,20.334,18.199,20.334h28.235c10.046,0,18.199-9.1,18.199-20.334v-21.096c0-1.911-0.246-3.813-0.719-5.653
		l-7.434-28.681h-18.945L442.186,154.697L442.186,154.697z"/>
	<rect x="398.587" y="190.642" style="fill:#BAB3A6;" width="97.625" height="16.677"/>
	<rect x="398.587" y="156.39" style="fill:#BAB3A6;" width="97.625" height="16.677"/>
</g>
<path style="fill:#C4AE97;" d="M388.195,477.886H506.61c2.977,0,5.39-2.413,5.39-5.39v-66.149c0-2.977-2.413-5.39-5.39-5.39H382.806
	v71.539C382.806,475.473,385.218,477.886,388.195,477.886z"/>
<g>
	<path style="fill:#B29B86;" d="M388.195,477.886H506.61c2.977,0,5.39-2.413,5.39-5.39v-38.396H382.806v38.396
		C382.806,475.473,385.218,477.886,388.195,477.886z"/>
	<path style="fill:#B29B86;" d="M460.466,293.978c-4.465,0-8.084-3.62-8.084-8.084v-15.945c0-4.465,3.62-8.084,8.084-8.084
		c4.465,0,8.084,3.62,8.084,8.084v15.945C468.549,290.358,464.93,293.978,460.466,293.978z"/>
	<path style="fill:#B29B86;" d="M434.34,293.978c-4.465,0-8.084-3.62-8.084-8.084v-15.945c0-4.465,3.62-8.084,8.084-8.084
		c4.465,0,8.084,3.62,8.084,8.084v15.945C442.424,290.358,438.805,293.978,434.34,293.978z"/>
</g>
<path style="fill:#D1CABA;" d="M490.144,293.978h-85.483c-4.183,0-7.573-3.62-7.573-8.084c0-4.465,3.391-8.084,7.573-8.084h85.483
	c4.183,0,7.573,3.62,7.573,8.084C497.717,290.358,494.327,293.978,490.144,293.978z"/>
<g>
	<path style="fill:#B29B86;" d="M460.466,329.468c-4.465,0-8.084-3.62-8.084-8.084v-15.945c0-4.465,3.62-8.084,8.084-8.084
		c4.465,0,8.084,3.62,8.084,8.084v15.945C468.549,325.848,464.93,329.468,460.466,329.468z"/>
	<path style="fill:#B29B86;" d="M434.34,329.468c-4.465,0-8.084-3.62-8.084-8.084v-15.945c0-4.465,3.62-8.084,8.084-8.084
		c4.465,0,8.084,3.62,8.084,8.084v15.945C442.424,325.848,438.805,329.468,434.34,329.468z"/>
</g>
<g>
	<path style="fill:#D1CABA;" d="M490.144,331.778h-85.483c-4.183,0-7.573-3.62-7.573-8.084c0-4.465,3.391-8.084,7.573-8.084h85.483
		c4.183,0,7.573,3.62,7.573,8.084C497.717,328.159,494.327,331.778,490.144,331.778z"/>
	<path style="fill:#D1CABA;" d="M436.28,212.723h22.244c2.977,0,5.39-2.413,5.39-5.39v-16.691h-33.023v16.691
		C430.892,210.31,433.305,212.723,436.28,212.723z"/>
</g>
<g>
	<path style="fill:#B29B86;" d="M460.466,361.399c-4.465,0-8.084-3.62-8.084-8.084v-7.43c0-4.465,3.62-8.084,8.084-8.084
		c4.465,0,8.084,3.62,8.084,8.084v7.43C468.549,357.779,464.93,361.399,460.466,361.399z"/>
	<path style="fill:#B29B86;" d="M434.34,361.399c-4.465,0-8.084-3.62-8.084-8.084v-7.43c0-4.465,3.62-8.084,8.084-8.084
		c4.465,0,8.084,3.62,8.084,8.084v7.43C442.424,357.779,438.805,361.399,434.34,361.399z"/>
	<path style="fill:#B29B86;" d="M460.466,389.833c-4.465,0-8.084-3.62-8.084-8.084v-7.431c0-4.465,3.62-8.084,8.084-8.084
		c4.465,0,8.084,3.62,8.084,8.084v7.431C468.549,386.213,464.93,389.833,460.466,389.833z"/>
	<path style="fill:#B29B86;" d="M434.34,389.833c-4.465,0-8.084-3.62-8.084-8.084v-7.431c0-4.465,3.62-8.084,8.084-8.084
		c4.465,0,8.084,3.62,8.084,8.084v7.431C442.424,386.213,438.805,389.833,434.34,389.833z"/>
</g>
<g>
	<path style="fill:#E0DACE;" d="M463.914,190.643l-11.334-39.148c-1.502-5.188-8.851-5.188-10.354,0l-11.334,39.148H463.914z"/>
	<polygon style="fill:#E0DACE;" points="425.195,117.118 411.894,74.015 398.592,117.118 	"/>
</g>
<rect x="398.587" y="117.123" style="fill:#D1CABA;" width="26.603" height="39.275"/>
<polygon style="fill:#E0DACE;" points="496.214,117.118 482.912,74.015 469.611,117.118 "/>
<rect x="469.608" y="117.123" style="fill:#D1CABA;" width="26.603" height="39.275"/>
<path style="fill:#F4F4F4;" d="M258.852,189.351c-4.465,0-8.084-3.62-8.084-8.084v-9.844c0-4.465,3.62-8.084,8.084-8.084
	c4.465,0,8.084,3.62,8.084,8.084v9.844C266.936,185.732,263.316,189.351,258.852,189.351z"/>
<g>
	<rect x="163.944" y="180.37" style="fill:#E0E0E3;" width="19.689" height="30.469"/>
	<rect x="334.085" y="180.37" style="fill:#E0E0E3;" width="19.689" height="30.469"/>
	<rect x="243.691" y="180.37" style="fill:#E0E0E3;" width="30.333" height="30.469"/>
</g>
<g>
</g>
<g>
</g>
<g>
</g>
<g>
</g>
<g>
</g>
<g>
</g>
<g>
</g>
<g>
</g>
<g>
</g>
<g>
</g>
<g>
</g>
<g>
</g>
<g>
</g>
<g>
</g>
<g>
</g>
</svg>
