<?xml version="1.0" encoding="iso-8859-1"?>
<!-- Generator: Adobe Illustrator 19.0.0, SVG Export Plug-In . SVG Version: 6.00 Build 0)  -->
<svg version="1.1" id="Capa_1" xmlns="http://www.w3.org/2000/svg" xmlns:xlink="http://www.w3.org/1999/xlink" x="0px" y="0px"
	 viewBox="0 0 512 512" style="enable-background:new 0 0 512 512;" xml:space="preserve">
<rect x="229.23" y="387.406" style="fill:#999999;" width="118.429" height="55.38"/>
<path style="fill:#8E8E8E;" d="M347.656,425.229H229.228c-4.465,0-8.084-3.62-8.084-8.084c0-4.465,3.618-8.084,8.084-8.084h118.43
	c4.465,0,8.084,3.62,8.084,8.084C355.742,421.609,352.122,425.229,347.656,425.229z"/>
<path style="fill:#AEAEAF;" d="M174.426,430.151H8.759c-4.838,0-8.759-3.921-8.759-8.759v-25.226c0-4.838,3.922-8.759,8.759-8.759
	h165.666V430.151z"/>
<rect x="148.877" y="387.406" style="fill:#999999;" width="21.164" height="42.74"/>
<path style="fill:#AEAEAF;" d="M503.241,430.151H397.413v-42.745h105.827c4.838,0,8.759,3.921,8.759,8.759v25.226
	C512,426.23,508.078,430.151,503.241,430.151z"/>
<rect x="407.719" y="387.406" style="fill:#999999;" width="21.164" height="42.74"/>
<g>
	<path style="fill:#AEAEAF;" d="M229.227,442.792h-53.794c-5.073,0-9.186-4.113-9.186-9.186v-33.559h62.98V442.792z"/>
	<path style="fill:#AEAEAF;" d="M402.321,442.792h-54.665v-42.745h63.851v33.559C411.507,438.679,407.394,442.792,402.321,442.792z"
		/>
</g>
<g>
	<rect x="16.678" y="131.741" style="fill:#F4D787;" width="28.033" height="37.486"/>
	<polyline style="fill:#F4D787;" points="16.678,131.74 16.678,177.743 44.71,177.743 44.71,131.74 	"/>
	<polygon style="fill:#F4D787;" points="50.914,387.406 8.288,387.406 15.084,210.516 15.432,201.573 16.679,169.229 
		44.782,169.229 45.691,201.573 45.947,210.516 46.683,236.575 	"/>
</g>
<polygon style="fill:#E2C271;" points="50.914,387.406 29.596,387.406 29.596,236.575 46.683,236.575 "/>
<path style="fill:#524C45;" d="M30.516,176.221c-4.465,0-8.084-3.62-8.084-8.084v-15.074c0-4.465,3.618-8.084,8.084-8.084
	s8.084,3.62,8.084,8.084v15.074C38.6,172.601,34.981,176.221,30.516,176.221z"/>
<g>
	<polygon style="fill:#BCCED2;" points="45.947,210.516 15.084,210.516 15.432,201.573 16.679,169.229 44.782,169.229 
		45.691,201.573 	"/>
	<path style="fill:#BCCED2;" d="M30.695,120.194c-4.465,0-8.084-3.62-8.084-8.084V77.292c0-4.465,3.618-8.084,8.084-8.084
		s8.084,3.62,8.084,8.084v34.818C38.779,116.574,35.16,120.194,30.695,120.194z"/>
</g>
<path style="fill:#F4F4F4;" d="M14.485,131.74c-2.632,0-4.52-2.486-3.882-5.038c2.251-9.002,10.392-15.669,20.09-15.669
	s17.841,6.667,20.09,15.669c0.638,2.554-1.251,5.038-3.882,5.038H14.485z"/>
<path style="fill:#E2C271;" d="M45.691,244.66h-30.26c-4.465,0-8.084-3.62-8.084-8.084s3.618-8.084,8.084-8.084h30.26
	c4.465,0,8.084,3.62,8.084,8.084S50.157,244.66,45.691,244.66z"/>
<path style="fill:#A3BBBF;" d="M45.329,196.883H16.678c-4.465,0-8.084-3.62-8.084-8.084s3.618-8.084,8.084-8.084h28.65
	c4.465,0,8.084,3.62,8.084,8.084S49.794,196.883,45.329,196.883z"/>
<rect x="390.614" y="280.336" style="fill:#F4D787;" width="74.072" height="107.071"/>
<g>
	<rect x="411.502" y="280.336" style="fill:#E2C271;" width="17.374" height="107.071"/>
	<polygon style="fill:#E2C271;" points="460.107,387.409 441.48,387.409 446.327,280.337 464.691,280.337 	"/>
	<polygon style="fill:#E2C271;" points="390.619,261.188 475.806,261.188 464.776,280.333 390.619,280.333 	"/>
</g>
<rect x="46.722" y="280.336" style="fill:#F4D787;" width="126.077" height="107.071"/>
<g>
	<rect x="148.877" y="280.336" style="fill:#E2C271;" width="17.374" height="107.071"/>
	<path style="fill:#E2C271;" d="M172.796,261.188H44.999c-4.146,0-6.74,4.487-4.67,8.08l6.375,11.065h126.092V261.188z"/>
</g>
<rect x="368.943" y="285.717" style="fill:#DDC45B;" width="31.293" height="101.7"/>
<rect x="218.29" y="243.2" style="fill:#C9A34F;" width="141.166" height="154.53"/>
<path style="fill:#F4D787;" d="M411.508,172.189v227.857h-63.811V327.19c0-11.619-5.562-22.442-13.431-31.582
	c-3.202-3.741-6.791-7.2-10.542-10.305c-12.924-10.725-27.735-17.354-35.258-17.354c-7.34,0-30.612,11.458-45.703,28.585
	c-7.89,8.936-13.539,19.434-13.539,30.655v72.856h-62.981V172.189H411.508z"/>
<g>
	<path style="fill:#F4F4F4;" d="M200.363,378.883h-6.083c-2.977,0-5.39-2.413-5.39-5.39V356.68c0-2.977,2.413-5.39,5.39-5.39h6.083
		c2.977,0,5.39,2.413,5.39,5.39v16.813C205.753,376.47,203.34,378.883,200.363,378.883z"/>
	<path style="fill:#F4F4F4;" d="M200.363,326.477h-6.083c-2.977,0-5.39-2.413-5.39-5.39v-16.813c0-2.977,2.413-5.39,5.39-5.39h6.083
		c2.977,0,5.39,2.413,5.39,5.39v16.813C205.753,324.064,203.34,326.477,200.363,326.477z"/>
	<path style="fill:#F4F4F4;" d="M200.363,273.05h-6.083c-2.977,0-5.39-2.413-5.39-5.39v-16.813c0-2.977,2.413-5.39,5.39-5.39h6.083
		c2.977,0,5.39,2.413,5.39,5.39v16.813C205.753,270.636,203.34,273.05,200.363,273.05z"/>
	<path style="fill:#F4F4F4;" d="M381.864,378.883h-6.083c-2.977,0-5.39-2.413-5.39-5.39V356.68c0-2.977,2.413-5.39,5.39-5.39h6.083
		c2.977,0,5.39,2.413,5.39,5.39v16.813C387.254,376.47,384.84,378.883,381.864,378.883z"/>
	<path style="fill:#F4F4F4;" d="M381.864,326.477h-6.083c-2.977,0-5.39-2.413-5.39-5.39v-16.813c0-2.977,2.413-5.39,5.39-5.39h6.083
		c2.977,0,5.39,2.413,5.39,5.39v16.813C387.254,324.064,384.84,326.477,381.864,326.477z"/>
	<path style="fill:#F4F4F4;" d="M381.864,273.05h-6.083c-2.977,0-5.39-2.413-5.39-5.39v-16.813c0-2.977,2.413-5.39,5.39-5.39h6.083
		c2.977,0,5.39,2.413,5.39,5.39v16.813C387.254,270.636,384.84,273.05,381.864,273.05z"/>
	<path style="fill:#F4F4F4;" d="M200.363,219.621h-6.083c-2.977,0-5.39-2.413-5.39-5.39v-16.813c0-2.977,2.413-5.39,5.39-5.39h6.083
		c2.977,0,5.39,2.413,5.39,5.39v16.813C205.753,217.208,203.34,219.621,200.363,219.621z"/>
	<path style="fill:#F4F4F4;" d="M245.809,219.621h-6.083c-2.977,0-5.39-2.413-5.39-5.39v-16.813c0-2.977,2.413-5.39,5.39-5.39h6.083
		c2.977,0,5.39,2.413,5.39,5.39v16.813C251.199,217.208,248.786,219.621,245.809,219.621z"/>
	<path style="fill:#F4F4F4;" d="M291.335,219.621h-6.083c-2.977,0-5.39-2.413-5.39-5.39v-16.813c0-2.977,2.413-5.39,5.39-5.39h6.083
		c2.977,0,5.39,2.413,5.39,5.39v16.813C296.725,217.208,294.312,219.621,291.335,219.621z"/>
	<path style="fill:#F4F4F4;" d="M336.862,219.621h-6.083c-2.977,0-5.39-2.413-5.39-5.39v-16.813c0-2.977,2.413-5.39,5.39-5.39h6.083
		c2.977,0,5.39,2.413,5.39,5.39v16.813C342.251,217.208,339.838,219.621,336.862,219.621z"/>
	<path style="fill:#F4F4F4;" d="M381.864,219.621h-6.083c-2.977,0-5.39-2.413-5.39-5.39v-16.813c0-2.977,2.413-5.39,5.39-5.39h6.083
		c2.977,0,5.39,2.413,5.39,5.39v16.813C387.254,217.208,384.84,219.621,381.864,219.621z"/>
</g>
<path style="fill:#524C45;" d="M323.075,397.733h-66.494V318.07c0-2.977,2.413-5.39,5.39-5.39h55.715c2.977,0,5.39,2.413,5.39,5.39
	V397.733z"/>
<g>
	<path style="fill:#E2C271;" d="M160.182,162.186l6.066,9.999h245.288l6.065-9.999c2.179-3.591-0.408-8.185-4.608-8.185H164.79
		C160.589,154.001,158.003,158.595,160.182,162.186z"/>
	<path style="fill:#E2C271;" d="M60.438,345.355v-38.241c0-2.977,2.413-5.39,5.39-5.39h68.455c2.977,0,5.39,2.413,5.39,5.39v38.237
		L60.438,345.355z"/>
</g>
<g>
	<path style="fill:#C9A34F;" d="M100.055,387.406v-46.223c0-10.363,16.072-18.763,19.809-18.763l0,0
		c5.036,0,19.809,8.401,19.809,18.763v46.223H100.055z"/>
	<path style="fill:#C9A34F;" d="M60.438,387.406v-46.223c0-10.363,16.072-18.763,19.809-18.763l0,0
		c5.036,0,19.809,8.401,19.809,18.763v46.223H60.438z"/>
</g>
<path style="fill:#BCCED2;" d="M482.513,121.386c-4.465,0-8.084-3.62-8.084-8.084V78.483c0-4.465,3.618-8.084,8.084-8.084
	s8.084,3.62,8.084,8.084v34.818C490.597,117.766,486.978,121.386,482.513,121.386z"/>
<polygon style="fill:#F4D787;" points="496.529,131.74 468.497,131.74 468.093,179.719 496.896,179.719 "/>
<path style="fill:#524C45;" d="M482.334,177.385c-4.465,0-8.084-3.62-8.084-8.084v-15.074c0-4.465,3.618-8.084,8.084-8.084
	c4.465,0,8.084,3.62,8.084,8.084v15.074C490.419,173.765,486.8,177.385,482.334,177.385z"/>
<polygon style="fill:#F4D787;" points="502.73,387.412 460.11,387.412 465.596,244.483 466.211,228.562 466.901,210.519 
	467.246,201.571 468.496,169.224 496.597,169.224 497.513,201.571 497.761,210.519 498.278,228.53 498.505,236.571 498.731,244.558 
	"/>
<polygon style="fill:#E2C271;" points="502.733,387.406 481.415,387.406 481.415,236.575 498.502,236.575 "/>
<polygon style="fill:#BCCED2;" points="497.766,210.516 466.903,210.516 467.25,201.573 468.181,169.224 496.816,169.224 
	497.51,201.573 "/>
<path style="fill:#F4F4F4;" d="M466.305,131.74c-2.632,0-4.52-2.486-3.882-5.038c2.251-9.002,10.392-15.669,20.09-15.669
	s17.841,6.667,20.09,15.669c0.638,2.554-1.251,5.038-3.882,5.038H466.305z"/>
<path style="fill:#E2C271;" d="M498.731,244.558c-0.399,0.065-0.809,0.097-1.218,0.097h-30.268c-0.56,0-1.121-0.054-1.649-0.172
	l0.614-15.92c0.334-0.054,0.679-0.075,1.034-0.075h30.268c0.259,0,0.507,0.01,0.765,0.043l0.227,8.042L498.731,244.558z"/>
<path style="fill:#A3BBBF;" d="M497.148,196.883h-28.65c-4.465,0-8.084-3.62-8.084-8.084s3.618-8.084,8.084-8.084h28.65
	c4.465,0,8.084,3.62,8.084,8.084S501.613,196.883,497.148,196.883z"/>
<path style="fill:#E2C271;" d="M331.87,245.776v0.063h-88.701v-0.063h-7.899c-2.885,0-5.224,2.34-5.224,5.224v74.01
	c0-10.877,5.475-21.055,13.124-29.717v-34.264h88.701v33.366c7.628,8.861,13.019,19.351,13.019,30.615v11.065h0.115V251
	c0-2.885-2.34-5.224-5.224-5.224L331.87,245.776L331.87,245.776z"/>
<g>
</g>
<g>
</g>
<g>
</g>
<g>
</g>
<g>
</g>
<g>
</g>
<g>
</g>
<g>
</g>
<g>
</g>
<g>
</g>
<g>
</g>
<g>
</g>
<g>
</g>
<g>
</g>
<g>
</g>
</svg>
